<?xml version="1.0" encoding="utf-8"?>
<!-- Generator: Adobe Illustrator 19.0.0, SVG Export Plug-In . SVG Version: 6.00 Build 0)  -->
<svg version="1.1" id="Layer_1" xmlns="http://www.w3.org/2000/svg" xmlns:xlink="http://www.w3.org/1999/xlink" x="0px" y="0px"
	 viewBox="0 0 192 120" style="enable-background:new 0 0 192 120;" xml:space="preserve">
<style type="text/css">
	.st0{fill:#00FFFF;}
</style>
<g id="XMLID_2_">
	<path id="XMLID_6_" class="st0" d="M154.8,5.4c2.8,0.1,7-0.2,11.6-0.6s9.6-1.2,14.1-1.9c4.4-0.7,8.3-1.4,10.5-1.9
		c2.2-0.5,2.9-0.9,0.9-0.9c-0.8,0-3.9,0-9.1,0c-5.2,0-12.3,0-21,0c-8.7,0-18.8,0-30.1,0.1s-23.5,0.1-36.3,0.2
		c-12.5,0.1-24.3,0.1-35.2,0S39.5,0.2,31,0.2S15.4,0,9.9,0s-9.3,0-11,0.1c-0.2,0,0.2,0.3,1.4,0.6s3.2,0.9,6,1.5S13,3.3,17.7,3.7
		s10.4,0.8,17.2,0.9C30,5,27.8,5.5,27.3,6c-0.5,0.5,0.7,1.1,2.6,1.6c1.9,0.5,4.4,0.9,6.6,1.1c2.2,0.2,4,0.3,4.4,0.2
		c0.2-0.1-0.6-0.1-1.6-0.1c-1,0-2.2,0-2.8,0c-0.6,0-0.6,0.1,0.8,0.2c1.4,0.1,4.2,0.2,9.2,0.3c-4.9,0.1-8.9,0.3-12.1,0.6
		c-3.2,0.3-5.7,0.6-7.5,0.9c-1.8,0.3-3,0.6-3.6,0.9c-0.7,0.3-0.8,0.5-0.6,0.6c0.5,0.2,1.4,0.3,2.8,0.4c1.4,0.1,3.4,0.2,6,0.2
		c2.6,0.1,5.8,0.1,9.7,0.2c3.9,0.1,8.5,0.2,13.8,0.4c-2.1,0-4.1,0.2-5.9,0.4c-1.8,0.3-3.4,0.6-4.8,1c-1.4,0.4-2.6,0.8-3.6,1.2
		c-1,0.4-1.7,0.7-2.1,0.8c-0.8,0.3-0.6,0.5,0.2,0.5c0.8,0.1,2.4,0,4.4,0c2-0.1,4.4-0.2,7.1-0.2c2.6-0.1,5.5-0.1,8.3-0.1
		c-3.5,0.2-6.6,0.6-9.5,1c-2.9,0.5-5.4,1-7.5,1.5c-2.1,0.5-3.9,1-5.2,1.4c-1.3,0.4-2.1,0.6-2.5,0.6c-0.5,0,0.2,0,1.6,0
		c1.5,0,3.8,0,6.7-0.1c2.9,0,6.4-0.1,10.3-0.1c3.9,0,8.1,0,12.5,0c-2,0.1-3.9,0.2-5.5,0.4s-3,0.3-4.1,0.4c-1.1,0.2-2,0.3-2.6,0.5
		c-0.6,0.2-0.9,0.3-0.9,0.5c0,0.4,1.3,0.7,3.7,1c2.4,0.3,5.8,0.6,10.1,0.8s9.3,0.4,14.9,0.5s11.8,0.2,18.3,0.2s12.7-0.1,18.3-0.2
		s10.7-0.3,14.9-0.5s7.7-0.5,10.1-0.8c2.4-0.3,3.7-0.6,3.7-1c0-0.2-0.6-0.4-1.6-0.7c-1.1-0.2-2.6-0.4-4.6-0.6
		c-2-0.2-4.4-0.3-7.2-0.5c-2.8-0.1-5.9-0.3-9.3-0.4c2.7-0.1,6-0.3,9.4-0.4c3.4-0.2,6.9-0.3,10-0.5c3.1-0.2,5.9-0.3,7.9-0.5
		c1.9-0.1,3.1-0.2,2.9-0.3c-0.9-0.4-1.6-0.8-2.1-1.1c-0.5-0.3-1-0.6-1.6-0.8c-0.6-0.2-1.3-0.4-2.3-0.5c-1-0.1-2.4-0.1-4.3-0.1
		c5-0.4,8.1-0.7,10-1c1.9-0.3,2.5-0.5,2.5-0.6c0-0.2-0.5-0.3-1-0.3s-0.9,0-0.5,0.1c0.2,0.1,0.1,0-0.4-0.1c-0.5-0.1-1.4-0.3-2.9-0.6
		c-1.5-0.2-3.5-0.5-6.1-0.7s-6-0.4-10-0.6c4.1-0.1,7.9-0.3,11.3-0.4c3.3-0.1,6.2-0.3,8.6-0.5c2.4-0.2,4.2-0.3,5.5-0.5
		c1.3-0.2,1.9-0.3,1.9-0.5s-0.5-0.3-1.5-0.5c-1-0.2-2.4-0.3-4.2-0.5c-1.8-0.1-4-0.3-6.6-0.4c-2.6-0.1-5.5-0.2-8.7-0.3
		c6.9,0.3,12.5,0.4,17.2,0.4c4.6,0,8.3-0.2,11.2-0.4s5-0.6,6.6-1.1c1.6-0.4,2.7-1,3.5-1.5c-1.7-1.1-2.8-1.7-3.8-2s-2.1-0.3-3.5-0.2
		c-1.4,0.1-3.3,0.3-6,0.5C163.4,5.5,159.8,5.6,154.8,5.4z"/>
	<path id="XMLID_5_" class="st0" d="M121.6,34.2c1.9-0.1,3.7-0.3,5.2-0.5s2.9-0.3,4-0.5c1.1-0.2,2-0.3,2.5-0.5
		c0.5-0.1,0.7-0.3,0.6-0.3c-0.3-0.2-1.1-0.6-2.6-1.2c-1.4-0.6-3.5-1.4-6.1-2.2c-2.6-0.8-5.9-1.6-9.8-2.4c-3.9-0.7-8.4-1.3-13.6-1.7
		c-5.1-0.4-10.3-0.3-15.2,0c-5,0.3-9.7,0.9-13.9,1.7c-4.2,0.8-7.8,1.7-10.6,2.7c-2.8,1-4.6,2.1-5.2,3.1c-0.1,0.2,0.3,0.4,1.2,0.6
		c0.9,0.2,2.2,0.4,4,0.6c1.7,0.2,3.8,0.4,6.2,0.5s5.1,0.3,7.9,0.4c-1.9,0.1-3.6,0.3-5.1,0.4c-1.5,0.1-2.8,0.3-3.9,0.4
		c-1.1,0.1-1.9,0.3-2.4,0.5c-0.6,0.2-0.9,0.3-0.9,0.5c0,0.3,1.2,0.5,3.3,0.6s5.1,0,8.8-0.1c3.7-0.1,8-0.2,12.8-0.4
		c4.7-0.1,9.9-0.2,15.2-0.2s10.3,0.1,14.8,0.2c4.5,0.1,8.4,0.3,11.7,0.4c3.3,0.1,5.9,0.2,7.7,0.1s2.8-0.2,2.8-0.6
		c0-0.2-0.5-0.4-1.4-0.7s-2.2-0.4-3.9-0.6c-1.7-0.2-3.7-0.4-6.1-0.5C127.1,34.5,124.5,34.3,121.6,34.2z"/>
	<path id="XMLID_4_" class="st0" d="M109.6,47c-4.6-0.7-9.7-1.1-14.8-1.2c-5.1-0.1-10.2,0-14.7,0.3s-8.5,0.9-11.4,1.6
		c-2.9,0.7-4.7,1.6-4.9,2.7c0,0.2,0.3,0.4,0.9,0.6c0.6,0.2,1.5,0.4,2.7,0.5c1.2,0.2,2.6,0.3,4.3,0.4s3.6,0.3,5.6,0.4
		c-1.8,0.5-3.6,0.8-5.1,1s-3,0.4-4.2,0.5s-2.2,0.2-2.9,0.3c-0.7,0.1-1.1,0.1-1.2,0.2c1.6,0.4,3.9,0.6,6.7,0.6c2.8,0,6.1-0.1,9.6-0.3
		c3.6-0.2,7.4-0.5,11.3-0.7c3.9-0.3,7.9-0.5,11.7-0.6c4.4,0.2,8.7,0.6,12.7,1.1s7.7,1.1,10.8,1.5c3.1,0.4,5.6,0.8,7.2,0.7
		c1.6,0,2.4-0.4,2-1.3c-0.1-0.2-1-0.4-2.3-0.6s-3.2-0.5-5.2-0.8s-4.2-0.5-6.2-0.8c-2-0.2-3.9-0.4-5.3-0.5c2.8-0.1,5.7,0,8.4,0.2
		c2.7,0.2,5.2,0.5,7.3,0.6c2,0.1,3.6,0,4.5-0.4s0.9-1.2,0-2.6c3.1-0.7,4.3-1.5,4.1-2.1c-0.2-0.7-1.9-1.2-4.7-1.6
		c-2.8-0.4-6.7-0.6-11.2-0.6C120.4,46.1,115.2,46.4,109.6,47z"/>
	<path id="XMLID_3_" class="st0" d="M121.7,102.8c-0.2,0-0.1,0,0-0.2s0.3-0.3,0.4-0.5c0.1-0.2,0.2-0.4,0-0.6s-0.5-0.4-1.3-0.5
		c-0.3-0.1-0.7-0.2-1.3-0.3c-0.5-0.1-1.2-0.3-1.7-0.4s-1.1-0.3-1.4-0.5c-0.3-0.1-0.4-0.3-0.1-0.3c0.2-0.1,1-0.2,2-0.4
		c1-0.2,2.3-0.4,3.6-0.7s2.6-0.5,3.5-0.7c1-0.2,1.6-0.3,1.7-0.4c0.3-0.5-0.4-0.8-1.6-1s-3.2-0.3-5.5-0.3s-5.1,0-8.1,0
		c-3,0-6.1-0.1-9.3-0.2c-3.2-0.4-6.6-0.6-10.1-0.6c-3.4,0-6.8,0.2-9.8,0.6s-5.6,0.8-7.4,1.3c-1.8,0.5-2.8,1.1-2.7,1.7
		c0.1,0.2,0.3,0.4,0.8,0.6c0.5,0.2,1.1,0.4,2,0.6s1.8,0.4,3,0.5c1.2,0.2,2.5,0.3,3.9,0.4c0.1,0,0.1,0,0.1,0c0,0,0,0.1,0,0.1
		s0,0.1,0,0.1c0,0-0.1,0-0.1,0c-0.9,0.1-2,0.3-3,0.5c-1,0.2-2,0.5-2.8,0.7c-0.9,0.2-1.6,0.5-2.2,0.7s-0.9,0.3-1,0.4
		c-0.1,0.1,0.2,0.1,0.9,0.1c0.6,0,1.6-0.1,2.6,0c1,0,2.1,0.2,3,0.6c0.9,0.4,1.7,1,2.2,2c-0.7-0.2-1.7-0.3-2.7-0.4
		c-1-0.1-2.1-0.1-3.1,0c-1,0-1.9,0.2-2.5,0.4c-0.6,0.2-1,0.5-1,0.8c-0.1,0.3,0.2,0.5,0.7,0.8c0.5,0.2,1.3,0.5,2.4,0.7
		c1,0.2,2.2,0.4,3.6,0.5c1.4,0.1,2.9,0.2,4.5,0.2c-1.1,0.1-2.1,0.3-2.9,0.6c-0.8,0.3-1.5,0.6-2.1,0.9c-0.6,0.3-1,0.7-1.2,1
		c-0.3,0.3-0.4,0.6-0.4,0.7c0,0.3,1.1,0.4,3,0.2c1.9-0.2,4.6-0.6,7.6-1.1c3-0.5,6.5-1,9.9-1.4c3.4-0.4,6.9-0.8,10-1
		c3.3,0.3,5.5,1,6.9,1.6c1.4,0.6,2,1.3,2.3,1.8s0.2,0.8,0.2,0.7c0-0.1,0.1-0.6,0.6-1.8c-0.1-0.2,0.5-0.3,1.5-0.5
		c0.9-0.2,2.2-0.4,3.5-0.6c1.3-0.2,2.5-0.4,3.5-0.6c0.9-0.2,1.5-0.4,1.4-0.5c-0.5-0.4-1.3-0.7-2.2-0.8c-1-0.2-2.1-0.3-3.1-0.4
		c-1-0.1-1.9-0.3-2.5-0.5c-0.6-0.2-0.9-0.6-0.7-1.1c0,0,0,0,0-0.1c0,0,0,0,0,0c0,0,0,0,0,0s0,0,0,0c-0.3-0.2-0.2-0.3,0.1-0.4
		c0.2-0.1,0.6-0.2,0.8-0.3c0.3-0.1,0.5-0.2,0.3-0.4c-0.1-0.1-0.5-0.3-1.5-0.5c3.6-0.2,6.3-0.5,8.3-0.9s3.1-0.6,3.4-0.9
		c0.3-0.2-0.3-0.4-1.8-0.4C127.4,102.2,125,102.4,121.7,102.8z"/>
</g>
</svg>
