<?xml version="1.0" encoding="utf-8"?>
<!-- Generator: Adobe Illustrator 19.0.0, SVG Export Plug-In . SVG Version: 6.00 Build 0)  -->
<svg version="1.1" id="Layer_2" xmlns="http://www.w3.org/2000/svg" xmlns:xlink="http://www.w3.org/1999/xlink" x="0px" y="0px"
	 viewBox="0 0 800 800" style="enable-background:new 0 0 800 800;" xml:space="preserve">
<style type="text/css">
	.svg_hamburg_x0020_2{fill:none;}
	.Menu_x0020_Items{fill:none;}
	.svg_image{fill:none;stroke:#000000;stroke-width:2;stroke-miterlimit:10;}
	.st0{fill:none;stroke:#000000;stroke-width:2;stroke-miterlimit:10;}
	.st1{fill:#FFFFFF;stroke:#000000;stroke-width:2;stroke-linecap:round;stroke-miterlimit:10;}
	.st2{fill:#FFFFFF;stroke:#000000;stroke-width:2;stroke-miterlimit:10;}
	.st3{fill:none;stroke:#000000;stroke-width:2;stroke-linecap:round;stroke-miterlimit:10;}
</style>
<g id="XMLID_273_">
	<path id="XMLID_93_" class="st0" d="M650.1,613.2H129c-6.6,0-12-5.4-12-12V198.8c0-6.6,5.4-12,12-12h521.2c6.6,0,12,5.4,12,12
		v402.3C662.1,607.8,656.7,613.2,650.1,613.2z"/>
	<g id="Hamburger_1_">
		<line id="XMLID_92_" class="st1" x1="642" y1="207" x2="621" y2="207"/>
		<line id="XMLID_91_" class="st1" x1="642" y1="213" x2="621" y2="213"/>
		<line id="XMLID_90_" class="st1" x1="642" y1="220" x2="621" y2="220"/>
	</g>
	<g id="Text_1_">
		<line id="XMLID_88_" class="st2" x1="570" y1="376" x2="207" y2="376"/>
		<line id="XMLID_87_" class="st2" x1="571" y1="376" x2="561" y2="376"/>
		<line id="XMLID_86_" class="st2" x1="570" y1="400" x2="207" y2="400"/>
		<line id="XMLID_85_" class="st2" x1="571" y1="376" x2="561" y2="376"/>
		<line id="XMLID_84_" class="st2" x1="570" y1="426" x2="207" y2="426"/>
		<line id="XMLID_83_" class="st2" x1="571" y1="376" x2="561" y2="376"/>
		<line id="XMLID_82_" class="st2" x1="570" y1="450" x2="207" y2="450"/>
		<line id="XMLID_81_" class="st2" x1="571" y1="376" x2="561" y2="376"/>
		<line id="XMLID_80_" class="st2" x1="570" y1="474" x2="207" y2="474"/>
		<line id="XMLID_79_" class="st2" x1="571" y1="376" x2="561" y2="376"/>
		<polyline id="XMLID_77_" class="st2" points="570,500 387,500 207,500 		"/>
		<polyline id="XMLID_75_" class="st2" points="570,524 387,524 207,524 		"/>
		<polyline id="XMLID_73_" class="st2" points="570,548 387,548 207,548 		"/>
	</g>
	<path id="XMLID_72_" class="svg_image" d="M422.5,337.8h-66c-6.6,0-12-5.4-12-12v-66c0-6.6,5.4-12,12-12h66c6.6,0,12,5.4,12,12v66
		C434.5,332.4,429.1,337.8,422.5,337.8z"/>
	<g id="XMLID_68_">
		<polyline id="XMLID_71_" class="st0" points="649.9,389.9 641,398.9 650.2,408.1 		"/>
		<polyline id="XMLID_70_" class="st0" points="674.1,408.1 683,399.1 673.8,389.9 		"/>
		<line id="XMLID_69_" class="st0" x1="641" y1="399" x2="683" y2="399"/>
	</g>
</g>
<g id="Menu_2_">
	<line id="XMLID_576_" class="st3" x1="1092" y1="211" x2="1032" y2="211"/>
	<line id="XMLID_575_" class="st3" x1="1198" y1="211" x2="1138" y2="211"/>
	<line id="XMLID_574_" class="st3" x1="1296" y1="211" x2="1236" y2="211"/>
	<line id="XMLID_573_" class="st3" x1="1390" y1="211" x2="1330" y2="211"/>
</g>
</svg>
