<?xml version="1.0" encoding="utf-8"?>
<!-- Generator: Adobe Illustrator 19.0.0, SVG Export Plug-In . SVG Version: 6.00 Build 0)  -->
<svg version="1.1" id="Layer_1" xmlns="http://www.w3.org/2000/svg" xmlns:xlink="http://www.w3.org/1999/xlink" x="0px" y="0px"
	 viewBox="0 0 800 800" style="enable-background:new 0 0 800 800;" xml:space="preserve">
<style type="text/css">
	.svg_hamburg{fill:none;}
	.svg_image{fill:none;stroke:#000000;stroke-width:2;stroke-miterlimit:10;}
	.fadein_x0020_menu{fill:none;stroke:#000000;stroke-width:2;stroke-miterlimit:10;}
	.st0{fill:none;stroke:#000000;stroke-width:2;stroke-miterlimit:10;}
	.st1{fill:#FFFFFF;stroke:#000000;stroke-width:2;stroke-linecap:round;stroke-miterlimit:10;}
	.st2{fill:#FFFFFF;stroke:#000000;stroke-width:2;stroke-miterlimit:10;}
	.st3{fill:none;stroke:#000000;stroke-width:2;stroke-linecap:round;stroke-miterlimit:10;}
</style>
<g id="XMLID_134_">
	<path id="XMLID_2_" class="st0" d="M501.3,613.2H277.1c-6.6,0-12-5.4-12-12V198.8c0-6.6,5.4-12,12-12h224.2c6.6,0,12,5.4,12,12
		v402.3C513.3,607.8,507.9,613.2,501.3,613.2z"/>
	<g id="Hamburger">
		<line id="XMLID_4_" class="fadeout_x0020_menu" x1="494" y1="207" x2="473" y2="207"/>
		<line id="XMLID_5_" class="fadeout_x0020_menu" x1="494" y1="213" x2="473" y2="213"/>
		<line id="XMLID_6_" class="fadeout_x0020_menu" x1="494" y1="220" x2="473" y2="220"/>
	</g>
	<g id="Text">
		<line id="XMLID_33_" class="st2" x1="472" y1="376" x2="307" y2="376"/>
		<g id="XMLID_7_">
			<line id="XMLID_16_" class="fadein_x0020_menu" x1="472" y1="254" x2="462" y2="254"/>
			<line id="XMLID_9_" class="fadein_x0020_menu" x1="472" y1="280" x2="462" y2="280"/>
			<line id="XMLID_17_" class="fadein_x0020_menu" x1="472" y1="304" x2="462" y2="304"/>
			<line id="XMLID_15_" class="fadein_x0020_menu" x1="472" y1="328" x2="462" y2="328"/>
			<line id="XMLID_14_" class="fadein_x0020_menu" x1="472" y1="353" x2="462" y2="353"/>
		</g>
		<line id="XMLID_32_" class="st2" x1="472" y1="400" x2="307" y2="400"/>
		<line id="XMLID_31_" class="st2" x1="472" y1="426" x2="307" y2="426"/>
		<line id="XMLID_30_" class="st2" x1="472" y1="450" x2="307" y2="450"/>
		<line id="XMLID_29_" class="st2" x1="472" y1="474" x2="307" y2="474"/>
		<polyline id="XMLID_13_" class="st2" points="472,500 389,500 307,500 		"/>
		<polyline id="XMLID_24_" class="st2" points="472,524 389,524 307,524 		"/>
		<polyline id="XMLID_25_" class="st2" points="472,548 389,548 307,548 		"/>
	</g>
	<path id="XMLID_3_" class="svg_image" d="M422.2,337.8h-66c-6.6,0-12-5.4-12-12v-66c0-6.6,5.4-12,12-12h66c6.6,0,12,5.4,12,12v66
		C434.2,332.4,428.8,337.8,422.2,337.8z"/>
	<g id="XMLID_18_">
		<polyline id="XMLID_19_" class="st0" points="501.5,389.9 492.6,398.9 501.7,408.1 		"/>
		<polyline id="XMLID_20_" class="st0" points="525.6,408.1 534.6,399.1 525.4,389.9 		"/>
		<line id="XMLID_21_" class="st0" x1="493" y1="399" x2="535" y2="399"/>
	</g>
</g>
<g id="Menu_3_">
	<g id="XMLID_45_">
		<line id="XMLID_49_" class="fadein_x0020_menu" x1="207" y1="211" x2="267" y2="211"/>
		<line id="XMLID_48_" class="fadein_x0020_menu" x1="315" y1="211" x2="375" y2="211"/>
		<line id="XMLID_47_" class="fadein_x0020_menu" x1="413" y1="211" x2="473" y2="211"/>
		<line id="XMLID_46_" class="fadein_x0020_menu" x1="510" y1="211" x2="570" y2="211"/>
	</g>
</g>
</svg>
