<?xml version="1.0" encoding="utf-8"?>
<!-- Generator: Adobe Illustrator 19.0.0, SVG Export Plug-In . SVG Version: 6.00 Build 0)  -->
<svg version="1.1" id="Layer_3" xmlns="http://www.w3.org/2000/svg" xmlns:xlink="http://www.w3.org/1999/xlink" x="0px" y="0px"
	 viewBox="0 0 800 800" style="enable-background:new 0 0 800 800;" xml:space="preserve">
<style type="text/css">
	.svg_hamburg_x0020_2{fill:none;}
	.svg_image{fill:none;stroke:#000000;stroke-width:2;stroke-miterlimit:10;}
	.fade_x0020_menu{fill:none;stroke:#000000;stroke-width:2;stroke-miterlimit:10;}
	.st0{fill:none;stroke:#000000;stroke-width:2;stroke-miterlimit:10;}
	.st1{fill:#FFFFFF;stroke:#000000;stroke-width:2;stroke-linecap:round;stroke-miterlimit:10;}
	.st2{fill:#FFFFFF;stroke:#000000;stroke-width:2;stroke-miterlimit:10;}
	.st3{fill:none;stroke:#000000;stroke-width:2;stroke-linecap:round;stroke-miterlimit:10;}
</style>
<g id="XMLID_233_">
	<path id="XMLID_259_" class="st0" d="M650.1,613.2H129c-6.6,0-12-5.4-12-12V198.8c0-6.6,5.4-12,12-12h521.2c6.6,0,12,5.4,12,12
		v402.3C662.1,607.8,656.7,613.2,650.1,613.2z"/>
	<g id="Hamburger_2_">
		<line id="XMLID_258_" class="st1" x1="642" y1="207" x2="621" y2="207"/>
		<line id="XMLID_257_" class="st1" x1="642" y1="213" x2="621" y2="213"/>
		<line id="XMLID_256_" class="st1" x1="642" y1="220" x2="621" y2="220"/>
	</g>
	<g id="Text_2_">
		<line id="XMLID_254_" class="st2" x1="570" y1="376" x2="207" y2="376"/>
		<g id="XMLID_8_">
			<line id="XMLID_251_" class="fade_x0020_menu" x1="570" y1="255" x2="337" y2="255"/>
			<line id="XMLID_249_" class="fade_x0020_menu" x1="570" y1="280" x2="337" y2="280"/>
			<line id="XMLID_253_" class="fade_x0020_menu" x1="570" y1="304" x2="337" y2="304"/>
			<line id="XMLID_247_" class="fade_x0020_menu" x1="570" y1="327" x2="337" y2="327"/>
			<line id="XMLID_245_" class="fade_x0020_menu" x1="570" y1="351" x2="337" y2="351"/>
		</g>
		<line id="XMLID_252_" class="st2" x1="570" y1="400" x2="207" y2="400"/>
		<line id="XMLID_250_" class="st2" x1="570" y1="426" x2="207" y2="426"/>
		<line id="XMLID_248_" class="st2" x1="570" y1="450" x2="207" y2="450"/>
		<line id="XMLID_246_" class="st2" x1="570" y1="474" x2="207" y2="474"/>
		<polyline id="XMLID_243_" class="st2" points="570,500 387,500 207,500 		"/>
		<polyline id="XMLID_241_" class="st2" points="570,524 387,524 207,524 		"/>
		<polyline id="XMLID_239_" class="st2" points="570,548 387,548 207,548 		"/>
	</g>
	<path id="XMLID_238_" class="svg_image" d="M302.2,354.4h-82.6c-6.6,0-12-5.4-12-12v-82.6c0-6.6,5.4-12,12-12h82.6
		c6.6,0,12,5.4,12,12v82.6C314.2,349,308.8,354.4,302.2,354.4z"/>
	<g id="XMLID_234_">
		<polyline id="XMLID_237_" class="st0" points="649.9,389.9 641,398.9 650.2,408.1 		"/>
		<polyline id="XMLID_236_" class="st0" points="674.1,408.1 683,399.1 673.8,389.9 		"/>
		<line id="XMLID_235_" class="st0" x1="641" y1="399" x2="683" y2="399"/>
	</g>
</g>
<g id="Menu_1_">
	<g id="XMLID_28_">
		<line id="XMLID_32_" class="st3" x1="281" y1="211" x2="221" y2="211"/>
		<line id="XMLID_31_" class="st3" x1="387" y1="211" x2="327" y2="211"/>
		<line id="XMLID_30_" class="st3" x1="485" y1="211" x2="425" y2="211"/>
		<line id="XMLID_29_" class="st3" x1="579" y1="211" x2="519" y2="211"/>
	</g>
	<g id="XMLID_23_">
		<line id="XMLID_27_" class="fade_x0020_menu" x1="281" y1="211" x2="221" y2="211"/>
		<line id="XMLID_26_" class="fade_x0020_menu" x1="387" y1="211" x2="327" y2="211"/>
		<line id="XMLID_25_" class="fade_x0020_menu" x1="485" y1="211" x2="425" y2="211"/>
		<line id="XMLID_24_" class="fade_x0020_menu" x1="579" y1="211" x2="519" y2="211"/>
	</g>
</g>
</svg>
