<?xml version="1.0" encoding="utf-8"?>
<!-- Generator: Adobe Illustrator 19.0.0, SVG Export Plug-In . SVG Version: 6.00 Build 0)  -->
<svg version="1.1" id="Layer_1" xmlns="http://www.w3.org/2000/svg" xmlns:xlink="http://www.w3.org/1999/xlink" x="0px" y="0px"
	 viewBox="-383 222 193 117" style="enable-background:new -383 222 193 117;" xml:space="preserve">
<style type="text/css">
	.st0{fill:#FFFFFF;}
</style>
<g>
	<path class="st0" d="M-227.1,226.5c22.4-1.1,36.9-4.3,37.1-4.5c0.9-1.1-43.2,0-96.5,0s-96.5-1.4-96.5,0c0,0.9,14.9,2.8,42.1,3.3
		c-18.5,0.2-27.9,0.6-28.2,2.2c-0.2,0.8,13.7,2.4,33.6,2.9c-19.6,0.4-32.5,1.2-32.5,2.1c0,1,16.8,1.8,41.1,2.2
		c-11.2,0.5-20.8,0.4-21.1,1c-0.9,2.1,10.9,2.9,24.7,2.6c-15.6-0.8-28.5,3.3-27.1,4c0.5,0.2,15.6-1.2,33.4,0.4
		c-8.1,0.4-13.1,1.1-13.1,1.7c0,1.4,21.8,3,46.9,1.3c25.9-1.8,47.1-0.7,47.1-2.1c0-0.9-9.1-0.9-22.8-1.3c10.9-0.5,17.7-1.1,17.7-1.9
		c0-0.7-5.7-1.3-15-1.7c21.3-0.4,36-1.3,36-2.3c0-0.9-10.8-1.6-27.2-2.1c16.6-0.5,27.2-1.2,27.2-1.9c0-0.7-8-1.3-20.9-1.7
		c30.3,0.1,40.6-2.8,38.5-3C-206.3,227.4-206.9,227.7-227.1,226.5z"/>
	<path class="st0" d="M-260.3,255.3c24.1-1,13.3-1.5,12.3-1.8c-1.2-0.4-17.8-4.3-38.5-2.5c-19.2,1.6-36-1.5-38.5,2.5
		c-0.5,0.8,7.8,1.7,19.3,2.2c-7.6,0.5-18.6,2.6-18.6,3.4c0,1.4,23.5,1,44.7,1s34.1-1.6,33-2.5C-247.6,256.5-248.8,255.8-260.3,255.3
		z"/>
	<path class="st0" d="M-279.5,264.4c-19.8,1.2-32.4-1.6-36.5,1.1c-0.7,0.4,5.2,1.5,13.5,1.9c-7.3,1.8-10.3,3-10.6,3.3
		c-0.9,1.1,14-1.4,28.1,1.2c16.5,3.1,24.2-1.2,28.9-1.2c0.7,0-1.4-2.6-7-3c11.2-0.5,19.4-1.4,20.1-2.2
		C-239,261.1-257.5,263-279.5,264.4z"/>
	<path class="st0" d="M-260.2,323.9c0.4-0.2-4.2-0.6-11.2-2.2c4.4-0.5,8.7-2.6,9-3.2c1-2-11.2,0.6-23.9,0
		c-12.9-0.6-23.4-0.9-22.9,1.4c0.2,0.9,4.5,1.7,11.2,2.2c-4.1,0.6-16,1.2-16,1.8c0.1,1.4,12.6,2.9,16,1.8c-6.3,1.4-9.7,2.8-9.4,2.9
		c3,1.2,5.3,1.6,9.4,1.4c-4.4,0.5-8,1.7-8,2.5c0,1.4,9.3-0.8,21.6,0.4c6.1,0.6,13.9,1.6,21.2,0.3c0.9-0.2-1.6-3-8.4-3.4
		c6.8,0.1,12.9-1.4,8.7-2.7c-1.2-0.4-5-0.1-8.7-1C-264.7,325.6-261,324.4-260.2,323.9z"/>
</g>
</svg>
