<?xml version="1.0" encoding="utf-8"?>
<!-- Generator: Adobe Illustrator 19.0.0, SVG Export Plug-In . SVG Version: 6.00 Build 0)  -->
<svg version="1.1" id="Layer_1" xmlns="http://www.w3.org/2000/svg" xmlns:xlink="http://www.w3.org/1999/xlink" x="0px" y="0px"
	 viewBox="-383 222 193 117" style="enable-background:new -383 222 193 117;" xml:space="preserve">
<style type="text/css">
	.st0{fill:#FFFFFF;}
</style>
<g>
	<path class="st0" d="M-227.1,226.5c22.6-0.5,37.1-3.7,37.1-4.5c0-1.4-43.2,0-96.5,0s-96.5-1.4-96.5,0c0,0.9,18.1,4.2,45.3,4.6
		c-18.6,0.5-31.4,0.2-31.4,0.9c0,0.8,13.7,2.4,33.6,2.9c-19.6,0.4-32.5,1.2-32.5,2.1c0,1,16.8,1.8,41.1,2.2
		c-11.2,0.5-18.1,1.1-18.1,1.8c0,0.8,8.4,1.4,21.7,1.9c-14.9,0.4-24.7,1.2-24.7,2.1c0,1,12.7,1.9,31.1,2.3
		c-8.1,0.4-13.1,1.1-13.1,1.7c0,1.4,21,2.5,47,2.5s47-1.1,47-2.5c0-0.9-9.1-1.7-22.7-2.1c10.9-0.5,17.7-1.1,17.7-1.9
		c0-0.7-5.7-1.3-15-1.7c21.3-0.4,36-1.3,36-2.3c0-0.9-10.8-1.6-27.2-2.1c16.6-0.5,27.2-1.2,27.2-1.9c0-0.7-8-1.3-20.9-1.7
		c30.3,0.1,49.3-3.2,47.2-3.4C-197.6,227-206.9,227.7-227.1,226.5z"/>
	<path class="st0" d="M-260.3,255.3c7.6-0.5,13-1.5,12.3-1.8c-1.1-0.6-17.8-1.1-38.5-2.5c-20.3-1.4-36-1.5-38.5,2.5
		c-0.5,0.8,7.8,1.7,19.3,2.2c-7.6,0.5-12.3,1.1-12.3,1.8c0,1.4,17.2,2.5,38.5,2.5s38.5-1.1,38.5-2.5
		C-241,256.6-248.8,255.8-260.3,255.3z"/>
	<path class="st0" d="M-279.5,263c-20-0.5-35.8-1.7-36.5,2.5c-0.1,0.8,5.2,1.5,13.5,1.9c-7.3,1.8-13.2,1.7-13.5,2.1
		c-0.9,1.1,13.9,3,31,2.5c16.8-0.5,30.6-1.7,31-2.5c0.3-0.6-3.5-1.3-9.1-1.8c11.2-0.5,19.4-1.4,20.1-2.2
		C-242.2,264.4-259.3,263.5-279.5,263z"/>
	<path class="st0" d="M-260.2,323.9c0-0.9-4.5-1.7-11.2-2.2c4.4-0.5,6.9-1.2,7.2-1.8c1-2-9.5-0.8-22.1-1.4
		c-12.9-0.6-23.4-0.9-22.9,1.4c0.2,0.9,4.5,1.7,11.2,2.2c-4.1,0.6-9.2,0.9-9.6,1.3c-0.5,0.5,5.2,1.9,9.6,2.3
		c-6.3,1.4-11.1,1.8-11.2,2.2c-0.3,1,4.8,2.1,11.2,2.2c-4.4,0.5-6.6,2.6-6.6,3.3c0,1.4,7.8,0.1,20.2-0.5c12.1-0.5,22.2,1.4,22.9,1.3
		c0.9-0.1-3.3-4-10-4.4c4.4-0.5,9.3-2.3,8.7-2.7c-1-0.7-5-0.1-8.7-1C-264.7,325.6-260.2,324.8-260.2,323.9z"/>
</g>
</svg>
