<?xml version="1.0" encoding="utf-8"?>
<!-- Generator: Adobe Illustrator 19.0.0, SVG Export Plug-In . SVG Version: 6.00 Build 0)  -->
<svg version="1.1" id="Layer_1" xmlns="http://www.w3.org/2000/svg" xmlns:xlink="http://www.w3.org/1999/xlink" x="0px" y="0px"
	 viewBox="0 0 192 120" style="enable-background:new 0 0 192 120;" xml:space="preserve">
<style type="text/css">
	.st0{fill:#00FFFF;}
</style>
<g id="XMLID_2_">
	<path id="XMLID_6_" class="st0" d="M154.8,5.4c11.2,0.5,45-5.4,37.1-5.3c-3,0-45.1-0.1-96.5,0.2C45.4,0.6,5.9-0.3-1.1,0.1
		c-0.9,0,8.8,4.1,36,4.5c-19.8,1.6,4.4,5,6,4.3c0.7-0.3-14.4-0.1,5.5,0.4c-19.6,0.4-24.6,2.6-23.8,3c1.8,0.8,11,0.6,32.4,1.3
		c-8.5,0-14.6,2.8-16.4,3.5c-3.1,1.2,8.7,0,20,0.2c-13.8,0.8-23.4,4.5-24.7,4.5c-1.8,0.1,13.6-0.2,31.1-0.1
		c-8.1,0.4-13.1,1.1-13.1,1.7c0,1.4,21,2.5,47,2.5s47-1.1,47-2.5c0-0.9-9.1-1.7-22.7-2.1c10.9-0.5,30.9-1.4,30.2-1.7
		c-3.7-1.7-2.7-2.6-10.3-2.5c20.1-1.5,9.5-2.2,11-1.8c0.9,0.3-3.1-1.5-19.4-2c16.6-0.5,27.2-1.2,27.2-1.9s-8-1.3-20.9-1.7
		c27.5,1.2,35.2-0.4,38.4-2.6C172.8,2.7,174.6,6.1,154.8,5.4z"/>
	<path id="XMLID_5_" class="st0" d="M121.6,34.2c7.6-0.5,13-1.5,12.3-1.8c-1.1-0.6-11.3-6.1-32-7.5c-20.3-1.4-42.5,3.5-45,7.5
		c-0.5,0.8,7.8,1.7,19.3,2.2c-7.6,0.5-12.3,1.1-12.3,1.8c0,1.4,18.7-0.1,40-0.1s37,1.5,37,0.1C140.9,35.5,133.1,34.7,121.6,34.2z"/>
	<path id="XMLID_4_" class="st0" d="M109.6,47c-18.3-2.7-45-0.7-45.7,3.5c-0.1,0.8,5.2,1.5,13.5,1.9c-7.3,1.8-13.2,1.7-13.5,2.1
		c6.5,1.6,24-0.5,39.3-1.1c17.5,0.6,34.2,5.7,32.7,2c-0.3-0.6-13.5-2.2-19.1-2.7c11.2-0.5,23.8,3.3,20.1-2.2
		C149.2,47.6,131.9,44.6,109.6,47z"/>
	<path id="XMLID_3_" class="st0" d="M121.7,102.8c-0.6,0.1,2.1-1.2-0.8-1.8c-1-0.2-5.5-1.2-4.5-1.5c0.8-0.2,10.6-2,10.8-2.2
		c1-2-11.9-0.9-24.5-1.5c-12.6-1.8-30.5,0.7-30,3c0.2,0.8,3.9,1.6,9.7,2.1c0.2,0,0.2,0.3,0,0.3c-3.8,0.5-8.7,2-9,2.3
		c-0.5,0.5,6.8-1.3,8.6,2.6c-2.9-0.8-9.3-0.7-9.3,0.7c-0.3,1,4.8,2.1,11.2,2.2c-4.4,0.5-6.6,2.6-6.6,3.3c0,1.4,18.2-2.7,30.6-3.3
		c13.3,1.4,7.8,7,10,2.3c-0.3-0.6,10.3-1.7,9.8-2.3c-1.8-1.6-9.5-0.8-8.5-2.9c0-0.1,0-0.1,0-0.1c-1-0.7,3.5-0.8-0.2-1.7
		C133.2,103.4,134.9,101.1,121.7,102.8z"/>
</g>
</svg>
