<?xml version="1.0" encoding="utf-8"?>
<!-- Generator: Adobe Illustrator 19.0.0, SVG Export Plug-In . SVG Version: 6.00 Build 0)  -->
<svg version="1.1" id="Layer_1" xmlns="http://www.w3.org/2000/svg" xmlns:xlink="http://www.w3.org/1999/xlink" x="0px" y="0px"
	 viewBox="0 0 192 120" style="enable-background:new 0 0 192 120;" xml:space="preserve">
<style type="text/css">
	.st0{fill:#00FFFF;}
</style>
<g id="XMLID_2_">
	<path id="XMLID_6_" class="st0" d="M154.9,5.3C177.5,4.8,192,1.6,192,0.8c0-1.4-43.4-0.6-96.7-0.6S-1-0.6-1,0.8
		C-1,1.7,17.1,5,44.3,5.4C25.7,5.9,12.9,5.6,12.9,6.3c0,0.8,13.7,2.4,33.6,2.9C26.9,9.6,14,10.4,14,11.3c0,1,16.8,1.8,41.1,2.2
		C43.9,14,37,14.6,37,15.3c0,0.8,8.4,1.4,21.7,1.9C43.8,17.6,34,18.4,34,19.3c0,1,12.7,1.9,31.1,2.3C57,22,52,22.7,52,23.3
		c0,1.4,21,2.5,47,2.5s47-1.1,47-2.5c0-0.9-9.1-1.7-22.7-2.1c10.9-0.5,17.7-1.1,17.7-1.9c0-0.7-5.7-1.3-15-1.7
		c21.3-0.4,36-1.3,36-2.3c0-0.9-10.8-1.6-27.2-2.1c16.6-0.5,27.2-1.2,27.2-1.9s-8-1.3-20.9-1.7c30.3,0.1,49.3-3.2,47.2-3.4
		C184.4,5.8,175.1,6.5,154.9,5.3z"/>
	<path id="XMLID_5_" class="st0" d="M121.7,34.1c7.6-0.5,13-1.5,12.3-1.8c-1.1-0.6-17.8-1.1-38.5-2.5c-20.3-1.4-36-1.5-38.5,2.5
		c-0.5,0.8,7.8,1.7,19.3,2.2C68.7,35,64,35.6,64,36.3c0,1.4,17.2,2.5,38.5,2.5s38.5-1.1,38.5-2.5C141,35.4,133.2,34.6,121.7,34.1z"
		/>
	<path id="XMLID_4_" class="st0" d="M102.5,41.8c-20-0.5-35.8-1.7-36.5,2.5c-0.1,0.8,5.2,1.5,13.5,1.9C72.2,48,66.3,47.9,66,48.3
		c-0.9,1.1,13.9,3,31,2.5c16.8-0.5,30.6-1.7,31-2.5c0.3-0.6-3.5-1.3-9.1-1.8c11.2-0.5,19.4-1.4,20.1-2.2
		C139.8,43.2,122.7,42.3,102.5,41.8z"/>
	<path id="XMLID_3_" class="st0" d="M121.8,102.7c0-0.9-4.5-1.7-11.2-2.2c4.4-0.5,6.9-1.2,7.2-1.8c1-2-9.5-0.8-22.1-1.4
		c-12.9-0.6-23.4-0.9-22.9,1.4c0.2,0.9,4.5,1.7,11.2,2.2c-4.1,0.6-9.2,0.9-9.6,1.3c-0.5,0.5,5.2,1.9,9.6,2.3
		c-6.3,1.4-11.1,1.8-11.2,2.2c-0.3,1,4.8,2.1,11.2,2.2c-4.4,0.5-6.6,2.6-6.6,3.3c0,1.4,7.8,0.1,20.2-0.5c12.1-0.5,22.2,1.4,22.9,1.3
		c0.9-0.1-3.3-4-10-4.4c4.4-0.5,9.3-2.3,8.7-2.7c-1-0.7-5-0.1-8.7-1C117.3,104.4,121.8,103.6,121.8,102.7z"/>
</g>
</svg>
