<svg width="316" height="254" viewBox="0 0 316 254" fill="none" xmlns="http://www.w3.org/2000/svg" xmlns:xlink="http://www.w3.org/1999/xlink">
<path d="M1.79663 174.268L18.8641 223.973L98.8118 252.12M256.911 40.4231L296.735 70.366L313.203 105.399M1.79663 60.4848L35.3328 70.366H139.534L184.149 48.2082M184.149 48.2082L187.144 1.79663M184.149 48.2082L232.956 29.943M196.725 252.12L224.872 216.188H284.758M284.758 216.188L313.203 229.663L296.735 241.64L284.758 216.188Z" stroke="white" stroke-opacity="0.7" stroke-width="2"/>
<circle cx="184.449" cy="47.9088" r="1.79658" fill="white"/>
<circle cx="187.443" cy="1.79658" r="1.79658" fill="white"/>
<circle cx="232.956" cy="29.9431" r="1.79658" fill="white"/>
<circle cx="140.732" cy="70.0666" r="1.79658" fill="white"/>
<circle cx="256.911" cy="40.1236" r="1.79658" fill="white"/>
<circle cx="297.034" cy="70.0666" r="1.79658" fill="white"/>
<circle cx="313.204" cy="105.399" r="1.79658" fill="white"/>
<circle cx="285.057" cy="216.787" r="1.79658" fill="white"/>
<circle cx="297.034" cy="241.34" r="1.79658" fill="white"/>
<circle cx="313.204" cy="229.962" r="1.79658" fill="white"/>
<circle cx="225.171" cy="216.787" r="1.79658" fill="white"/>
<circle cx="196.426" cy="252.12" r="1.79658" fill="white"/>
<circle cx="98.8118" cy="252.12" r="1.79658" fill="white"/>
<circle cx="19.7623" cy="225.171" r="1.79658" fill="white"/>
<circle cx="1.79658" cy="174.268" r="1.79658" fill="white"/>
<circle cx="34.7338" cy="70.0666" r="1.79658" fill="white"/>
<circle cx="1.79658" cy="60.4848" r="1.79658" fill="white"/>
</svg>
