<svg width="138" height="138" viewBox="0 0 138 138" fill="none" xmlns="http://www.w3.org/2000/svg">
<mask id="mask0_602_1338" style="mask-type:alpha" maskUnits="userSpaceOnUse" x="0" y="0" width="138" height="138">
<circle cx="69" cy="69" r="69" fill="#BDBDBD"/>
</mask>
<g mask="url(#mask0_602_1338)">
<circle cx="69" cy="69" r="69" fill="#050BA4"/>
<path d="M-9.22662e-06 69C-5.89514e-06 30.8924 30.8924 5.89514e-06 69 9.22662e-06C107.108 1.25581e-05 138 30.8924 138 69C138 107.108 107.108 138 69 138C30.8923 138 -1.25581e-05 107.108 -9.22662e-06 69Z" fill="url(#paint0_linear_602_1338)"/>
<circle cx="26.9375" cy="75.9375" r="12.9375" fill="#1D5204"/>
<circle cx="46.5" cy="34.5" r="6.5" fill="#1D5204"/>
<path d="M57 58C57 42.536 69.536 30 85 30C100.464 30 113 42.536 113 58C113 73.464 100.464 86 85 86C69.536 86 57 73.464 57 58Z" fill="#194107"/>
<path d="M91.25 95.125C91.25 106.24 82.2397 115.25 71.125 115.25C60.0103 115.25 51 106.24 51 95.125C51 84.0103 60.0103 75 71.125 75C82.2397 75 91.25 84.0103 91.25 95.125Z" fill="#194107"/>
<circle cx="116" cy="95" r="6" fill="#224711"/>
</g>
<defs>
<linearGradient id="paint0_linear_602_1338" x1="93" y1="129" x2="43" y2="15.5" gradientUnits="userSpaceOnUse">
<stop stop-color="#0C185B"/>
<stop offset="1" stop-color="#1E2A6A"/>
</linearGradient>
</defs>
</svg>
