<?xml version="1.0" encoding="utf-8"?>
<!-- Generator: Adobe Illustrator 19.0.0, SVG Export Plug-In . SVG Version: 6.00 Build 0)  -->
<svg version="1.1" id="Layer_2" xmlns="http://www.w3.org/2000/svg" xmlns:xlink="http://www.w3.org/1999/xlink" x="0px" y="0px"
	 viewBox="0 0 25.9 30.1" style="enable-background:new 0 0 25.9 30.1;" xml:space="preserve">
<style type="text/css">
	.st0{fill:#D9D9D9;}
	.st1{fill:#123900;}
</style>
<g id="XMLID_4_">
	<path id="XMLID_15_" class="st0" d="M1.7,2l4.3-1.1c2.5-0.6,5.1-0.6,7.6,0L14,1.1c2.5,0.6,5.1,0.6,7.6,0L25.9,0v4.8v4.8v4.8V19
		l-4.3,1.1c-2.5,0.6-5.1,0.6-7.6,0L13.5,20c-2.5-0.6-5.1-0.6-7.6,0L1.7,21"/>
	<path id="XMLID_1_" class="st1" d="M1.9,30.1H0V2.3C0,2,0.2,1.7,0.6,1.7h0.8c0.3,0,0.6,0.2,0.6,0.6V30.1z"/>
</g>
</svg>
