<svg width="154" height="154" viewBox="0 0 154 154" fill="none" xmlns="http://www.w3.org/2000/svg">
<g filter="url(#filter0_d_2_9)">
<mask id="mask0_2_9" style="mask-type:alpha" maskUnits="userSpaceOnUse" x="8" y="8" width="138" height="138">
<circle cx="77" cy="77" r="69" fill="#BDBDBD"/>
</mask>
<g mask="url(#mask0_2_9)">
<circle cx="77" cy="77" r="69" fill="#E7E7E7"/>
<path d="M7.99999 77C7.99999 38.8924 38.8924 8.00001 77 8.00001C115.108 8.00001 146 38.8924 146 77C146 115.108 115.108 146 77 146C38.8923 146 7.99999 115.108 7.99999 77Z" fill="url(#paint0_linear_2_9)"/>
<path d="M41.0625 99.2812C41.0625 79.0366 57.3132 62.625 77.3594 62.625C97.4056 62.625 113.656 79.0366 113.656 99.2812C113.656 119.526 97.4056 135.937 77.3594 135.937C57.3132 135.937 41.0625 119.526 41.0625 99.2812Z" fill="url(#paint1_linear_2_9)"/>
<circle cx="31.7188" cy="89.9375" r="12.9375" fill="#D9D9D9"/>
<circle cx="64.0625" cy="49.6875" r="12.9375" fill="#D9D9D9"/>
<circle cx="105.031" cy="77" r="20.125" fill="#D9D9D9"/>
</g>
</g>
<defs>
<filter id="filter0_d_2_9" x="0" y="0" width="154" height="154" filterUnits="userSpaceOnUse" color-interpolation-filters="sRGB">
<feFlood flood-opacity="0" result="BackgroundImageFix"/>
<feColorMatrix in="SourceAlpha" type="matrix" values="0 0 0 0 0 0 0 0 0 0 0 0 0 0 0 0 0 0 127 0" result="hardAlpha"/>
<feOffset/>
<feGaussianBlur stdDeviation="4"/>
<feComposite in2="hardAlpha" operator="out"/>
<feColorMatrix type="matrix" values="0 0 0 0 1 0 0 0 0 1 0 0 0 0 1 0 0 0 0.25 0"/>
<feBlend mode="normal" in2="BackgroundImageFix" result="effect1_dropShadow_2_9"/>
<feBlend mode="normal" in="SourceGraphic" in2="effect1_dropShadow_2_9" result="shape"/>
</filter>
<linearGradient id="paint0_linear_2_9" x1="77" y1="146" x2="77" y2="8.00001" gradientUnits="userSpaceOnUse">
<stop stop-color="#C5C5C5"/>
<stop offset="1" stop-color="#E8E8E8" stop-opacity="0"/>
</linearGradient>
<linearGradient id="paint1_linear_2_9" x1="77.3594" y1="135.937" x2="77.3594" y2="62.625" gradientUnits="userSpaceOnUse">
<stop stop-color="#CECECE"/>
<stop offset="1" stop-color="#DFDFDF" stop-opacity="0"/>
</linearGradient>
</defs>
</svg>
