<svg width="138" height="138" viewBox="0 0 138 138" fill="none" xmlns="http://www.w3.org/2000/svg">
<mask id="mask0_2_9" style="mask-type:alpha" maskUnits="userSpaceOnUse" x="0" y="0" width="138" height="138">
<circle cx="69" cy="69" r="69" fill="#BDBDBD"/>
</mask>
<g mask="url(#mask0_2_9)">
<circle cx="69" cy="69" r="69" fill="#E7E7E7"/>
<path d="M-9.22662e-06 69C-5.89514e-06 30.8924 30.8924 5.89514e-06 69 9.22662e-06C107.108 1.25581e-05 138 30.8924 138 69C138 107.108 107.108 138 69 138C30.8923 138 -1.25581e-05 107.108 -9.22662e-06 69Z" fill="url(#paint0_linear_2_9)"/>
<path d="M33.0625 91.2812C33.0625 71.0366 49.3132 54.625 69.3594 54.625C89.4056 54.625 105.656 71.0366 105.656 91.2812C105.656 111.526 89.4056 127.937 69.3594 127.937C49.3132 127.937 33.0625 111.526 33.0625 91.2812Z" fill="url(#paint1_linear_2_9)"/>
<circle cx="23.7188" cy="81.9375" r="12.9375" fill="#D9D9D9"/>
<circle cx="56.0625" cy="41.6875" r="12.9375" fill="#D9D9D9"/>
<circle cx="97.0312" cy="69" r="20.125" fill="#D9D9D9"/>
</g>
<defs>
<linearGradient id="paint0_linear_2_9" x1="69" y1="138" x2="69" y2="9.22662e-06" gradientUnits="userSpaceOnUse">
<stop stop-color="#C5C5C5"/>
<stop offset="1" stop-color="#E8E8E8" stop-opacity="0"/>
</linearGradient>
<linearGradient id="paint1_linear_2_9" x1="69.3594" y1="127.937" x2="69.3594" y2="54.625" gradientUnits="userSpaceOnUse">
<stop stop-color="#CECECE"/>
<stop offset="1" stop-color="#DFDFDF" stop-opacity="0"/>
</linearGradient>
</defs>
</svg>
