<?xml version="1.0" encoding="utf-8"?>
<!-- Generator: Adobe Illustrator 19.0.0, SVG Export Plug-In . SVG Version: 6.00 Build 0)  -->
<svg version="1.1" xmlns="http://www.w3.org/2000/svg" xmlns:xlink="http://www.w3.org/1999/xlink" x="0px" y="0px"
	 viewBox="0 0 800 800" style="enable-background:new 0 0 800 800;" xml:space="preserve">
<style type="text/css">
	.svg_hamburg{fill:none;}
	.svg_icon{fill:none;stroke:#000000;stroke-width:2;stroke-miterlimit:10;}
	.st0{fill:none;stroke:#000000;stroke-width:2;stroke-miterlimit:10;}
	.st1{fill:#FFFFFF;stroke:#000000;stroke-width:2;stroke-linecap:round;stroke-miterlimit:10;}
	.st2{fill:#FFFFFF;stroke:#000000;stroke-width:2;stroke-miterlimit:10;}
</style>
<g id="Layer_1">
	<path id="XMLID_1_" class="st0" d="M512.1,613.2H287.9c-6.6,0-12-5.4-12-12V198.8c0-6.6,5.4-12,12-12h224.2c6.6,0,12,5.4,12,12
		v402.3C524.1,607.8,518.7,613.2,512.1,613.2z"/>
	<g id="XMLID_22_">
		<line id="XMLID_4_" class="st1" x1="504" y1="207" x2="483" y2="207"/>
		<line id="XMLID_3_" class="st1" x1="504" y1="213" x2="483" y2="213"/>
		<line id="XMLID_5_" class="st1" x1="504" y1="220" x2="483" y2="220"/>
	</g>
	<line id="XMLID_37_" class="st2" x1="399" y1="278" x2="317" y2="278"/>
	<line id="XMLID_7_" class="st2" x1="482" y1="278" x2="399" y2="278"/>
	<line id="XMLID_36_" class="st2" x1="399" y1="302" x2="317" y2="302"/>
	<line id="XMLID_6_" class="st2" x1="482" y1="302" x2="399" y2="302"/>
	<line id="XMLID_35_" class="st2" x1="399" y1="326" x2="317" y2="326"/>
	<line id="XMLID_11_" class="st2" x1="482" y1="326" x2="399" y2="326"/>
	<line id="XMLID_34_" class="st2" x1="399" y1="352" x2="317" y2="352"/>
	<line id="XMLID_10_" class="st2" x1="482" y1="352" x2="399" y2="352"/>
	<line id="XMLID_33_" class="st2" x1="399" y1="376" x2="317" y2="376"/>
	<line id="XMLID_9_" class="st2" x1="482" y1="376" x2="399" y2="376"/>
	<line id="XMLID_32_" class="st2" x1="399" y1="400" x2="317" y2="400"/>
	<line id="XMLID_17_" class="st2" x1="482" y1="400" x2="399" y2="400"/>
	<path id="XMLID_12_" class="svg_icon" d="M304,228.1h-6c-6.6,0-12-5.4-12-12v-6c0-6.6,5.4-12,12-12h6c6.6,0,12,5.4,12,12v6
		C316,222.7,310.6,228.1,304,228.1z"/>
	<line id="XMLID_31_" class="st2" x1="399" y1="426" x2="317" y2="426"/>
	<line id="XMLID_16_" class="st2" x1="482" y1="426" x2="399" y2="426"/>
	<line id="XMLID_30_" class="st2" x1="399" y1="450" x2="317" y2="450"/>
	<line id="XMLID_15_" class="st2" x1="482" y1="450" x2="399" y2="450"/>
	<line id="XMLID_29_" class="st2" x1="399" y1="474" x2="317" y2="474"/>
	<line id="XMLID_14_" class="st2" x1="482" y1="474" x2="399" y2="474"/>
	<line id="XMLID_28_" class="st2" x1="399" y1="500" x2="317" y2="500"/>
	<line id="XMLID_13_" class="st2" x1="482" y1="500" x2="399" y2="500"/>
	<line id="XMLID_27_" class="st2" x1="399" y1="524" x2="317" y2="524"/>
	<line id="XMLID_24_" class="st2" x1="482" y1="524" x2="399" y2="524"/>
	<line id="XMLID_26_" class="st2" x1="399" y1="548" x2="317" y2="548"/>
	<line id="XMLID_25_" class="st2" x1="482" y1="548" x2="399" y2="548"/>
</g>
<g id="Layer_2">
	<g id="XMLID_20_">
		<polyline id="XMLID_18_" class="st2" points="512,389.9 503.1,398.9 512.2,408.1 		"/>
		<polyline id="XMLID_19_" class="st2" points="536.1,408.1 545.1,399.1 535.9,389.9 		"/>
		<line id="XMLID_21_" class="st2" x1="503" y1="399" x2="545" y2="399"/>
	</g>
</g>
</svg>
