<?xml version="1.0" encoding="utf-8"?>
<!-- Generator: Adobe Illustrator 19.0.0, SVG Export Plug-In . SVG Version: 6.00 Build 0)  -->
<svg version="1.1" id="Capa_1" xmlns="http://www.w3.org/2000/svg" xmlns:xlink="http://www.w3.org/1999/xlink" x="0px" y="0px"
	 viewBox="0 0 1705.7 1210.8" style="enable-background:new 0 0 1705.7 1210.8;" xml:space="preserve">
<style type="text/css">
	.st0{display:none;fill:#130336;}
	.st1{fill:#453875;}
	.st2{fill:#372165;}
	.st3{fill:#7A90C9;}
	.st4{fill:#90B4DF;}
	.st5{fill:#697FBF;}
	.st6{fill:#5460A1;}
	.st7{fill:#141334;}
	.st8{fill:#797DBC;}
	.st9{fill:#625591;}
	.st10{fill:#474187;}
	.st11{fill:#1E1F40;}
	.st12{fill:none;stroke:#242649;stroke-width:1.7016;stroke-miterlimit:10;}
	.st13{opacity:0.3;fill:#FFFFFF;}
</style>
<g>
	<g>
		<rect x="224" y="46.6" class="st0" width="1164.5" height="722"/>
		<path class="st1" d="M1395.4,0H217.2c-12.7,0-23.1,10.3-23.1,23.1v769c0,12.8,10.3,23.1,23.1,23.1h1178.2
			c12.7,0,23.1-10.3,23.1-23.1v-769C1418.5,10.3,1408.2,0,1395.4,0z M1388.6,768.6H224v-722h1164.5V768.6z"/>
		<path class="st2" d="M0,1094.9h1612.6v22.9c2.4,18.8-10.6,22.9-37,22.7H34.5c-13.8,0.1-34.5,0.1-34.5-22.8L0,1094.9z"/>
		<path class="st3" d="M1380.5,815.2c19.8,0,40,5.7,45,12.8l184.2,259.8c9.6,13.6-5.2,22.9-31.7,22.7H34.6
			c-26.5,0.1-41.2-9.1-31.7-22.7L187.2,828c5-7.1,25.2-12.8,45-12.8H1380.5z"/>
		<path class="st4" d="M1355.3,845c9.3,0,18.8,2.7,21.1,6L1479.3,997c4.5,6.4-2.4,10.7-14.9,10.7H148.2c-12.4,0-19.4-4.3-14.9-10.7
			L228,851c2.4-3.3,11.8-6,21.1-6H1355.3z"/>
		<g>
			<path class="st5" d="M948.5,1023.9c4.3,0,8.6,1.2,9.7,2.8l39.8,56c2.1,2.9-1.1,4.9-6.8,4.9H621.5c-5.7,0-8.9-2-6.8-4.9l39.7-56
				c1.1-1.5,5.4-2.8,9.7-2.8H948.5z"/>
			<path class="st6" d="M998,1082.7l-39.8-56c-1.1-1.5-5.4-2.8-9.7-2.8H664.1c-4.3,0-8.6,1.2-9.7,2.8l-39.7,56
				c-2.1,2.9,1.1,4.9,6.8,4.9h5.2l34.4-50.7c1-1.5,5.2-2.8,9.3-2.8h271.9c4.1,0,8.2,1.2,9.3,2.8l34.3,50.7h5.2
				C996.8,1087.6,1000,1085.6,998,1082.7z"/>
		</g>
		<g>
			<path class="st6" d="M1349.2,915.1c0.1-0.1,0-0.2,0-0.3c0.1-0.1,0-0.2,0-0.4c0.1-0.1,0-0.2,0-0.3c0.1-0.2,0.1-0.4,0-0.7
				c-5.7-7.9-8.6-11.8-14.3-19.7c-0.6-0.9-3-1.6-5.4-1.6c-20.4,0-31.2,0-50.6,0c0.2-0.2,0.3-0.4,0.2-0.6c0.1-0.1,0-0.2,0-0.4
				c0.1-0.1,0-0.2,0-0.4c0.1-0.1,0-0.2,0-0.4c0.1-0.1,0-0.2,0-0.4c0.1-0.1,0-0.2,0-0.4c0.1-0.1,0-0.2,0-0.4c0.1-0.1,0-0.2,0-0.4
				c0.1-0.1,0-0.2,0-0.3c0.1-0.1,0-0.2,0-0.4c0.1-0.1,0-0.2,0-0.4c0.1-0.1,0-0.2,0-0.4c0.1-0.1,0-0.2,0-0.4c0.1-0.1,0-0.2,0-0.4
				c0.1-0.1,0-0.2,0-0.4c0.1-0.1,0-0.2,0-0.4c0.1-0.1,0-0.2,0-0.4c0.1-0.1,0-0.2,0-0.4c0.1-0.1,0-0.2,0-0.4c0.1-0.1,0-0.2,0-0.4
				c0.1-0.1,0-0.2,0-0.4c0.1-0.2,0.1-0.4,0-0.6c-5.2-7.9-7.8-11.8-13-19.7c-0.6-0.9-2.8-1.6-5.1-1.6c-20.6,0-30.9,0-51.5,0
				c-2,0-3.3,0.6-3.2,1.3c-0.1,0.1,0,0.2,0,0.4c-0.1,0.1,0,0.2,0,0.4c-0.1,0.1,0,0.2,0,0.4c-0.1,0.1,0,0.2,0,0.4
				c-0.1,0.1,0,0.2,0,0.4c-0.1,0.1,0,0.2,0,0.4c-0.1,0.1,0,0.2,0,0.4c-0.1,0.1,0,0.2,0,0.4c-0.1,0.1,0,0.2,0,0.3
				c-0.1,0.1,0,0.2,0,0.4c-0.1,0.1,0,0.2,0,0.4c-0.1,0.1,0,0.2,0,0.4c-0.1,0.1,0,0.2,0,0.4c-0.1,0.1,0,0.2,0,0.4
				c-0.1,0.1,0,0.2,0,0.4c-0.1,0.1,0,0.2,0,0.4c-0.1,0.1,0,0.2,0,0.4c-0.1,0.1,0,0.2,0,0.4c-0.1,0.1,0,0.2,0,0.4
				c-0.1,0.1,0,0.2,0,0.4c-0.1,0.2-0.1,0.4,0,0.6c4.5,7.9,6.8,11.8,11.3,19.7c0.2,0.3,0.7,0.6,1.2,0.8c-5.7,0-11.7,0-19.1,0
				c-2.3,0-3.9,0.7-3.4,1.6l0,0c0,0.1-0.1,0.2,0,0.4l0,0c0,0.1-0.1,0.2,0,0.4l0,0c0,0.1-0.1,0.2,0,0.3l0,0c0,0.1-0.1,0.2,0,0.4
				c0,0,0,0,0,0c0,0.1-0.1,0.2,0,0.3l0,0c0,0.1-0.1,0.2,0,0.3l0,0c0,0.1-0.1,0.2,0,0.4l0,0c0,0.1-0.1,0.2,0,0.3c0,0,0,0,0,0
				c0,0.1-0.1,0.2,0,0.4h0c0,0.1-0.1,0.2,0,0.4c0,0,0,0,0,0c0,0.1-0.1,0.2,0,0.4h0c0,0.1-0.1,0.2,0,0.4c0,0,0,0,0,0
				c0,0.1-0.1,0.2,0,0.3l0,0c0,0.1-0.1,0.2,0,0.3c0,0,0,0,0,0c0,0.1-0.1,0.2,0,0.3c0,0,0,0,0,0c0,0.1-0.1,0.2,0,0.4l0,0
				c0,0.1-0.1,0.2,0,0.4l0,0c0,0.1-0.1,0.2,0,0.4h0c0,0.1-0.1,0.2,0,0.4l0,0c0,0.1-0.1,0.2,0,0.3c0,0,0,0,0,0c0,0.1-0.1,0.2,0,0.3
				c4.2,7.9,6.3,11.8,10.6,19.7c0.3,0.5,1.3,1,2.6,1.3c-9.5,0-17.1,0-24.7,0c1-0.3,1.6-0.7,1.3-1.3c0,0,0,0,0,0c0-0.1,0.1-0.2,0-0.3
				c0,0,0,0,0,0c0-0.1,0.1-0.2,0-0.3c0,0,0,0,0,0c0-0.1,0.1-0.2,0-0.3c0,0,0,0,0,0c0-0.1,0.1-0.2,0-0.3c0,0,0,0,0,0
				c0-0.1,0.1-0.2,0-0.3c0,0,0,0,0,0c0-0.1,0.1-0.2,0-0.3c0,0,0,0,0,0c0-0.1,0.1-0.2,0-0.3c0,0,0,0,0,0c0-0.1,0.1-0.2,0-0.3
				c0,0,0,0,0,0c0-0.1,0.1-0.2,0-0.3c0,0,0,0,0,0c0-0.1,0.1-0.2,0-0.3c0,0,0,0,0,0c0-0.1,0.1-0.2,0-0.3c0,0,0,0,0,0
				c0-0.1,0.1-0.2,0-0.3c0,0,0,0,0,0c0-0.1,0.1-0.2,0-0.3c0,0,0,0,0,0c0-0.1,0.1-0.2,0-0.3c0,0,0,0,0,0c0-0.1,0.1-0.2,0-0.3
				c0,0,0,0,0,0c0-0.1,0.1-0.2,0-0.3c0,0,0,0,0,0c0-0.1,0.1-0.2,0-0.3c0,0,0,0,0,0c0-0.1,0.1-0.2,0-0.3c0,0,0,0,0,0
				c0-0.1,0.1-0.2,0-0.3c0,0,0,0,0,0c0-0.1,0.1-0.2,0-0.3c0,0,0,0,0,0c0-0.1,0.1-0.2,0-0.3c-4-7.9-6-11.8-10-19.7
				c-0.1-0.3-0.6-0.6-1.2-0.8c5.8,0,11.9,0,19.4,0c2.3,0,3.8-0.7,3.3-1.5l0,0c0-0.1,0.1-0.2,0-0.4l0,0c0-0.1,0.1-0.2,0-0.4h0
				c0,0,0-0.1,0-0.1c0.1-0.2,0.1-0.4,0-0.6l0,0c0-0.1,0.1-0.2,0-0.4l0,0c0-0.1,0.1-0.2,0-0.4h0c0,0,0-0.1,0-0.1
				c0.1-0.2,0.1-0.4,0-0.6l0,0c0-0.1,0.1-0.2,0-0.4l0,0c0-0.1,0.1-0.2,0-0.4l0,0c0-0.1,0.1-0.2,0-0.4l0,0c0-0.1,0.1-0.2,0-0.4l0,0
				c0-0.1,0.1-0.2,0-0.4h0c0,0,0-0.1,0-0.1c0.1-0.2,0.1-0.4,0-0.6v0c0-0.1,0.1-0.2,0-0.3l0,0c0-0.1,0.1-0.2,0-0.4l0,0
				c0,0,0-0.1,0-0.1c0.1-0.2,0.1-0.4,0-0.6v0c0-0.1,0.1-0.2,0-0.4l0,0c0-0.1,0.1-0.2,0-0.4c-4.3-7.9-6.4-11.8-10.7-19.7
				c-0.5-0.9-2.7-1.6-4.9-1.6c-20.6,0-30.9,0-51.5,0c-2.2,0-3.7,0.7-3.4,1.6c0,0,0,0,0,0.1c0,0.1-0.1,0.2,0,0.3c0,0,0,0,0,0
				c0,0.1-0.1,0.2,0,0.3c0,0,0,0,0,0.1c0,0.1-0.1,0.2,0,0.3c0,0,0,0,0,0c0,0.1-0.1,0.2,0,0.3c0,0,0,0,0,0c0,0.1-0.1,0.2,0,0.3
				c0,0,0,0,0,0c0,0.1-0.1,0.2,0,0.3c0,0,0,0,0,0.1c0,0.1-0.1,0.2,0,0.3c0,0,0,0,0,0c0,0.1-0.1,0.2,0,0.3c0,0,0,0,0,0
				c0,0.1-0.1,0.2,0,0.3c0,0,0,0,0,0.1c0,0.1-0.1,0.2,0,0.3c0,0,0,0,0,0c0,0.1-0.1,0.2,0,0.3c0,0,0,0,0,0.1c0,0.1-0.1,0.2,0,0.3
				c0,0,0,0,0,0.1c0,0.1-0.1,0.2,0,0.3c0,0,0,0,0,0c0,0.1-0.1,0.2,0,0.3c0,0,0,0,0,0c0,0.1-0.1,0.2,0,0.3c0,0,0,0,0,0
				c0,0.1-0.1,0.2,0,0.3c0,0,0,0,0,0c0,0.1-0.1,0.2,0,0.3c0,0,0,0,0,0c0,0.1-0.1,0.2,0,0.3c0,0,0,0,0,0c0,0.1-0.1,0.2,0,0.3
				c0,0,0,0,0,0c0,0.1-0.1,0.2,0,0.3c0,0,0,0,0,0.1c0,0.1-0.1,0.2,0,0.3c3.6,7.9,5.4,11.8,9,19.7c0.1,0.3,0.6,0.6,1.1,0.8
				c-5.9,0-12.2,0-19.9,0c-0.7,0-1.2,0.1-1.8,0.2c0.5-0.3,0.8-0.6,0.6-1c0,0,0-0.1,0-0.1c0-0.1,0.1-0.2,0-0.3c0,0,0,0,0-0.1
				c0-0.1,0.1-0.2,0-0.3c0,0,0,0,0-0.1c0-0.1,0.1-0.2,0-0.3c0,0,0,0,0-0.1c0-0.1,0.1-0.2,0-0.3c0,0,0,0,0-0.1c0-0.1,0.1-0.2,0-0.3
				c0,0,0-0.1,0-0.1c0-0.1,0.1-0.2,0-0.3c0,0,0,0,0-0.1c0-0.1,0.1-0.2,0-0.3c0,0,0-0.1,0-0.1c0-0.1,0.1-0.2,0-0.3c0,0,0,0,0-0.1
				c0-0.1,0.1-0.2,0-0.3c0,0,0-0.1,0-0.1c0-0.1,0.1-0.2,0-0.3c0,0,0,0,0-0.1c0-0.1,0.1-0.2,0-0.3c0,0,0,0,0-0.1c0-0.1,0.1-0.2,0-0.3
				c0,0,0,0,0-0.1c0-0.1,0.1-0.2,0-0.3c0,0,0,0,0-0.1c0-0.1,0.1-0.2,0-0.3c0,0,0,0,0-0.1c0-0.1,0.1-0.2,0-0.3c0,0,0,0,0-0.1
				c0-0.1,0.1-0.2,0-0.3c0,0,0-0.1,0-0.1c0-0.1,0.1-0.2,0-0.3c0,0,0,0,0-0.1c0-0.1,0.1-0.2,0-0.3c0,0,0,0,0-0.1c0-0.1,0.1-0.2,0-0.3
				c0,0,0,0,0-0.1c0-0.1,0.1-0.2,0-0.3c0,0,0-0.1,0-0.1c0-0.1,0.1-0.2,0-0.3c-3.4-7.9-5.1-11.8-8.5-19.7c-0.4-0.9-2.5-1.6-4.7-1.6
				c-20.6,0-30.9,0-51.5,0c-2.2,0-3.8,0.7-3.5,1.6c0,0,0,0.1,0,0.1c0,0.1-0.1,0.1,0,0.2c0,0,0,0.1,0,0.1c0,0.1-0.1,0.2,0,0.2
				c0,0,0,0.1,0,0.1c0,0.1-0.1,0.2,0,0.2c0,0,0,0.1,0,0.1c0,0.1-0.1,0.2,0,0.2c0,0,0,0.1,0,0.1c0,0.1-0.1,0.1,0,0.2c0,0,0,0.1,0,0.1
				c0,0.1-0.1,0.2,0,0.2c0,0,0,0.1,0,0.1c0,0.1-0.1,0.2,0,0.2c0,0,0,0.1,0,0.1c0,0.1-0.1,0.1,0,0.2c0,0,0,0.1,0,0.1
				c0,0.1-0.1,0.2,0,0.2c0,0.1,0,0.1,0,0.1c0,0.1-0.1,0.1,0,0.2c0,0,0,0.1,0,0.1c0,0.1-0.1,0.1,0,0.2c0,0,0,0.1,0,0.1
				c0,0.1-0.1,0.2,0,0.2c0,0,0,0.1,0,0.1c0,0.1-0.1,0.1,0,0.2c0,0,0,0.1,0,0.1c0,0.1-0.1,0.2,0,0.2c0,0,0,0.1,0,0.1
				c0,0.1-0.1,0.2,0,0.2c0,0,0,0.1,0,0.1c0,0.1-0.1,0.2,0,0.2c0,0,0,0.1,0,0.1c0,0.1-0.1,0.1,0,0.2c0,0,0,0.1,0,0.1
				c0,0.1-0.1,0.2,0,0.2c0,0,0,0.1,0,0.1c0,0.1-0.1,0.1,0,0.2c0,0,0,0.1,0,0.1c0,0.1-0.1,0.2,0,0.2c0,0,0,0.1,0,0.1
				c0,0.1-0.1,0.1,0,0.2c2.7,7.9,4.1,11.8,6.8,19.7c0.1,0.3,0.5,0.6,1,0.8c-6.2,0-12.7,0-20.8,0c-0.3,0-0.5,0-0.7,0.1
				c0.4-0.3,0.7-0.6,0.6-0.9c0-0.1,0-0.1,0-0.2c0-0.1,0.1-0.1,0-0.2c0-0.1,0-0.1,0-0.2c0-0.1,0.1-0.1,0-0.2c0,0,0-0.1,0-0.1
				c0-0.1,0.1-0.1,0-0.2c0,0,0-0.1,0-0.2c0-0.1,0.1-0.1,0-0.2c0-0.1,0-0.1,0-0.1c0-0.1,0.1-0.1,0-0.2c0-0.1,0-0.1,0-0.2
				c0-0.1,0.1-0.1,0-0.2c0-0.1,0-0.1,0-0.2c0-0.1,0.1-0.1,0-0.2c0-0.1,0-0.1,0-0.2c0-0.1,0.1-0.1,0-0.2c0-0.1,0-0.1,0-0.1
				c0-0.1,0.1-0.1,0-0.2c0-0.1,0-0.1,0-0.1c0-0.1,0.1-0.1,0-0.2c0,0,0-0.1,0-0.1c0-0.1,0.1-0.1,0-0.2c0,0,0-0.1,0-0.2
				c0-0.1,0.1-0.1,0-0.2c0-0.1,0-0.1,0-0.2c0-0.1,0.1-0.1,0-0.2c0-0.1,0-0.1,0-0.1c0-0.1,0.1-0.1,0-0.2c0-0.1,0-0.1,0-0.1
				c0-0.1,0.1-0.1,0-0.2c0,0,0-0.1,0-0.1c0-0.1,0.1-0.1,0-0.2c0-0.1,0-0.1,0-0.2c0-0.1,0.1-0.1,0-0.2c0,0,0-0.1,0-0.1
				c0-0.1,0.1-0.1,0-0.2c0-0.1,0-0.1,0-0.1c0-0.1,0.1-0.1,0-0.2c0-0.1,0-0.1,0-0.2c0-0.1,0.1-0.1,0-0.2c0-0.1,0-0.1,0-0.1
				c0-0.1,0.1-0.1,0-0.2c-2.5-7.9-3.7-11.8-6.2-19.7c-0.3-0.9-2.3-1.6-4.5-1.6c-20.6,0-30.9,0-51.5,0c-2.2,0-3.9,0.7-3.7,1.6
				c0,0.1,0,0.1,0,0.2c0,0-0.1,0.1,0,0.1c0,0.1,0,0.1,0,0.2c0,0.1-0.1,0.1,0,0.2c0,0.1,0,0.1,0,0.2c0,0-0.1,0.1,0,0.1
				c0,0.1,0,0.1,0,0.2c0,0-0.1,0.1,0,0.2c0,0.1,0,0.1,0,0.2c0,0-0.1,0.1,0,0.2c0,0.1,0,0.1,0,0.2c0,0.1-0.1,0.1,0,0.2
				c0,0.1,0,0.1,0,0.2c0,0-0.1,0.1,0,0.2c0,0.1,0,0.1,0,0.2c0,0.1-0.1,0.1,0,0.2c0,0.1,0,0.1,0,0.2c0,0.1-0.1,0.1,0,0.2
				c0,0.1,0,0.1,0,0.2c0,0.1-0.1,0.1,0,0.2c0,0.1,0,0.1,0,0.2c0,0.1-0.1,0.1,0,0.2c0,0.1,0,0.1,0,0.2c0,0-0.1,0.1,0,0.2
				c0,0.1,0,0.1,0,0.2c0,0.1-0.1,0.1,0,0.2c0,0.1,0,0.1,0,0.2c0,0.1-0.1,0.1,0,0.1c0,0.1,0,0.1,0,0.2c0,0.1-0.1,0.1,0,0.2
				c0,0.1,0,0.1,0,0.2c0,0.1-0.1,0.1,0,0.2c0,0.1,0,0.1,0,0.2c0,0.1-0.1,0.1,0,0.2c0,0.1,0,0.1,0,0.2c0,0.1-0.1,0.1,0,0.2
				c0,0.1,0,0.1,0,0.2c0,0-0.1,0.1,0,0.2c0,0.1,0,0.1,0,0.2c0,0.1-0.1,0.1,0,0.2c0,0.1,0,0.1,0,0.2c0,0.1-0.1,0.1,0,0.2
				c1.8,7.9,2.7,11.8,4.5,19.7c0.1,0.3,0.5,0.6,0.9,0.8c-6.4,0-13.1,0-21.5,0c0.4-0.2,0.7-0.5,0.6-0.8c0-0.1,0-0.1,0-0.2
				c0-0.1,0.1-0.1,0-0.1c0-0.1,0-0.1,0-0.2c0,0,0.1-0.1,0-0.1c0-0.1,0-0.1,0-0.2c0,0,0.1-0.1,0-0.1c0-0.1,0-0.1,0-0.2
				c0,0,0.1-0.1,0-0.1c0-0.1,0-0.1,0-0.2c0,0,0.1-0.1,0-0.1c0-0.1,0-0.1,0-0.2c0,0,0.1-0.1,0-0.1c0-0.1,0-0.2,0-0.2
				c0,0,0.1-0.1,0-0.1c0-0.1,0-0.2,0-0.2c0-0.1,0.1-0.1,0-0.1c0-0.1,0-0.1,0-0.2c0,0,0.1-0.1,0-0.1c0-0.1,0-0.1,0-0.2
				c0,0,0.1-0.1,0-0.1c0-0.1,0-0.1,0-0.2c0,0,0.1-0.1,0-0.1c0-0.1,0-0.1,0-0.2c0,0,0.1-0.1,0-0.1c0-0.1,0-0.1,0-0.2
				c0,0,0.1-0.1,0-0.1c0-0.1,0-0.1,0-0.2c0,0,0.1-0.1,0-0.1c0-0.1,0-0.1,0-0.2c0,0,0.1-0.1,0-0.1c0-0.1,0-0.1,0-0.2
				c0,0,0.1-0.1,0-0.1c0-0.1,0-0.1,0-0.2c0,0,0.1-0.1,0-0.1c0-0.1,0-0.1,0-0.2c0,0,0.1-0.1,0-0.1c0-0.1,0-0.1,0-0.2
				c0,0,0.1-0.1,0-0.1c0-0.1,0-0.2,0-0.2c0-0.1,0.1-0.1,0-0.1c0-0.1,0-0.1,0-0.2c0,0,0.1-0.1,0-0.1c-1.6-7.9-2.4-11.8-4-19.7
				c-0.2-0.9-2.1-1.6-4.4-1.6c-20.6,0-30.9,0-51.5,0c-2.2,0-4,0.7-3.9,1.6c0,0.1,0,0.2,0,0.3c0,0,0,0,0,0.1c0,0.1,0,0.2,0,0.3
				c0,0,0,0,0,0.1c0,0.1,0,0.2,0,0.3c0,0,0,0,0,0.1c0,0.1,0,0.2,0,0.3c0,0,0,0,0,0.1c0,0.1,0,0.2,0,0.3c0,0,0,0,0,0.1
				c0,0.1,0,0.2,0,0.3c0,0,0,0,0,0.1c0,0.1,0,0.2,0,0.3c0,0,0,0.1,0,0.1c0,0.1,0,0.2,0,0.3c0,0,0,0.1,0,0.1c0,0.1,0,0.2,0,0.3
				c0,0,0,0.1,0,0.1c0,0.1,0,0.2,0,0.3c0,0,0,0,0,0.1c0,0.1,0,0.2,0,0.3c0,0,0,0.1,0,0.1c0,0.1,0,0.2,0,0.3c0,0,0,0,0,0.1
				c0,0.1,0,0.2,0,0.3c0,0,0,0.1,0,0.1c0,0.1,0,0.2,0,0.3c0,0,0,0,0,0.1c0,0.1,0,0.2,0,0.3c0,0,0,0,0,0.1c0,0.1,0,0.2,0,0.3
				c0,0,0,0,0,0.1c0,0.1,0,0.2,0,0.3c0,0,0,0,0,0.1c0,0.1,0,0.2,0,0.3c0,0,0,0.1,0,0.1c0,0.1,0,0.2,0,0.3c0,0,0,0,0,0.1
				c0,0.1,0,0.2,0,0.3c0,0,0,0.1,0,0.1c0,0.1,0,0.2,0,0.3c0,0,0,0,0,0.1c0.9,7.9,1.4,11.8,2.3,19.7c0,0.3,0.4,0.6,0.8,0.8
				c-6.4,0-13.1,0-21.4,0c0.4-0.2,0.7-0.5,0.7-0.8c0-0.1,0-0.2,0-0.3c0,0,0,0,0-0.1c0-0.1,0-0.2,0-0.3c0,0,0,0,0-0.1
				c0-0.1,0-0.2,0-0.3c0,0,0-0.1,0-0.1c0-0.1,0-0.2,0-0.3c0,0,0,0,0-0.1c0-0.1,0-0.2,0-0.3c0,0,0,0,0-0.1c0-0.1,0-0.2,0-0.3
				c0,0,0,0,0-0.1c0-0.1,0-0.2,0-0.3c0,0,0,0,0,0c0-0.1,0-0.2,0-0.3c0,0,0,0,0-0.1c0-0.1,0-0.2,0-0.3c0,0,0,0,0-0.1
				c0-0.1,0-0.2,0-0.3c0,0,0,0,0-0.1c0-0.1,0-0.2,0-0.3c0,0,0,0,0-0.1c0-0.1,0-0.2,0-0.3c0,0,0,0,0-0.1c0-0.1,0-0.2,0-0.3
				c0,0,0,0,0-0.1c0-0.1,0-0.2,0-0.3c0,0,0,0,0-0.1c0-0.1,0-0.2,0-0.3c0,0,0,0,0-0.1c0-0.1,0-0.2,0-0.3c0,0,0,0,0-0.1
				c0-0.1,0-0.2,0-0.3c0,0,0,0,0-0.1c0-0.1,0-0.2,0-0.3c0,0,0,0,0-0.1c0-0.1,0-0.2,0-0.3c0,0,0,0,0-0.1c0-0.1,0-0.2,0-0.3
				c0,0,0,0,0-0.1c0-0.1,0-0.2,0-0.3c0,0,0,0,0-0.1c-0.7-7.9-1-11.8-1.7-19.7c-0.1-0.9-2-1.6-4.2-1.6c-20.6,0-30.9,0-51.5,0
				c-2.2,0-4.1,0.7-4.1,1.6c0,0.1,0,0.2,0,0.4v0c0,0.3,0,0.5,0,0.7l0,0c0,0.1,0,0.2,0,0.4l0,0c0,0.1,0,0.2,0,0.3l0,0
				c0,0.5,0,0.9,0,1.4c0,0,0,0,0,0.1l0,0c0,0.1,0,0.2,0,0.4l0,0c0,0.1,0,0.2,0,0.4l0,0c0,0.1,0,0.2,0,0.4l0,0c0,0.1,0,0.2,0,0.4l0,0
				c0,0.1,0,0.2,0,0.4l0,0c0,0.1,0,0.2,0,0.3c0,0,0,0,0,0c0,0.2,0,0.5,0,0.7l0,0c0,0.1,0,0.2,0,0.4l0,0c0,0.1,0,0.2,0,0.4l0,0
				c0,0.1,0,0.2,0,0.4h0c0,2.8,0,5.1,0,7.3c0,4.1,0,7.6,0,12.8c0,0.3,0.3,0.6,0.8,0.8c-6.5,0-13.2,0-21.5,0c0.5-0.3,0.8-0.5,0.8-0.8
				c0.2-7.9,0.3-11.8,0.5-19.7c0,0,0,0,0,0c0-0.1,0-0.2,0-0.3l0,0c0-0.1,0-0.2,0-0.3c0,0,0,0,0,0c0-0.1,0-0.2,0-0.3c0,0,0,0,0,0
				c0-0.1,0-0.2,0-0.3c0,0,0,0,0,0c0-0.1,0-0.2,0-0.3c0,0,0,0,0,0c0-0.1,0-0.2,0-0.3c0,0,0,0,0,0c0-0.1,0-0.2,0-0.3l0,0
				c0-0.1,0-0.2,0-0.3l0,0c0-0.1,0-0.2,0-0.3c0,0,0,0,0,0c0-0.1,0-0.2,0-0.3l0,0c0-0.1,0-0.2,0-0.3c0,0,0,0,0,0c0-0.1,0-0.2,0-0.3
				c0,0,0,0,0,0c0-0.1,0-0.2,0-0.3c0,0,0,0,0,0c0-0.1,0-0.2,0-0.3c0,0,0,0,0,0c0-0.1,0-0.2,0-0.3c0,0,0,0,0,0c0-0.1,0-0.2,0-0.3l0,0
				c0-0.1,0-0.2,0-0.3c0,0,0,0,0,0c0-0.1,0-0.2,0-0.3c0,0,0,0,0,0c0-0.1,0-0.2,0-0.3l0,0c0-0.1,0-0.2,0-0.3c0,0,0,0,0,0
				c0-0.1,0-0.2,0-0.3c0-0.9-1.8-1.6-4-1.6c-20.6,0-30.9,0-51.5,0c-2.2,0-4.1,0.7-4.2,1.6c-0.9,7.9-1.3,11.8-2.2,19.7c0,0,0,0,0,0.1
				c0,0.1,0,0.2,0,0.3c0,0,0,0.1,0,0.1c0,0.1,0,0.2,0,0.3c0,0,0,0,0,0.1c0,0.1,0,0.2,0,0.3c0,0,0,0,0,0.1c0,0.1,0,0.2,0,0.3
				c0,0,0,0,0,0.1c0,0.1,0,0.2,0,0.3c0,0,0,0.1,0,0.1c0,0.1,0,0.2,0,0.3c0,0,0,0.1,0,0.1c0,0.1,0,0.2,0,0.3c0,0,0,0,0,0.1
				c0,0.1,0,0.2,0,0.3c0,0,0,0,0,0.1c0,0.1,0,0.2,0,0.3c0,0,0,0,0,0.1c0,0.1,0,0.2,0,0.3c0,0,0,0.1,0,0.1c0,0.1,0,0.2,0,0.3
				c0,0,0,0,0,0.1c0,0.1,0,0.2,0,0.3c0,0,0,0,0,0.1c0,0.1,0,0.2,0,0.3c0,0,0,0,0,0.1c0,0.1,0,0.2,0,0.3c0,0,0,0,0,0.1
				c0,0.1,0,0.2,0,0.3c0,0,0,0,0,0.1c0,0.1,0,0.2,0,0.3c0,0,0,0,0,0.1c0,0.1,0,0.2,0,0.3c0,0,0,0.1,0,0.1c0,0.1,0,0.2,0,0.3
				c0,0,0,0,0,0.1c0,0.1,0,0.2,0,0.3c0,0,0,0.1,0,0.1c0,0.1,0,0.2,0,0.3c0,0,0,0.1,0,0.1c0,0.1,0,0.2,0,0.3c0,0.3,0.2,0.6,0.7,0.8
				c-6.5,0-13.2,0-21.4,0c0.5-0.2,0.8-0.5,0.9-0.8c1.1-7.9,1.7-11.8,2.8-19.7c0,0,0-0.1,0-0.1c0-0.1,0-0.2,0-0.3c0,0,0-0.1,0-0.1
				c0-0.1,0-0.2,0-0.3c0,0,0-0.1,0-0.1c0-0.1,0-0.2,0-0.3c0,0,0-0.1,0-0.1c0-0.1,0-0.2,0-0.3c0,0,0-0.1,0-0.1c0-0.1,0-0.2,0-0.3
				c0,0,0-0.1,0-0.1c0-0.1,0-0.2,0-0.3c0,0,0-0.1,0-0.1c0-0.1,0-0.2,0-0.3c0,0,0-0.1,0-0.1c0-0.1,0-0.2,0-0.3c0,0,0-0.1,0-0.1
				c0-0.1,0-0.2,0-0.3c0,0,0-0.1,0-0.1c0-0.1,0-0.2,0-0.3c0,0,0-0.1,0-0.1c0-0.1,0-0.2,0-0.3c0,0,0-0.1,0-0.1c0-0.1,0-0.2,0-0.3
				c0,0,0-0.1,0-0.1c0-0.1,0-0.2,0-0.3c0,0,0-0.1,0-0.1c0-0.1,0-0.2,0-0.3c0,0,0-0.1,0-0.1c0-0.1,0-0.2,0-0.3c0,0,0-0.1,0-0.1
				c0-0.1,0-0.2,0-0.3c0,0,0-0.1,0-0.1c0-0.1,0-0.2,0-0.3c0,0,0-0.1,0-0.1c0-0.1,0-0.2,0-0.3c0,0,0-0.1,0-0.1c0-0.1,0-0.2,0-0.3
				c0,0,0,0,0-0.1c0-0.1,0-0.2,0-0.3c0,0,0-0.1,0-0.1c0-0.1,0-0.2,0-0.3c0.1-0.9-1.6-1.6-3.8-1.6c-20.6,0-30.9,0-51.5,0
				c-2.2,0-4.2,0.7-4.4,1.6c-1.8,7.9-2.7,11.8-4.5,19.7c0,0.1,0,0.1,0,0.1c0,0.1,0,0.1,0,0.2c0,0.1,0,0.1,0,0.2c0,0.1,0,0.1,0,0.2
				c0,0.1,0,0.1,0,0.1c0,0.1,0,0.1,0,0.2c0,0,0,0.1,0,0.2c0,0.1,0,0.1,0,0.2c0,0.1,0,0.1,0,0.1c0,0.1,0,0.1,0,0.2c0,0.1,0,0.1,0,0.1
				c0,0.1,0,0.1,0,0.2c0,0.1,0,0.1,0,0.2c0,0.1,0,0.1,0,0.2c0,0,0,0.1,0,0.2c0,0.1,0,0.1,0,0.2c0,0,0,0.1,0,0.2c0,0.1,0,0.1,0,0.2
				c0,0,0,0.1,0,0.1c0,0.1,0,0.1,0,0.2c0,0.1,0,0.1,0,0.1c0,0.1,0,0.1,0,0.2c0,0,0,0.1,0,0.2c0,0.1,0,0.1,0,0.2c0,0,0,0.1,0,0.1
				c0,0.1,0,0.1,0,0.2c0,0.1,0,0.1,0,0.1c0,0.1,0,0.1,0,0.2c0,0,0,0.1,0,0.1c0,0.1,0,0.1,0,0.2c0,0.1,0,0.1,0,0.2c0,0.1,0,0.1,0,0.2
				c0,0,0,0.1,0,0.1c0,0.1,0,0.1,0,0.2c0,0.1,0,0.1,0,0.2c0,0.1,0,0.1,0,0.2c0,0.1,0,0.1,0,0.2c0,0.1,0,0.1,0,0.2c0,0.1,0,0.1,0,0.2
				c0,0.1,0,0.1,0,0.2c0,0.1,0,0.1,0,0.2c0,0.1,0,0.1,0,0.2c-0.1,0.3,0.2,0.6,0.6,0.8c-6.5,0-13.2,0-21.4,0c0.5-0.2,0.9-0.5,1-0.8
				c2-7.9,3-11.8,5-19.7c0-0.1-0.1-0.1-0.1-0.2c0-0.1,0-0.1,0.1-0.2c0-0.1-0.1-0.1-0.1-0.2c0-0.1,0-0.1,0.1-0.2
				c0-0.1-0.1-0.1-0.1-0.2c0-0.1,0-0.1,0.1-0.2c0-0.1-0.1-0.1-0.1-0.2c0-0.1,0-0.1,0.1-0.2c0-0.1-0.1-0.1-0.1-0.2
				c0-0.1,0-0.1,0.1-0.2c0-0.1-0.1-0.1-0.1-0.2c0-0.1,0-0.1,0.1-0.2c0-0.1-0.1-0.1-0.1-0.2c0-0.1,0-0.1,0.1-0.2
				c0-0.1-0.1-0.1-0.1-0.2c0-0.1,0-0.1,0.1-0.2c0-0.1-0.1-0.1-0.1-0.2c0-0.1,0-0.1,0.1-0.2c0-0.1-0.1-0.1-0.1-0.2
				c0-0.1,0-0.1,0.1-0.2c0-0.1-0.1-0.1-0.1-0.2c0-0.1,0-0.1,0.1-0.2c0-0.1-0.1-0.1-0.1-0.2c0-0.1,0-0.1,0.1-0.2
				c0-0.1-0.1-0.1-0.1-0.2c0-0.1,0-0.1,0.1-0.2c0-0.1-0.1-0.1-0.1-0.2c0-0.1,0-0.1,0.1-0.2c0-0.1-0.1-0.1-0.1-0.2
				c0-0.1,0-0.1,0.1-0.2c0-0.1-0.1-0.1-0.1-0.2c0-0.1,0-0.1,0.1-0.2c0-0.1-0.1-0.1-0.1-0.2c0-0.1,0-0.1,0.1-0.2
				c0-0.1-0.1-0.1-0.1-0.2c0-0.1,0-0.1,0.1-0.2c0-0.1-0.1-0.1-0.1-0.2c0-0.1,0-0.1,0.1-0.2c0-0.1-0.1-0.1-0.1-0.2
				c0-0.1,0-0.1,0.1-0.2c0-0.1-0.1-0.1-0.1-0.2c0-0.1,0-0.1,0.1-0.2c0.2-0.9-1.4-1.6-3.7-1.6c-20.6,0-30.9,0-51.5,0
				c-2.2,0-4.3,0.7-4.6,1.6c-2.7,7.9-4,11.8-6.7,19.7c0,0.1,0,0.1,0,0.2c0,0,0,0.1,0,0.1c0,0.1,0,0.1,0.1,0.2c0,0.1,0,0.1-0.1,0.1
				c0,0.1,0,0.2,0,0.2c0,0,0,0.1,0,0.1c0,0.1,0,0.1,0.1,0.2c0,0,0,0.1-0.1,0.1c0,0.1,0,0.1,0.1,0.2c0,0.1,0,0.1-0.1,0.1
				c0,0.1,0,0.1,0,0.2c0,0,0,0.1,0,0.1c0,0.1,0,0.2,0,0.2c0,0,0,0.1,0,0.1c0,0.1,0,0.2,0,0.2c0,0,0,0.1,0,0.1c0,0.1,0,0.1,0,0.2
				c0,0.1,0,0.1,0,0.1c0,0.1,0,0.2,0.1,0.2c0,0,0,0.1-0.1,0.1c0,0.1,0,0.1,0.1,0.2c0,0.1,0,0.1-0.1,0.1c0,0.1,0,0.2,0,0.2
				c0,0.1,0,0.1,0,0.1c0,0.1,0,0.1,0.1,0.2c0,0.1,0,0.1-0.1,0.1c0,0.1,0,0.1,0.1,0.2c0,0.1,0,0.1-0.1,0.1c0,0.1,0,0.1,0,0.2
				c0,0,0,0.1,0,0.1c0,0.1,0,0.1,0.1,0.2c0,0,0,0.1-0.1,0.1c0,0.1,0,0.1,0,0.2c0,0,0,0.1,0,0.1c0,0.1,0,0.1,0,0.2c0,0,0,0.1,0,0.1
				c0,0.1,0,0.2,0,0.2c0,0,0,0.1,0,0.1c0,0.1,0,0.2,0.1,0.2c0,0,0,0.1-0.1,0.1c0,0.1,0,0.1,0,0.2c0,0,0,0.1,0,0.1
				c-0.1,0.3,0.1,0.6,0.5,0.8c-6.6,0-13.3,0-21.5,0c0.5-0.2,1-0.5,1.1-0.8c2.9-7.9,4.4-11.8,7.3-19.7c0-0.1,0-0.2,0-0.3
				c0,0,0-0.1,0-0.1c0-0.1,0-0.2,0-0.2c0,0,0-0.1,0-0.1c0-0.1,0-0.2,0-0.3c0,0,0-0.1,0-0.1c0-0.1,0-0.2,0-0.3c0,0,0-0.1,0-0.1
				c0-0.1,0-0.2,0-0.2c0,0,0-0.1,0-0.1c0-0.1,0-0.2,0-0.3c0,0,0-0.1,0-0.1c0-0.1,0-0.2,0-0.3c0,0,0-0.1,0-0.1c0-0.1,0-0.2,0-0.2
				c0,0,0-0.1,0-0.1c0-0.1,0-0.2,0-0.2c0,0,0-0.1,0-0.1c0-0.1,0-0.2,0-0.2c0,0,0-0.1,0-0.1c0-0.1,0-0.2,0-0.3c0,0,0-0.1,0-0.1
				c0-0.1,0-0.2,0-0.2c0,0,0-0.1,0-0.1c0-0.1,0-0.2,0-0.2c0,0,0-0.1,0-0.1c0-0.1,0-0.2,0-0.3c0,0,0-0.1,0-0.1c0-0.1,0-0.2,0-0.2
				c0,0,0-0.1,0-0.1c0-0.1,0-0.2,0-0.2c0,0,0-0.1,0-0.1c0-0.1,0-0.2,0-0.2c0,0,0-0.1,0-0.1c0-0.1,0-0.2,0-0.3c0,0,0-0.1,0-0.1
				c0-0.1,0-0.2,0-0.2c0,0,0-0.1,0-0.1c0-0.1,0-0.2,0-0.2c0,0,0-0.1,0-0.1c0-0.1,0-0.2,0-0.3c0,0,0-0.1,0-0.1
				c0.3-0.9-1.2-1.6-3.5-1.6c-20.6,0-30.9,0-51.5,0c-2.2,0-4.4,0.7-4.8,1.6c-3.6,7.9-5.4,11.8-9,19.7c0,0.1,0,0.2,0,0.3
				c0,0,0,0,0,0.1c0,0.1,0,0.2,0,0.3c0,0,0,0,0,0.1c0,0.1,0,0.2,0,0.3c0,0,0,0,0,0.1c0,0.1,0,0.2,0,0.3c0,0,0,0,0,0.1
				c0,0.1,0,0.2,0,0.3c0,0,0,0,0,0.1c0,0.1,0,0.2,0,0.3c0,0,0,0,0,0c0,0.1,0,0.2,0,0.3c0,0,0,0,0,0.1c0,0.1,0,0.2,0,0.3
				c0,0,0,0,0,0.1c0,0.1,0,0.2,0,0.3c0,0,0,0,0,0.1c0,0.1,0,0.2,0,0.3c0,0,0,0,0,0.1c0,0.1,0,0.2,0,0.3c0,0,0,0,0,0.1
				c0,0.1,0,0.2,0,0.3c0,0,0,0,0,0.1c0,0.1,0,0.2,0,0.3c0,0,0,0,0,0.1c0,0.1,0,0.2,0,0.3c0,0,0,0,0,0.1c0,0.1,0,0.2,0,0.3
				c0,0,0,0,0,0.1c0,0.1,0,0.2,0,0.3c0,0,0,0,0,0.1c-0.1,0.1,0,0.2,0,0.3c0,0,0,0,0,0c0,0.1,0,0.2,0,0.3c0,0,0,0,0,0.1
				c0,0.1,0,0.2,0,0.3c0,0,0,0,0,0c0,0.1,0,0.2,0,0.3c0,0,0,0,0,0.1c0,0.1,0,0.2,0,0.3c0,0,0,0,0,0.1c-0.1,0.3,0,0.6,0.4,0.8
				c-6.6,0-13.3,0-21.4,0c0.6-0.2,1-0.5,1.2-0.8c3.8-7.9,5.7-11.8,9.5-19.7c0.1-0.1,0-0.2,0-0.3c0,0,0,0,0,0c0.1-0.1,0-0.2,0-0.3
				c0,0,0,0,0,0c0.1-0.1,0-0.2,0-0.3c0,0,0,0,0,0c0.1-0.1,0-0.2,0-0.3c0,0,0,0,0,0c0.1-0.1,0-0.2,0-0.3c0,0,0,0,0,0
				c0.1-0.1,0-0.2,0-0.3c0,0,0,0,0,0c0.1-0.1,0-0.2,0-0.3c0,0,0,0,0,0c0.1-0.1,0-0.2,0-0.3c0,0,0,0,0,0c0.1-0.1,0-0.2,0-0.3
				c0,0,0,0,0,0c0.1-0.1,0-0.2,0-0.3c0,0,0,0,0,0c0.1-0.1,0-0.2,0-0.3c0,0,0,0,0,0c0.1-0.1,0-0.2,0-0.3c0,0,0,0,0,0
				c0.1-0.1,0-0.2,0-0.3c0,0,0,0,0,0c0.1-0.1,0-0.2,0-0.3c0,0,0,0,0,0c0.1-0.1,0-0.2,0-0.3c0,0,0,0,0,0c0.1-0.1,0-0.2,0-0.3
				c0,0,0,0,0,0c0.1-0.1,0-0.2,0-0.3c0,0,0,0,0,0c0.1-0.1,0-0.2,0-0.3c0,0,0,0,0,0c0.1-0.1,0-0.2,0-0.3c0,0,0,0,0,0
				c0.1-0.1,0-0.2,0-0.3c0,0,0,0,0,0c0.1-0.1,0-0.2,0-0.3c0,0,0,0,0,0c0.4-0.9-1.1-1.6-3.3-1.6c-20.6,0-30.9,0-51.5,0
				c-2.2,0-4.4,0.7-4.9,1.6c-4.5,7.9-6.7,11.8-11.2,19.7c-0.1,0.2-0.1,0.4,0,0.6c0,0.1-0.1,0.3,0,0.4c0,0.1-0.1,0.3,0,0.4
				c0,0.1-0.1,0.2,0,0.4c0,0.1-0.1,0.2,0,0.4c0,0.1-0.1,0.2,0,0.3c0,0.1-0.1,0.3,0,0.4c0,0.1-0.1,0.2,0,0.4c0,0.1-0.1,0.2,0,0.4
				c0,0.1-0.1,0.2,0,0.4c0,0.1-0.1,0.3,0,0.4c0,0.1-0.1,0.2,0,0.4c0,0.1-0.1,0.2,0,0.4c0,0.1-0.1,0.3,0,0.4c0,0.1-0.1,0.2,0,0.4
				c0,0.1-0.1,0.2,0,0.4c0,0.1-0.1,0.2,0,0.4c0,0.1-0.1,0.3,0,0.4c0,0.1-0.1,0.3,0,0.4c0,0.1-0.1,0.2,0,0.4c0,0.1-0.1,0.2,0,0.4
				c0,0.2,0.1,0.4,0.3,0.6c-6.7,0-13.3,0-21.4,0c0.6-0.2,1.1-0.5,1.3-0.8c4.7-7.9,7.1-11.8,11.8-19.7c0.1-0.2,0.1-0.4,0-0.6
				c0-0.1,0.1-0.3,0-0.4c0-0.1,0.1-0.3,0-0.4c0-0.1,0.1-0.3,0-0.4c0-0.1,0.1-0.3,0-0.4c0-0.1,0.1-0.2,0-0.4c0-0.1,0.1-0.2,0-0.4
				c0-0.1,0.1-0.2,0-0.4c0-0.1,0.1-0.2,0-0.4c0-0.1,0.1-0.2,0-0.4c0-0.1,0.1-0.2,0-0.4c0-0.1,0.1-0.3,0-0.4c0-0.1,0.1-0.2,0-0.4
				c0-0.1,0.1-0.2,0-0.3c0-0.1,0.1-0.3,0-0.4c0-0.1,0.1-0.2,0-0.4c0-0.1,0.1-0.3,0-0.4c0-0.1,0.1-0.2,0-0.4c0-0.1,0.1-0.3,0-0.4
				c0-0.1,0.1-0.2,0-0.4c0-0.1,0.1-0.2,0-0.4c0.1-0.7-1.2-1.3-3.1-1.3c-20.6,0-30.9,0-51.5,0c-2.2,0-4.5,0.7-5.1,1.6
				c-5.4,7.9-8.1,11.8-13.5,19.7c-0.2,0.2-0.2,0.4,0,0.6c0,0.1-0.1,0.3,0,0.4c0,0.1-0.1,0.2,0,0.4c0,0.1-0.1,0.2,0,0.4
				c0,0.1-0.1,0.3,0,0.4c0,0.1-0.1,0.2,0,0.4c0,0.1-0.1,0.2,0,0.4c0,0.1-0.1,0.3,0,0.4c0,0.1-0.1,0.3,0,0.4c0,0.1-0.1,0.2,0,0.4
				c0,0.1-0.1,0.2,0,0.4c0,0.1-0.1,0.2,0,0.4c0,0.1-0.1,0.2,0,0.4c0,0.1-0.1,0.2,0,0.4c0,0.1-0.1,0.2,0,0.4c0,0.1-0.1,0.2,0,0.3
				c0,0.1-0.1,0.2,0,0.4c0,0.1-0.1,0.2,0,0.4c0,0.1-0.1,0.2,0,0.4c0,0.1-0.1,0.2,0,0.4c0,0.1-0.1,0.2,0,0.4c0,0.2,0,0.4,0.2,0.5
				c-8.6,0-17,0-28.5,0c-2.3,0-4.7,0.7-5.3,1.6c-5.7,7.9-8.5,11.8-14.2,19.7c-0.2,0.2-0.2,0.4,0,0.6c0,0.1-0.1,0.2,0,0.4
				c0,0.1-0.1,0.3,0,0.4c0,0.1-0.1,0.2,0,0.4c0,0.1-0.1,0.2,0,0.4c0,0.1-0.1,0.2,0,0.3c0,0.1-0.1,0.2,0,0.4c0,0.1-0.1,0.2,0,0.4
				c0,0.1-0.1,0.2,0,0.4c0,0.1-0.1,0.3,0,0.4c0,0.1-0.1,0.2,0,0.4c0,0.1-0.1,0.2,0,0.4c0,0.1-0.1,0.2,0,0.4c0,0.1-0.1,0.2,0,0.4
				c0,0.1-0.1,0.3,0,0.4c0,0.1-0.1,0.2,0,0.4c0,0.1-0.1,0.2,0,0.3c0,0.1-0.1,0.3,0,0.4c0,0.1-0.1,0.2,0,0.4c0,0.1-0.1,0.2,0,0.4
				c0,0.1-0.1,0.2,0,0.4c-0.1,0.7,1.2,1.3,3.3,1.3c7.8,0,14.2,0,20.2,0c-1.4,0.3-2.5,0.7-2.9,1.3c-5.4,7.9-8.1,11.8-13.5,19.7
				c-0.2,0.2-0.1,0.4,0,0.6c0,0.1-0.1,0.2,0,0.4c0,0.1-0.1,0.2,0,0.3c0,0.1-0.1,0.2,0,0.4c0,0.1-0.1,0.2,0,0.4c0,0.1-0.1,0.2,0,0.4
				c0,0.1-0.1,0.2,0,0.4c0,0.1-0.1,0.2,0,0.4c0,0.1-0.1,0.2,0,0.4c0,0.1-0.1,0.2,0,0.4c0,0.1-0.1,0.3,0,0.4c0,0.1-0.1,0.3,0,0.4
				c0,0.1-0.1,0.3,0,0.4c0,0.1-0.1,0.3,0,0.4c0,0.1-0.1,0.2,0,0.4c0,0.1-0.1,0.2,0,0.3c0,0.1-0.1,0.3,0,0.4c0,0.1-0.1,0.2,0,0.4
				c0,0.1-0.1,0.3,0,0.4c0,0.1-0.1,0.2,0,0.4c0,0.1-0.1,0.2,0,0.4c-0.1,0.7,1.2,1.2,3.2,1.3c-0.9,0-1.8,0-2.8,0
				c-2.5,0-5.1,0.7-5.7,1.5c-5.4,7.9-8.1,11.8-13.4,19.7c-0.2,0.2-0.1,0.4,0,0.6c0,0.1-0.1,0.2,0,0.4c0,0.1-0.1,0.2,0,0.4
				c0,0.1-0.1,0.2,0,0.4c0,0.1-0.1,0.2,0,0.4c0,0.1-0.1,0.3,0,0.4c0,0.1-0.1,0.3,0,0.4c0,0.1-0.1,0.2,0,0.3c0,0.1-0.1,0.3,0,0.4
				c0,0.1-0.1,0.2,0,0.4c0,0.1-0.1,0.2,0,0.4c0,0.1-0.1,0.2,0,0.4c0,0.1-0.1,0.2,0,0.3c0,0.1-0.1,0.3,0,0.4c0,0.1-0.1,0.2,0,0.4
				c0,0.1-0.1,0.2,0,0.4c0,0.1-0.1,0.2,0,0.4c0,0.1-0.1,0.3,0,0.4c0,0.1-0.1,0.2,0,0.4c0,0.1-0.1,0.2,0,0.4c0,0.1-0.1,0.2,0,0.4
				c-0.1,0.7,1.4,1.3,3.7,1.3c23.9,0,35.9,0,59.9,0c2.6,0,5.1-0.7,5.7-1.6c4.7-7.9,7-11.8,11.7-19.7c0.1-0.1,0-0.2,0-0.4
				c0-0.1,0-0.2,0-0.3c0,0,0-0.1,0-0.1c0-0.1,0-0.2,0-0.3c0,0,0-0.1,0-0.1c0-0.1,0-0.2,0-0.3c0,0,0-0.1,0-0.1c0.1-0.2,0.1-0.4,0-0.6
				c0,0,0-0.1,0-0.1c0-0.1,0-0.2,0-0.3c0-0.1,0.1-0.2,0-0.4c0,0,0-0.1,0-0.1l0,0c0.1-0.1,0-0.2,0-0.4c0-0.1,0-0.2,0-0.2
				c0,0,0-0.1,0-0.1c0-0.1,0-0.2,0-0.2c0-0.1,0-0.1,0-0.1c0-0.1,0-0.2,0-0.3c0,0,0-0.1,0-0.1c0-0.1,0-0.2,0-0.2c0,0,0-0.1,0-0.1
				c0-0.1,0-0.2,0-0.2c0-0.1,0.1-0.3,0-0.4c0,0,0-0.1,0-0.1l0,0c0.1-0.1,0-0.2,0-0.4c0.1-0.2,0.1-0.4,0-0.6c0,0,0-0.1,0-0.1
				c0-0.1,0-0.2,0-0.3c0,0,0-0.1,0-0.1c0-0.1,0-0.2,0-0.2c0,0,0-0.1,0-0.1c0-0.1,0-0.2,0-0.3c0,0,0-0.1,0-0.1c0-0.1,0-0.2,0-0.2
				c0.1-0.7-1.3-1.2-3.4-1.3c0.8,0,1.5,0,2.3,0c2.5,0,5-0.7,5.5-1.6c4.7-7.9,7.1-11.8,11.8-19.7c0.1-0.2,0.1-0.4,0-0.6
				c0-0.1,0.1-0.3,0-0.4c0-0.1,0.1-0.2,0-0.4c0-0.1,0.1-0.2,0-0.4c0-0.1,0.1-0.2,0-0.4c0-0.1,0.1-0.2,0-0.3c0-0.1,0.1-0.3,0-0.4
				c0-0.1,0.1-0.2,0-0.3c0-0.1,0.1-0.3,0-0.4c0-0.1,0.1-0.2,0-0.4c0-0.1,0.1-0.2,0-0.4c0-0.1,0.1-0.2,0-0.4c0-0.1,0.1-0.2,0-0.4
				c0-0.1,0.1-0.3,0-0.4c0-0.1,0.1-0.2,0-0.3c0-0.1,0.1-0.2,0-0.4c0-0.1,0.1-0.2,0-0.4c0-0.1,0.1-0.3,0-0.4c0-0.1,0.1-0.3,0-0.4
				c0-0.1,0.1-0.2,0-0.4c0-0.1,0.1-0.3,0-0.4c0.1-0.7-1.3-1.3-3.5-1.3c-8,0-14.6,0-20.8,0c1.3-0.3,2.4-0.7,2.8-1.3
				c5-7.9,7.5-11.8,12.5-19.7c0.1-0.2,0.1-0.4,0-0.6c0-0.1,0.1-0.2,0-0.3c0-0.1,0.1-0.3,0-0.4c0-0.1,0.1-0.2,0-0.4
				c0-0.1,0.1-0.3,0-0.4c0-0.1,0.1-0.2,0-0.4c0-0.1,0.1-0.2,0-0.4c0-0.1,0.1-0.2,0-0.3c0-0.1,0.1-0.2,0-0.4c0-0.1,0.1-0.3,0-0.4
				c0-0.1,0.1-0.2,0-0.4c0-0.1,0.1-0.2,0-0.4c0-0.1,0.1-0.2,0-0.4c0-0.1,0.1-0.3,0-0.4c0-0.1,0.1-0.2,0-0.4c0-0.1,0.1-0.2,0-0.4
				c0-0.1,0.1-0.3,0-0.4c0-0.1,0.1-0.2,0-0.4c0-0.1,0.1-0.3,0-0.4c0-0.1,0.1-0.3,0-0.4c0-0.1,0.1-0.2,0-0.4c0-0.2-0.1-0.4-0.3-0.6
				c6.8,0,13.5,0,21.7,0c-0.6,0.2-1.1,0.5-1.3,0.9c-4.8,7.9-7.2,11.8-12,19.7c-0.1,0.2-0.1,0.4,0,0.6c0,0.1-0.1,0.2,0,0.4
				c0,0.1-0.1,0.2,0,0.4c0,0.1-0.1,0.2,0,0.4c0,0.1-0.1,0.3,0,0.4c0,0.1-0.1,0.3,0,0.4c0,0.1-0.1,0.2,0,0.3c0,0.1-0.1,0.3,0,0.4
				c0,0.1-0.1,0.2,0,0.4c0,0.1-0.1,0.2,0,0.4c0,0.1-0.1,0.2,0,0.4c0,0.1-0.1,0.3,0,0.4c0,0.1-0.1,0.3,0,0.4c0,0.1-0.1,0.2,0,0.4
				c0,0.1-0.1,0.3,0,0.4c0,0.1-0.1,0.2,0,0.4c0,0.1-0.1,0.2,0,0.4c0,0.1-0.1,0.2,0,0.3c0,0.1-0.1,0.3,0,0.4c0,0.1-0.1,0.2,0,0.4
				c0,0.1-0.1,0.3,0,0.4c-0.1,0.7,1.3,1.3,3.4,1.3c8.2,0,14.8,0,21.1,0c-1.3,0.3-2.4,0.7-2.7,1.3c-4.5,7.9-6.7,11.8-11.2,19.7
				c-0.1,0.1,0,0.2,0,0.3c0,0,0,0,0,0c-0.1,0.1,0,0.2,0,0.3l0,0c-0.1,0.1,0,0.2,0,0.4c0,0,0,0,0,0c-0.1,0.1,0,0.2,0,0.3l0,0
				c-0.1,0.1,0,0.2,0,0.3c0,0,0,0,0,0c-0.1,0.1,0,0.2,0,0.3l0,0c-0.1,0.1,0,0.2,0,0.4l0,0c-0.1,0.1,0,0.2,0,0.3c0,0,0,0,0,0
				c-0.1,0.1,0,0.2,0,0.3l0,0c-0.1,0.1,0,0.2,0,0.3c0,0,0,0,0,0c-0.1,0.1,0,0.2,0,0.3l0,0c-0.1,0.1,0,0.2,0,0.3c0,0,0,0,0,0
				c-0.1,0.1,0,0.2,0,0.3c0,0,0,0,0,0c-0.1,0.1,0,0.2,0,0.3l0,0c-0.1,0.1,0,0.2,0,0.3l0,0c-0.1,0.1,0,0.2,0,0.3l0,0
				c-0.1,0.1,0,0.2,0,0.3l0,0c-0.1,0.1,0,0.2,0,0.3l0,0c-0.1,0.1,0,0.2,0,0.3v0c-0.1,0.1,0,0.2,0,0.3v0c-0.1,0.1,0,0.2,0,0.4l0,0
				c-0.5,0.8,1,1.5,3.3,1.5c-0.6,0-1.2,0-1.9,0c-2.5,0-5,0.7-5.5,1.6c-4.5,7.9-6.7,11.8-11.2,19.7c-0.1,0.1,0,0.2,0,0.3c0,0,0,0,0,0
				c-0.1,0.1,0,0.2,0,0.3c0,0,0,0,0,0c-0.1,0.1,0,0.2,0,0.3c0,0,0,0,0,0c-0.1,0.1,0,0.2,0,0.3c0,0,0,0,0,0c-0.1,0.1,0,0.2,0,0.3
				c0,0,0,0,0,0c-0.1,0.1,0,0.2,0,0.3c0,0,0,0,0,0c-0.1,0.1,0,0.2,0,0.3c0,0,0,0,0,0c-0.1,0.1,0,0.2,0,0.3c0,0,0,0,0,0
				c-0.1,0.1,0,0.2,0,0.3c0,0,0,0,0,0c-0.1,0.1,0,0.2,0,0.3c0,0,0,0,0,0c-0.1,0.1,0,0.2,0,0.3c0,0,0,0,0,0c-0.1,0.1,0,0.2,0,0.3
				c0,0,0,0,0,0c-0.1,0.1,0,0.2,0,0.3c0,0,0,0,0,0c-0.1,0.1,0,0.2,0,0.3c0,0,0,0,0,0c-0.1,0.1,0,0.2,0,0.3c0,0,0,0,0,0
				c-0.1,0.1,0,0.2,0,0.3c0,0,0,0,0,0c-0.1,0.1,0,0.2,0,0.3c0,0,0,0,0,0c-0.1,0.1,0,0.2,0,0.3c0,0,0,0,0,0c-0.1,0.1,0,0.2,0,0.3
				c0,0,0,0,0,0c-0.1,0.1,0,0.2,0,0.3c0,0,0,0,0,0c-0.1,0.1,0,0.2,0,0.3c0,0,0,0,0,0c-0.5,0.9,1.2,1.6,3.8,1.6c24,0,35.9,0,59.9,0
				c2.6,0,5.1-0.7,5.5-1.6c3.8-7.9,5.7-11.8,9.5-19.7c0-0.1,0-0.2,0-0.3c0,0,0,0,0-0.1c0-0.1,0-0.2,0-0.3c0,0,0,0,0-0.1
				c0-0.1,0-0.2,0-0.3c0,0,0,0,0-0.1c0-0.1,0-0.2,0-0.3c0,0,0,0,0-0.1c0-0.1,0-0.2,0-0.3c0,0,0,0,0-0.1c0-0.1,0-0.2,0-0.3
				c0,0,0,0,0-0.1c0-0.1,0-0.2,0-0.3c0,0,0,0,0-0.1c0-0.1,0-0.2,0-0.3c0,0,0,0,0-0.1c0-0.1,0-0.2,0-0.3c0,0,0,0,0-0.1
				c0-0.1,0-0.2,0-0.3c0,0,0,0,0-0.1c0-0.1,0-0.2,0-0.3c0,0,0,0,0-0.1c0-0.1,0-0.2,0-0.3c0,0,0,0,0-0.1c0-0.1,0-0.2,0-0.3
				c0,0,0,0,0-0.1c0-0.1,0-0.2,0-0.3c0,0,0-0.1,0-0.1c0-0.1,0-0.2,0-0.3c0,0,0,0,0-0.1c0-0.1,0-0.2,0-0.3c0,0,0,0,0-0.1
				c0-0.1,0-0.2,0-0.3c0,0,0,0,0-0.1c0-0.1,0-0.2,0-0.3c0,0,0,0,0-0.1c0-0.1,0-0.2,0-0.3c0,0,0,0,0-0.1c0-0.1,0-0.2,0-0.3
				c0,0,0,0,0-0.1c0-0.1,0-0.2,0-0.3c0,0,0,0,0-0.1c0.4-0.8-1.1-1.4-3.5-1.5c0.4,0,0.9,0,1.3,0c2.5,0,4.9-0.7,5.3-1.6
				c3.8-7.9,5.7-11.8,9.5-19.7c0-0.1,0-0.2,0-0.3c0,0,0,0,0-0.1c0-0.1,0-0.2,0-0.3c0,0,0,0,0,0c0-0.1,0-0.2,0-0.3c0,0,0,0,0-0.1
				c0-0.1,0-0.2,0-0.3c0,0,0,0,0-0.1c0-0.1,0-0.2,0-0.3c0,0,0,0,0-0.1c0-0.1,0-0.2,0-0.3c0,0,0,0,0-0.1c0-0.1,0-0.2,0-0.3
				c0,0,0,0,0-0.1c0-0.1,0-0.2,0-0.3c0,0,0,0,0-0.1c0-0.1,0-0.2,0-0.3c0,0,0,0,0-0.1c0-0.1,0-0.2,0-0.3c0,0,0,0,0-0.1
				c0-0.1,0-0.2,0-0.3c0,0,0,0,0-0.1c0-0.1,0-0.2,0-0.3c0,0,0,0,0-0.1c0-0.1,0-0.2,0-0.3c0,0,0,0,0,0c0-0.1,0-0.2,0-0.3
				c0,0,0,0,0-0.1c0-0.1,0-0.2,0-0.3c0,0,0,0,0-0.1c0.1-0.1,0-0.2,0-0.3c0,0,0,0,0-0.1c0-0.1,0-0.2,0-0.3c0,0,0,0,0-0.1
				c0-0.1,0-0.2,0-0.3c0,0,0,0,0-0.1c0-0.1,0-0.2,0-0.3c0,0,0,0,0-0.1c0-0.1,0-0.2,0-0.3c0,0,0,0,0-0.1c0-0.1,0-0.2,0-0.3
				c0,0,0,0,0,0c0.4-0.9-1.2-1.6-3.7-1.6c-8.4,0-15.2,0-21.6,0c1.3-0.3,2.4-0.7,2.6-1.3c4.1-7.9,6.2-11.8,10.3-19.7
				c0.1-0.1,0-0.2,0-0.3c0,0,0,0,0,0c0.1-0.1,0-0.2,0-0.3c0,0,0,0,0,0c0.1-0.1,0-0.2,0-0.3c0,0,0,0,0,0c0.1-0.1,0-0.2,0-0.3
				c0,0,0,0,0,0c0.1-0.1,0-0.2,0-0.3c0,0,0,0,0,0c0.1-0.1,0-0.2,0-0.3c0,0,0,0,0,0c0.1-0.1,0-0.2,0-0.3c0,0,0,0,0,0
				c0.1-0.1,0-0.2,0-0.3c0,0,0,0,0,0c0.1-0.1,0-0.2,0-0.3c0,0,0,0,0,0c0.1-0.1,0-0.2,0-0.3c0,0,0,0,0,0c0.1-0.1,0-0.2,0-0.3
				c0,0,0,0,0,0c0.1-0.1,0-0.2,0-0.3l0,0c0.1-0.1,0-0.2,0-0.3c0,0,0,0,0,0c0.1-0.1,0-0.2,0-0.3c0,0,0,0,0,0c0.1-0.1,0-0.2,0-0.3
				c0,0,0,0,0,0c0.1-0.1,0-0.2,0-0.3c0,0,0,0,0,0c0.1-0.1,0-0.2,0-0.3c0,0,0,0,0,0c0.1-0.1,0-0.2,0-0.3c0,0,0,0,0,0
				c0.1-0.1,0-0.2,0-0.3c0,0,0,0,0,0c0.1-0.1,0-0.2,0-0.3c0,0,0,0,0,0c0.1-0.1,0-0.2,0-0.3c0,0,0,0,0,0c0.2-0.3,0-0.6-0.3-0.8
				c6.7,0,13.4,0,21.7,0c-0.6,0.3-1,0.5-1.2,0.8c-3.9,7.9-5.8,11.8-9.7,19.7c0,0.1,0,0.2,0,0.3c0,0,0,0,0,0c0,0.1,0,0.2,0,0.3
				c0,0,0,0,0,0c0,0.1,0,0.2,0,0.3c0,0,0,0,0,0c0,0.1,0,0.2,0,0.3c0,0,0,0,0,0c0,0.1,0,0.2,0,0.3c0,0,0,0,0,0c-0.1,0.1,0,0.2,0,0.3
				c0,0,0,0,0,0c0,0.1,0,0.2,0,0.3c0,0,0,0,0,0c0,0.1,0,0.2,0,0.3c0,0,0,0,0,0c0,0.1,0,0.2,0,0.3c0,0,0,0,0,0.1c0,0.1,0,0.2,0,0.3
				c0,0,0,0,0,0c0,0.1,0,0.2,0,0.3c0,0,0,0,0,0c0,0.1,0,0.2,0,0.3c0,0,0,0,0,0c0,0.1,0,0.2,0,0.3c0,0,0,0,0,0c0,0.1,0,0.2,0,0.3
				c0,0,0,0,0,0.1c0,0.1,0,0.2,0,0.3c0,0,0,0,0,0.1c0,0.1,0,0.2,0,0.3c0,0,0,0,0,0.1c0,0.1,0,0.2,0,0.3c0,0,0,0,0,0.1
				c0,0.1,0,0.2,0,0.3c0,0,0,0,0,0c0,0.1,0,0.2,0,0.3c0,0,0,0,0,0c0,0.1,0,0.2,0,0.3c0,0,0,0,0,0c0,0.1,0,0.2,0,0.3c0,0,0,0,0,0
				c-0.4,0.9,1.2,1.6,3.6,1.6c8.5,0,15.4,0,21.9,0c-1.3,0.3-2.3,0.7-2.5,1.3c-3.6,7.9-5.4,11.8-9,19.7c0,0.1,0,0.2,0,0.3
				c0,0,0,0,0,0.1c0,0.1,0,0.2,0,0.3c0,0,0,0,0,0.1c0,0.1,0,0.2,0,0.3c0,0,0,0,0,0.1c0,0.1,0,0.2,0,0.3c0,0,0,0.1,0,0.1
				c0,0.1,0,0.2,0,0.3c0,0,0,0,0,0.1c0,0.1,0,0.2,0,0.3c0,0,0,0,0,0.1c0,0.1,0,0.2,0,0.3c0,0,0,0,0,0.1c0,0.1,0,0.2,0,0.3
				c0,0,0,0,0,0.1c0,0.1,0,0.2,0,0.3c0,0,0,0,0,0.1c0,0.1,0,0.2,0,0.3c0,0,0,0.1,0,0.1c0,0.1,0,0.2,0,0.3c0,0,0,0,0,0.1
				c0,0.1,0,0.2,0,0.3c0,0,0,0,0,0.1c0,0.1,0,0.2,0,0.3c0,0,0,0.1,0,0.1c0,0.1,0,0.2,0,0.3c0,0,0,0.1,0,0.1c0,0.1,0,0.2,0,0.3
				c0,0,0,0,0,0.1c0,0.1,0,0.2,0,0.3c0,0,0,0.1,0,0.1c0,0.1,0,0.2,0,0.3c0,0,0,0.1,0,0.1c0,0.1,0,0.2,0,0.3c0,0,0,0,0,0.1
				c0,0.1,0,0.2,0,0.3c0,0,0,0.1,0,0.1c0,0.1,0,0.2,0,0.3c0,0,0,0.1,0,0.1c-0.1,0.1,0,0.2,0,0.3c0,0,0,0.1,0,0.1
				c-0.4,0.8,1.2,1.5,3.5,1.5c-0.4,0-0.7,0-1,0c-2.5,0-4.9,0.7-5.3,1.6c-3.6,7.9-5.4,11.8-8.9,19.7c0,0.1,0,0.2,0,0.3
				c0,0,0,0.1,0,0.1c0,0.1,0,0.2,0,0.3c0,0,0,0.1,0,0.1c0,0.1,0,0.2,0,0.3c0,0,0,0.1,0,0.1c0,0.1,0,0.2,0,0.3c0,0,0,0.1,0,0.1
				c0,0.1,0,0.2,0,0.3c0,0,0,0.1,0,0.1c0,0.1,0,0.2,0,0.3c0,0,0,0.1,0,0.1c0,0.1,0,0.2,0,0.3c0,0,0,0.1,0,0.1c0,0.1,0,0.2,0,0.3
				c0,0,0,0.1,0,0.1c0,0.1,0,0.2,0,0.3c0,0,0,0.1,0,0.1c0,0.1,0,0.2,0,0.3c0,0,0,0.1,0,0.1c0,0.1,0,0.2,0,0.3c0,0,0,0.1,0,0.1
				c0,0.1,0,0.2,0,0.3c0,0,0,0.1,0,0.1c0,0.1,0,0.2,0,0.3c0,0,0,0.1,0,0.1c0,0.1,0,0.2,0,0.3c0,0,0,0.1,0,0.1c0,0.1,0,0.2,0,0.3
				c0,0,0,0,0,0.1c0,0.1,0,0.2,0,0.3c0,0,0,0.1,0,0.1c0,0.1,0,0.2,0,0.3c0,0,0,0.1,0,0.1c0,0.1,0,0.2,0,0.3c0,0,0,0.1,0,0.1
				c0,0.1,0,0.2,0,0.3c0,0,0,0.1,0,0.1c0,0.1,0,0.2,0,0.3c0,0,0,0.1,0,0.1c0,0.1,0,0.2,0,0.3c0,0,0,0.1,0,0.1
				c-0.4,0.9,1.4,1.6,4,1.6c23.9,0,35.9,0,59.9,0c2.6,0,5-0.7,5.3-1.6c2.9-7.9,4.3-11.8,7.2-19.7c0-0.1,0-0.1,0-0.2c0,0,0-0.1,0-0.1
				c0-0.1,0-0.1,0-0.2c0,0,0-0.1,0-0.1c0-0.1,0-0.1,0-0.2c0,0,0-0.1,0-0.1c0-0.1,0-0.1,0-0.2c0,0,0-0.1,0-0.1c0-0.1,0-0.1,0-0.2
				c0,0,0-0.1,0-0.1c0-0.1,0-0.1,0-0.2c0,0,0-0.1,0-0.1c0-0.1,0-0.1,0-0.2c0,0,0-0.1,0-0.1c0-0.1,0-0.1,0-0.2c0,0,0-0.1,0-0.1
				c0-0.1,0-0.1,0-0.2c0,0,0-0.1,0-0.1c0-0.1,0-0.1,0-0.2c0,0,0-0.1,0-0.1c0-0.1,0-0.1,0-0.2c0,0,0-0.1,0-0.1c0-0.1,0-0.1,0-0.2
				c0,0,0-0.1,0-0.1c0-0.1,0-0.1,0-0.2c0,0,0-0.1,0-0.1c0-0.1,0-0.1,0-0.2c0,0,0-0.1,0-0.1c0-0.1,0-0.1,0-0.2c0-0.1,0-0.1,0-0.1
				c0-0.1,0-0.1,0-0.2c0,0,0-0.1,0-0.1c0-0.1,0-0.1,0-0.2c0-0.1,0-0.1,0-0.1c0-0.1,0-0.1,0-0.2c0-0.1,0-0.1,0-0.1c0-0.1,0-0.1,0-0.2
				c0,0,0-0.1,0-0.1c0-0.1,0-0.2,0-0.2c0,0,0-0.1,0-0.1c0-0.1,0-0.1,0-0.2c0,0,0-0.1,0-0.1c0.3-0.8-1.3-1.5-3.6-1.5
				c0.1,0,0.3,0,0.4,0c2.5,0,4.8-0.7,5.1-1.6c2.9-7.9,4.4-11.8,7.3-19.7c0-0.1-0.1-0.1-0.1-0.2c0,0,0-0.1,0.1-0.1
				c0-0.1-0.1-0.2-0.1-0.2c0,0,0-0.1,0.1-0.1c0-0.1-0.1-0.1-0.1-0.2c0,0,0-0.1,0.1-0.1c0-0.1-0.1-0.1-0.1-0.2c0,0,0-0.1,0.1-0.1
				c0-0.1-0.1-0.2-0.1-0.2c0,0,0-0.1,0.1-0.1c0-0.1-0.1-0.1-0.1-0.2c0,0,0-0.1,0.1-0.1c0-0.1-0.1-0.2-0.1-0.2c0-0.1,0-0.1,0-0.1
				c0-0.1,0-0.1,0-0.2c0,0,0-0.1,0.1-0.1c0-0.1-0.1-0.2-0.1-0.2c0,0,0-0.1,0.1-0.1c0-0.1,0-0.2-0.1-0.2c0,0,0-0.1,0.1-0.1
				c0-0.1-0.1-0.1-0.1-0.2c0,0,0-0.1,0.1-0.1c0-0.1-0.1-0.2-0.1-0.2c0,0,0-0.1,0.1-0.1c0-0.1-0.1-0.1-0.1-0.2c0,0,0-0.1,0.1-0.1
				c0-0.1-0.1-0.2-0.1-0.2c0,0,0-0.1,0-0.1c0-0.1,0-0.1,0-0.2c0,0,0-0.1,0.1-0.1c0-0.1,0-0.1-0.1-0.2c0,0,0-0.1,0.1-0.1
				c0-0.1-0.1-0.2-0.1-0.2c0,0,0-0.1,0.1-0.1c0-0.1,0-0.1-0.1-0.2c0-0.1,0-0.1,0.1-0.1c0-0.1,0-0.2-0.1-0.2c0-0.1,0-0.1,0.1-0.1
				c0-0.1-0.1-0.2-0.1-0.2c0,0,0-0.1,0.1-0.1c0-0.1-0.1-0.2-0.1-0.2c0,0,0-0.1,0.1-0.1c0.3-0.9-1.4-1.6-3.8-1.6
				c-8.8,0-15.8,0-22.5,0c1.3-0.3,2.3-0.7,2.5-1.3c3.2-7.9,4.8-11.8,8-19.7c0-0.1,0-0.2,0-0.3c0,0,0-0.1,0-0.1c0-0.1,0-0.2,0-0.3
				c0,0,0-0.1,0-0.1c0-0.1,0-0.2,0-0.3c0,0,0-0.1,0-0.1c0-0.1,0-0.2,0-0.3c0,0,0-0.1,0-0.1c0-0.1,0-0.2,0-0.3c0,0,0-0.1,0-0.1
				c0-0.1,0-0.2,0-0.3c0,0,0-0.1,0-0.1c0-0.1,0-0.2,0-0.3c0,0,0-0.1,0-0.1c0-0.1,0-0.2,0-0.3c0,0,0-0.1,0-0.1c0-0.1,0-0.2,0-0.3
				c0,0,0-0.1,0-0.1c0-0.1,0-0.2,0-0.3c0,0,0-0.1,0-0.1c0-0.1,0-0.2,0-0.3c0,0,0-0.1,0-0.1c0-0.1,0-0.2,0-0.3c0,0,0-0.1,0-0.1
				c0-0.1,0-0.2,0-0.3c0,0,0-0.1,0-0.1c0-0.1,0-0.2,0-0.3c0,0,0-0.1,0-0.1c0-0.1,0-0.2,0-0.3c0,0,0-0.1,0-0.1c0-0.1,0-0.2,0-0.3
				c0,0,0-0.1,0-0.1c0-0.1,0-0.2,0-0.3c0,0,0-0.1,0-0.1c0-0.1,0-0.2,0-0.3c0,0,0-0.1,0-0.1c0-0.1,0-0.2,0-0.3c0,0,0-0.1,0-0.1
				c0-0.1,0-0.2,0-0.3c0,0,0-0.1,0-0.1c0-0.1,0-0.2,0-0.3c0,0,0-0.1,0-0.1c0.1-0.3-0.1-0.6-0.4-0.9c6.7,0,13.4,0,21.7,0
				c-0.5,0.3-1,0.5-1.1,0.9c-3,7.9-4.5,11.8-7.5,19.7c0,0.1,0,0.2,0,0.2c0,0,0,0.1,0,0.1c0,0.1,0,0.2,0,0.2c0,0,0,0.1,0,0.1
				c0,0.1,0,0.2,0,0.2c0,0,0,0.1,0,0.1c0,0.1,0,0.2,0,0.2c0,0,0,0.1,0,0.1c0,0.1,0,0.2,0,0.2c0,0,0,0.1,0,0.1c0,0.1,0,0.2,0,0.2
				c0,0,0,0.1,0,0.1c0,0.1,0,0.2,0,0.2c0,0,0,0.1,0,0.1c0,0.1,0,0.2,0,0.2c0,0,0,0.1,0,0.1c0,0.1,0,0.2,0,0.2c0,0,0,0.1,0,0.1
				c0,0.1,0,0.1,0,0.2c0,0,0,0.1,0,0.1c0,0.1,0,0.2,0,0.2c0,0,0,0.1,0,0.1c0,0.1,0,0.2,0,0.2c0,0,0,0.1,0,0.1c0,0.1,0,0.2,0,0.2
				c0,0,0,0.1,0,0.1c0,0.1,0,0.2,0,0.2c0,0,0,0.1,0,0.1c0,0.1,0,0.2,0,0.2c0,0,0,0.1,0,0.1c0,0.1,0,0.2,0,0.2c0,0,0,0.1,0,0.1
				c0,0.1,0,0.2,0,0.2c0,0,0,0.1,0,0.1c0,0.1,0,0.2,0,0.2c0,0,0,0.1,0,0.1c0,0.1,0,0.2,0,0.2c0,0,0,0.1,0,0.1c0,0.1,0,0.2,0,0.2
				c0,0,0,0.1,0,0.1c0,0.1,0,0.2,0,0.2c0,0,0,0.1,0,0.1c-0.3,0.9,1.4,1.6,3.8,1.6c8.9,0,16,0,22.8,0c-1.3,0.3-2.2,0.7-2.4,1.3
				c-2.7,7.9-4,11.8-6.7,19.7c0,0.1,0.1,0.1,0.1,0.2c0,0.1,0,0.1-0.1,0.2c0,0.1,0.1,0.1,0.1,0.2c0,0,0,0.1-0.1,0.1
				c0,0.1,0.1,0.1,0.1,0.2c0,0.1,0,0.1-0.1,0.2c0,0.1,0.1,0.1,0.1,0.2c0,0.1,0,0.1-0.1,0.2c0,0.1,0.1,0.1,0.1,0.2
				c0,0.1,0,0.1-0.1,0.2c0,0.1,0.1,0.1,0.1,0.2c0,0.1,0,0.1-0.1,0.2c0,0.1,0.1,0.1,0.1,0.2c0,0,0,0.1-0.1,0.1c0,0.1,0.1,0.1,0.1,0.2
				c0,0.1,0,0.1-0.1,0.2c0,0.1,0.1,0.1,0.1,0.2c0,0,0,0.1-0.1,0.1c0,0.1,0.1,0.1,0.1,0.2c0,0.1,0,0.1-0.1,0.2c0,0.1,0.1,0.1,0.1,0.2
				c0,0.1,0,0.1-0.1,0.1c0,0.1,0.1,0.1,0.1,0.2c0,0.1,0,0.1-0.1,0.2c0,0.1,0.1,0.1,0.1,0.2c0,0.1,0,0.1-0.1,0.2
				c0,0.1,0.1,0.1,0.1,0.2c0,0,0,0.1-0.1,0.1c0,0.1,0.1,0.1,0.1,0.2c0,0,0,0.1-0.1,0.1c0,0.1,0.1,0.1,0.1,0.2c0,0,0,0.1-0.1,0.2
				c0,0.1,0.1,0.1,0.1,0.2c0,0.1,0,0.1-0.1,0.2c0,0.1,0.1,0.1,0.1,0.2c0,0,0,0.1-0.1,0.2c0,0.1,0.1,0.1,0.1,0.2c0,0.1,0,0.1-0.1,0.1
				c0,0.1,0.1,0.1,0.1,0.2c0,0.1,0,0.1-0.1,0.1c0,0.1,0.1,0.1,0.1,0.2c0,0.1,0,0.1-0.1,0.1c-0.3,0.8,1.4,1.5,3.7,1.5
				c-0.1,0-0.1,0-0.2,0c-2.5,0-4.8,0.7-5.1,1.6c-2.7,7.9-4,11.8-6.7,19.7c0,0.1,0,0.1,0.1,0.2c0,0.1,0,0.1-0.1,0.2
				c0,0.1,0,0.1,0.1,0.2c0,0.1,0,0.1-0.1,0.2c0,0.1,0,0.1,0.1,0.2c0,0.1,0,0.1-0.1,0.2c0,0.1,0,0.1,0.1,0.2c0,0.1,0,0.1-0.1,0.2
				c0,0.1,0,0.1,0.1,0.2c0,0.1,0,0.1-0.1,0.2c0,0.1,0,0.1,0.1,0.2c0,0.1,0,0.1-0.1,0.2c0,0.1,0,0.1,0.1,0.2c0,0.1,0,0.1-0.1,0.2
				c0,0.1,0,0.1,0.1,0.2c0,0.1,0,0.1-0.1,0.2c0,0.1,0,0.1,0.1,0.2c0,0.1,0,0.1-0.1,0.2c0,0.1,0,0.1,0.1,0.2c0,0.1,0,0.1-0.1,0.2
				c0,0.1,0,0.1,0.1,0.2c0,0,0,0.1-0.1,0.1c0,0.1,0,0.1,0.1,0.2c0,0,0,0.1-0.1,0.2c0,0.1,0,0.1,0.1,0.2c0,0,0,0.1-0.1,0.2
				c0,0.1,0,0.1,0.1,0.2c0,0.1,0,0.1-0.1,0.1c0,0.1,0,0.1,0.1,0.2c0,0,0,0.1-0.1,0.1c0,0.1,0,0.1,0.1,0.2c0,0.1,0,0.1-0.1,0.2
				c0,0.1,0,0.1,0.1,0.2c0,0.1,0,0.1-0.1,0.2c0,0.1,0,0.1,0.1,0.2c0,0.1,0,0.1-0.1,0.2c0,0.1,0,0.1,0.1,0.2c0,0.1,0,0.1-0.1,0.1
				c0,0.1,0,0.1,0.1,0.2c0,0,0,0.1-0.1,0.2c0,0.1,0,0.1,0.1,0.2c0,0.1,0,0.1-0.1,0.2c-0.3,0.9,1.6,1.6,4.2,1.6c24,0,35.9,0,59.9,0
				c2.6,0,4.9-0.7,5.1-1.6c2-7.9,3-11.8,5-19.7c0-0.1-0.1-0.1-0.1-0.2c0-0.1,0-0.1,0.1-0.2c0-0.1-0.1-0.1-0.1-0.1
				c0-0.1,0-0.1,0.1-0.2c0-0.1-0.1-0.1-0.1-0.1c0-0.1,0-0.1,0.1-0.2c0,0-0.1-0.1-0.1-0.2c0-0.1,0-0.1,0.1-0.2c0-0.1-0.1-0.1-0.1-0.2
				c0-0.1,0-0.1,0.1-0.2c0-0.1-0.1-0.1-0.1-0.1c0-0.1,0-0.1,0.1-0.2c0-0.1-0.1-0.1-0.1-0.2c0-0.1,0-0.1,0.1-0.2
				c0-0.1-0.1-0.1-0.1-0.2c0-0.1,0-0.1,0.1-0.2c0-0.1-0.1-0.1-0.1-0.2c0-0.1,0-0.1,0.1-0.2c0-0.1-0.1-0.1-0.1-0.2
				c0-0.1,0-0.1,0.1-0.2c0,0-0.1-0.1-0.1-0.1c0-0.1,0-0.1,0.1-0.2c0-0.1-0.1-0.1-0.1-0.2c0-0.1,0-0.1,0.1-0.2c0,0-0.1-0.1-0.1-0.2
				c0-0.1,0-0.1,0.1-0.2c0-0.1-0.1-0.1-0.1-0.1c0-0.1,0-0.1,0.1-0.2c0-0.1-0.1-0.1-0.1-0.2c0-0.1,0-0.1,0.1-0.2
				c0-0.1-0.1-0.1-0.1-0.1c0-0.1,0-0.1,0.1-0.2c0,0-0.1-0.1-0.1-0.2c0-0.1,0-0.1,0.1-0.2c0-0.1-0.1-0.1-0.1-0.2c0-0.1,0-0.1,0.1-0.2
				c0-0.1-0.1-0.1-0.1-0.2c0-0.1,0-0.1,0.1-0.2c0-0.1-0.1-0.1-0.1-0.2c0-0.1,0-0.1,0.1-0.2c0-0.1-0.1-0.1-0.1-0.2
				c0-0.1,0-0.1,0.1-0.2c0.2-0.8-1.6-1.5-4-1.5c2.4,0,4.5-0.7,4.7-1.5c2-7.9,3-11.8,5-19.7c0,0-0.1-0.1-0.1-0.2c0-0.1,0-0.1,0.1-0.2
				c0-0.1-0.1-0.1-0.1-0.2c0-0.1,0-0.1,0.1-0.2c0-0.1-0.1-0.1-0.1-0.2c0-0.1,0-0.1,0.1-0.2c0-0.1-0.1-0.1-0.1-0.2
				c0-0.1,0-0.1,0.1-0.2c0-0.1-0.1-0.1-0.1-0.2c0-0.1,0-0.1,0.1-0.2c0-0.1-0.1-0.1-0.1-0.2c0-0.1,0-0.1,0.1-0.2c0,0-0.1-0.1-0.1-0.2
				c0-0.1,0-0.1,0.1-0.2c0-0.1-0.1-0.1-0.1-0.2c0-0.1,0-0.1,0.1-0.2c0-0.1-0.1-0.1-0.1-0.2c0-0.1,0-0.1,0.1-0.2
				c0-0.1-0.1-0.1-0.1-0.2c0-0.1,0-0.1,0.1-0.2c0-0.1-0.1-0.1-0.1-0.2c0-0.1,0-0.1,0.1-0.2c0-0.1-0.1-0.1-0.1-0.2
				c0-0.1,0-0.1,0.1-0.2c0-0.1-0.1-0.1-0.1-0.2c0-0.1,0-0.1,0.1-0.2c0-0.1-0.1-0.1-0.1-0.2c0-0.1,0-0.1,0.1-0.2c0,0-0.1-0.1-0.1-0.1
				c0-0.1,0-0.1,0.1-0.2c0-0.1-0.1-0.1-0.1-0.2c0-0.1,0-0.1,0.1-0.2c0-0.1-0.1-0.1-0.1-0.2c0-0.1,0-0.1,0.1-0.2
				c0-0.1-0.1-0.1-0.1-0.2c0-0.1,0-0.1,0.1-0.2c0-0.1-0.1-0.1-0.1-0.2c0-0.1,0-0.1,0.1-0.2c0-0.1-0.1-0.1-0.1-0.2
				c0-0.1,0-0.1,0.1-0.2c0-0.1-0.1-0.1-0.1-0.2c0-0.1,0-0.1,0.1-0.2c0.2-0.9-1.6-1.6-4-1.6c-9.1,0-16.4,0-23.3,0
				c1.2-0.3,2.2-0.7,2.3-1.3c2.3-7.9,3.4-11.8,5.8-19.7c0-0.1-0.1-0.1-0.1-0.2c0-0.1,0-0.1,0.1-0.2c0-0.1-0.1-0.1-0.1-0.2
				c0-0.1,0-0.1,0.1-0.2c0-0.1-0.1-0.1-0.1-0.2c0-0.1,0-0.1,0.1-0.2c0-0.1-0.1-0.1-0.1-0.2c0,0,0-0.1,0.1-0.2c0-0.1-0.1-0.1-0.1-0.2
				c0-0.1,0-0.1,0.1-0.2c0-0.1-0.1-0.1-0.1-0.2c0-0.1,0-0.1,0.1-0.2c0-0.1-0.1-0.1-0.1-0.2c0-0.1,0-0.1,0.1-0.2
				c0-0.1-0.1-0.1-0.1-0.2c0-0.1,0-0.1,0.1-0.2c0-0.1-0.1-0.1-0.1-0.2c0-0.1,0-0.1,0.1-0.2c0-0.1-0.1-0.1-0.1-0.2
				c0-0.1,0-0.1,0.1-0.2c0-0.1-0.1-0.1-0.1-0.2c0-0.1,0-0.1,0.1-0.2c0-0.1-0.1-0.1-0.1-0.2c0-0.1,0-0.1,0.1-0.2
				c0-0.1-0.1-0.1-0.1-0.2c0-0.1,0-0.1,0.1-0.2c0-0.1-0.1-0.1-0.1-0.2c0-0.1,0-0.1,0.1-0.2c0-0.1-0.1-0.1-0.1-0.2
				c0-0.1,0-0.1,0.1-0.2c0-0.1-0.1-0.1-0.1-0.2c0-0.1,0-0.1,0.1-0.2c0-0.1-0.1-0.1-0.1-0.2c0-0.1,0-0.1,0.1-0.2
				c0-0.1-0.1-0.1-0.1-0.2c0-0.1,0-0.1,0.1-0.2c0-0.1-0.1-0.1-0.1-0.2c0-0.1,0-0.1,0.1-0.2c0-0.1-0.1-0.1-0.1-0.2
				c0-0.1,0-0.1,0.1-0.2c0-0.1-0.1-0.1-0.1-0.2c0-0.1,0-0.1,0.1-0.2c0.1-0.3-0.2-0.6-0.5-0.8c6.6,0,13.4,0,21.7,0
				c-0.5,0.3-0.9,0.5-1,0.8c-2.1,7.9-3.1,11.8-5.2,19.7c0,0.1,0,0.1,0,0.2c0,0.1,0,0.1,0,0.2c0,0.1,0,0.1,0,0.2c0,0.1,0,0.1,0,0.2
				c0,0.1,0,0.1,0,0.2c0,0.1,0,0.1,0,0.2c0,0.1,0,0.1,0,0.2c0,0.1,0,0.1,0,0.2c0,0.1,0,0.1,0,0.2c0,0.1,0,0.1,0,0.2
				c0,0.1,0,0.1,0,0.2c0,0.1,0,0.1,0,0.2c0,0.1,0,0.1,0,0.2c0,0.1,0,0.1,0,0.2c0,0.1,0,0.1,0,0.2c0,0.1,0,0.1,0,0.2
				c0,0.1,0,0.1,0,0.2c0,0.1,0,0.1,0,0.2c0,0.1,0,0.1,0,0.2c0,0.1,0,0.1,0,0.2c0,0.1,0,0.1,0,0.2c0,0.1,0,0.1,0,0.2
				c0,0.1,0,0.1,0,0.2c0,0.1,0,0.1,0,0.2c0,0.1,0,0.1,0,0.2c0,0.1,0,0.1,0,0.2c0,0,0,0.1,0,0.2c0,0.1,0,0.1,0,0.2c0,0.1,0,0.1,0,0.2
				c0,0.1,0,0.1,0,0.2c0,0.1,0,0.1,0,0.2c0,0.1,0,0.1,0,0.2c0,0.1,0,0.1,0,0.2c0,0.1,0,0.1,0,0.2c0,0.1,0,0.1,0,0.2
				c0,0.1,0,0.1,0,0.2c0,0.1,0,0.1,0,0.2c0,0.1,0,0.1,0,0.2c0,0.1,0,0.1,0,0.2c0,0.1,0,0.1,0,0.2c0,0.1,0,0.1,0,0.2
				c0,0.1,0,0.1,0,0.2c-0.2,0.9,1.5,1.6,4,1.6c9.3,0,16.6,0,23.6,0c-1.2,0.3-2.1,0.7-2.3,1.3c-1.8,7.9-2.7,11.8-4.5,19.7
				c0,0,0,0.1,0,0.1c0,0.1,0,0.1,0,0.2c0,0,0,0.1,0,0.1c0,0.1,0,0.1,0,0.2c0,0.1,0,0.1,0,0.1c0,0.1,0,0.1,0,0.2c0,0,0,0.1,0,0.1
				c0,0.1,0,0.1,0,0.2c0,0,0,0.1,0,0.1c0,0.1,0,0.1,0,0.2c0,0,0,0.1,0,0.1c0,0.1,0,0.1,0,0.2c0,0,0,0.1,0,0.1c0,0.1,0,0.2,0,0.2
				c0,0.1,0,0.1,0,0.1c0,0.1,0,0.1,0,0.2c0,0.1,0,0.1,0,0.1c0,0.1,0,0.1,0,0.2c0,0,0,0.1,0,0.1c0,0.1,0,0.1,0,0.2c0,0,0,0.1,0,0.1
				c0,0.1,0,0.1,0,0.2c0,0,0,0.1,0,0.1c0,0.1,0,0.2,0,0.2c0,0,0,0.1,0,0.1c0,0.1,0,0.1,0,0.2c0,0,0,0.1,0,0.1c0,0.1,0,0.1,0,0.2
				c0,0.1,0,0.1,0,0.1c0,0.1,0,0.1,0,0.2c0,0.1,0,0.1,0,0.1c0,0.1,0,0.1,0,0.2c0,0.1,0,0.1,0,0.1c0,0.1,0,0.1,0,0.2
				c0,0.1,0,0.1,0,0.1c0,0.1,0,0.1,0,0.2c0,0,0,0.1,0,0.1c0,0.1,0,0.1,0,0.2c0,0.1,0,0.1,0,0.1c0,0.1,0,0.1,0,0.2c0,0.1,0,0.1,0,0.1
				c0,0.1,0,0.1,0,0.2c-0.2,0.9,1.7,1.6,4.2,1.6c-2.4,0-4.4,0.7-4.6,1.5c-1.8,7.9-2.6,11.8-4.4,19.7c0,0,0,0.1,0,0.1
				c0,0.1,0,0.1,0,0.2c0,0,0,0.1,0,0.1c0,0.1,0,0.1,0,0.2c0,0,0,0.1,0,0.1c0,0.1,0,0.2,0,0.2c0,0,0,0.1,0,0.1c0,0.1,0,0.1,0,0.2
				c0,0,0,0.1,0,0.1c0,0.1,0,0.2,0,0.2c0,0,0,0.1,0,0.1c0,0.1,0,0.1,0,0.2c0,0,0,0.1,0,0.1c0,0.1,0,0.1,0,0.2c0,0,0,0.1,0,0.1
				c0,0.1,0,0.1,0,0.2c0,0,0,0.1,0,0.1c0,0.1,0,0.1,0,0.2c0,0,0,0.1,0,0.1c0,0.1,0,0.1,0,0.2c0,0.1,0,0.1,0,0.1c0,0.1,0,0.1,0,0.2
				c0,0.1,0,0.1,0,0.1c0,0.1,0,0.1,0,0.2c0,0.1,0,0.1,0,0.1c0,0.1,0,0.1,0,0.2c0,0,0,0.1,0,0.1c0,0.1,0,0.1,0,0.2c0,0.1,0,0.1,0,0.1
				c0,0.1,0,0.2,0,0.2c0,0.1,0,0.1,0,0.1c0,0.1,0,0.1,0,0.2c0,0.1,0,0.1,0,0.1c0,0.1,0,0.2,0,0.2c0,0,0,0.1,0,0.1c0,0.1,0,0.2,0,0.2
				c0,0,0,0.1,0,0.1c0,0.1,0,0.1,0,0.2c0,0,0,0.1,0,0.1c0,0.1,0,0.1,0,0.2c0,0,0,0.1,0,0.1c0,0.1,0,0.1,0,0.2
				c-0.2,0.9,1.8,1.6,4.4,1.6c112.9,0,225.9,0,338.8,0c2.6,0,4.6-0.7,4.4-1.6c0-0.1,0-0.2,0-0.2c0,0,0-0.1,0-0.1c0-0.1,0-0.2,0-0.2
				c0,0,0-0.1,0-0.1c0-0.1,0-0.1,0-0.2c0,0,0-0.1,0-0.1c0-0.1,0-0.2,0-0.2c0,0,0-0.1,0-0.1c0-0.1,0-0.2,0-0.2c0,0,0-0.1,0-0.1
				c0-0.1,0-0.2,0-0.2c0,0,0-0.1,0-0.1c0-0.1,0-0.1,0-0.2c0,0,0-0.1,0-0.1c0-0.1,0-0.1,0-0.2c0,0,0-0.1,0-0.1c0-0.1,0-0.2,0-0.2
				c0,0,0-0.1,0-0.1c0-0.1,0-0.2,0-0.2c0,0,0-0.1,0-0.1c0-0.1,0-0.1,0-0.2c0-0.1,0-0.1,0-0.1c0-0.1,0-0.2,0-0.2c0,0,0-0.1,0-0.1
				c0-0.1,0-0.2,0-0.2c0,0,0-0.1,0-0.1c0-0.1,0-0.2,0-0.2c0,0,0-0.1,0-0.1c0-0.1,0-0.2,0-0.2c0,0,0-0.1,0-0.1c0-0.1,0-0.2,0-0.2
				c0,0,0-0.1,0-0.1c0-0.1,0-0.2,0-0.2c0,0,0-0.1,0-0.1c0-0.1,0-0.2,0-0.2c0,0,0-0.1,0-0.1c0-0.1,0-0.2,0-0.2c0,0,0-0.1,0-0.1
				c0-0.1,0-0.2,0-0.2c0,0,0-0.1,0-0.1c0-0.1,0-0.2,0-0.2c0,0,0-0.1,0-0.1c-1.7-7.9-2.5-11.8-4.1-19.7c-0.2-0.9-2.4-1.6-4.9-1.6
				c-2.2,0-4.3,0-6.5,0c2.3-0.1,4-0.7,3.9-1.5c0-0.1,0-0.1,0-0.2c0,0,0.1-0.1,0-0.1c0-0.1,0-0.2,0-0.2c0,0,0-0.1,0-0.1
				c0-0.1,0-0.1,0-0.2c0,0,0-0.1,0-0.1c0-0.1,0-0.2,0-0.2c0,0,0.1-0.1,0-0.1c0-0.1,0-0.1,0-0.2c0,0,0.1-0.1,0-0.1c0-0.1,0-0.2,0-0.2
				c0,0,0-0.1,0-0.1c0-0.1,0-0.2,0-0.2c0,0,0.1-0.1,0-0.1c0-0.1,0-0.1,0-0.2c0,0,0.1-0.1,0-0.1c0-0.1,0-0.2,0-0.2c0,0,0-0.1,0-0.1
				c0-0.1,0-0.2,0-0.2c0,0,0.1-0.1,0-0.1c0-0.1,0-0.2,0-0.2c0,0,0.1-0.1,0-0.1c0-0.1,0-0.2,0-0.2c0,0,0-0.1,0-0.1c0-0.1,0-0.1,0-0.2
				c0,0,0.1-0.1,0-0.1c0-0.1,0-0.2,0-0.2c0,0,0.1-0.1,0-0.1c0-0.1,0-0.1,0-0.2c0,0,0.1-0.1,0-0.1c0-0.1,0-0.1,0-0.2c0,0,0-0.1,0-0.1
				c0-0.1,0-0.2,0-0.2c0,0,0-0.1,0-0.1c0-0.1,0-0.2,0-0.2c0,0,0-0.1,0-0.1c0-0.1,0-0.2,0-0.2c0,0,0.1-0.1,0-0.1c0-0.1,0-0.1,0-0.2
				c0,0,0-0.1,0-0.1c0-0.1,0-0.2,0-0.2c0,0,0.1-0.1,0-0.1c-1.6-7.9-2.4-11.8-4-19.7c-0.1-0.5-1-1-2.3-1.3c9.8,0,17.4,0,25,0
				c-1.1,0.3-1.8,0.7-1.7,1.3c0,0.1,0,0.1,0,0.2c0,0.1-0.1,0.1,0,0.1c0,0.1,0,0.1,0.1,0.2c0,0-0.1,0.1-0.1,0.1c0,0.1,0,0.1,0,0.2
				c0,0.1-0.1,0.1,0,0.1c0,0.1,0,0.1,0,0.2c0,0.1-0.1,0.1,0,0.1c0,0.1,0,0.1,0.1,0.2c0,0-0.1,0.1-0.1,0.2c0,0.1,0,0.1,0.1,0.2
				c0,0-0.1,0.1-0.1,0.1c0,0.1,0,0.1,0.1,0.2c0,0-0.1,0.1-0.1,0.1c0,0.1,0,0.1,0,0.2c0,0-0.1,0.1,0,0.1c0,0.1,0,0.1,0.1,0.2
				c0,0-0.1,0.1-0.1,0.1c0,0.1,0,0.1,0,0.2c0,0.1-0.1,0.1,0,0.2c0,0.1,0,0.1,0,0.2c0,0.1-0.1,0.1,0,0.1c0,0.1,0,0.1,0.1,0.2
				c0,0.1-0.1,0.1-0.1,0.2c0,0.1,0,0.1,0,0.2c0,0-0.1,0.1,0,0.1c0,0.1,0,0.1,0.1,0.2c0,0-0.1,0.1-0.1,0.1c0,0.1,0,0.1,0.1,0.2
				c0,0-0.1,0.1-0.1,0.1c0,0.1,0,0.1,0,0.2c0,0-0.1,0.1,0,0.1c0,0.1,0,0.1,0.1,0.2c0,0-0.1,0.1-0.1,0.1c0,0.1,0,0.1,0,0.2
				c0,0.1-0.1,0.1,0,0.1c0,0.1,0,0.1,0,0.2c0,0.1-0.1,0.1,0,0.1c0,0.1,0,0.1,0.1,0.2c0,0.1-0.1,0.1-0.1,0.1c0,0.1,0,0.1,0,0.2
				c0,0.1-0.1,0.1,0,0.1c1.8,7.9,2.7,11.8,4.5,19.7c0.2,0.9,2.4,1.6,4.9,1.6c1.2,0,2.3,0,3.4,0c-2.4,0.1-4.1,0.7-3.9,1.5
				c0,0.1,0,0.1,0,0.2c0,0.1-0.1,0.1,0,0.1c0,0.1,0,0.1,0,0.2c0,0-0.1,0.1,0,0.1c0,0.1,0,0.1,0,0.2c0,0.1-0.1,0.1,0,0.1
				c0,0.1,0,0.1,0,0.2c0,0-0.1,0.1,0,0.1c0,0.1,0,0.1,0,0.2c0,0-0.1,0.1,0,0.1c0,0.1,0,0.1,0,0.2c0,0-0.1,0.1,0,0.1
				c0,0.1,0,0.1,0,0.2c0,0.1-0.1,0.1,0,0.1c0,0.1,0,0.1,0,0.2c0,0-0.1,0.1,0,0.1c0,0.1,0,0.1,0,0.2c0,0-0.1,0.1,0,0.1
				c0,0.1,0,0.1,0,0.2c0,0-0.1,0.1,0,0.1c0,0.1,0,0.1,0,0.2c0,0-0.1,0.1,0,0.1c0,0.1,0,0.1,0,0.2c0,0-0.1,0.1,0,0.1
				c0,0.1,0,0.1,0,0.2c0,0-0.1,0.1,0,0.1c0,0.1,0,0.1,0,0.2c0,0-0.1,0.1,0,0.1c0,0.1,0,0.1,0,0.2c0,0.1-0.1,0.1,0,0.1
				c0,0.1,0,0.1,0,0.2c0,0-0.1,0.1,0,0.1c0,0.1,0,0.1,0,0.2c0,0-0.1,0.1,0,0.1c0,0.1,0,0.1,0,0.2c0,0-0.1,0.1,0,0.1
				c0,0.1,0,0.1,0,0.2c0,0-0.1,0.1,0,0.1c0,0.1,0,0.1,0,0.2c0,0.1-0.1,0.1,0,0.1c0,0.1,0,0.1,0,0.2c0,0.1-0.1,0.1,0,0.1
				c1.8,7.9,2.8,11.8,4.6,19.7c0.2,0.9,2.5,1.6,5.1,1.6c24,0,35.9,0,59.9,0c2.6,0,4.5-0.7,4.2-1.6c0-0.1,0-0.1-0.1-0.2
				c0-0.1,0.1-0.1,0.1-0.2c0-0.1,0-0.1-0.1-0.2c0-0.1,0.1-0.1,0.1-0.2c0-0.1,0-0.1-0.1-0.2c0-0.1,0.1-0.1,0.1-0.2
				c0-0.1,0-0.1-0.1-0.2c0-0.1,0.1-0.1,0.1-0.2c0-0.1,0-0.1-0.1-0.2c0-0.1,0.1-0.1,0.1-0.2c0-0.1,0-0.1-0.1-0.2
				c0-0.1,0.1-0.1,0.1-0.2c0-0.1,0-0.1-0.1-0.2c0-0.1,0.1-0.1,0.1-0.2c0-0.1,0-0.1-0.1-0.2c0-0.1,0.1-0.1,0.1-0.2
				c0-0.1,0-0.1-0.1-0.2c0-0.1,0.1-0.1,0.1-0.2c0-0.1,0-0.1-0.1-0.2c0-0.1,0.1-0.1,0.1-0.2c0-0.1,0-0.1-0.1-0.2
				c0-0.1,0.1-0.1,0.1-0.2c0-0.1,0-0.1-0.1-0.2c0-0.1,0.1-0.1,0.1-0.2c0-0.1,0-0.1-0.1-0.2c0-0.1,0.1-0.1,0.1-0.2
				c0-0.1,0-0.1-0.1-0.2c0-0.1,0.1-0.1,0.1-0.2c0-0.1,0-0.1-0.1-0.2c0-0.1,0.1-0.1,0.1-0.2c0-0.1,0-0.1-0.1-0.2
				c0-0.1,0.1-0.1,0.1-0.2c0-0.1,0-0.1-0.1-0.2c0-0.1,0.1-0.1,0.1-0.2c0-0.1,0-0.1-0.1-0.2c0-0.1,0.1-0.1,0.1-0.2
				c0-0.1,0-0.1-0.1-0.2c0-0.1,0.1-0.1,0.1-0.2c0-0.1,0-0.1-0.1-0.2c0-0.1,0.1-0.1,0.1-0.2c0-0.1,0-0.1-0.1-0.2
				c0-0.1,0.1-0.1,0.1-0.2c-2.5-7.9-3.8-11.8-6.3-19.7c-0.3-0.9-2.6-1.6-5.1-1.6c-1.3,0-2.6,0-3.9,0c2.3-0.1,3.9-0.7,3.7-1.5
				c0-0.1,0-0.1,0-0.2c0-0.1,0.1-0.1,0-0.2c0,0,0-0.1,0-0.2c0-0.1,0.1-0.1,0-0.2c0,0,0-0.1,0-0.2c0-0.1,0.1-0.1,0-0.2
				c0-0.1,0-0.1,0-0.2c0-0.1,0.1-0.1,0-0.2c0-0.1,0-0.1,0-0.2c0-0.1,0.1-0.1,0-0.2c0-0.1,0-0.1,0-0.2c0-0.1,0.1-0.1,0-0.2
				c0-0.1,0-0.1-0.1-0.2c0-0.1,0.1-0.1,0.1-0.2c0-0.1,0-0.1,0-0.2c0-0.1,0.1-0.1,0-0.2c0-0.1,0-0.1,0-0.2c0-0.1,0.1-0.1,0-0.2
				c0-0.1,0-0.1,0-0.2c0-0.1,0.1-0.1,0-0.2c0-0.1,0-0.1,0-0.2c0-0.1,0.1-0.1,0-0.2c0-0.1,0-0.1,0-0.2c0-0.1,0.1-0.1,0-0.2
				c0-0.1,0-0.1,0-0.2c0-0.1,0.1-0.1,0-0.2c0-0.1,0-0.1,0-0.2c0-0.1,0.1-0.1,0-0.2c0-0.1,0-0.1,0-0.2c0-0.1,0.1-0.1,0-0.2
				c0-0.1,0-0.1,0-0.2c0-0.1,0.1-0.1,0-0.2c0-0.1,0-0.1-0.1-0.2c0-0.1,0.1-0.1,0.1-0.2c0-0.1,0-0.1-0.1-0.2c0-0.1,0.1-0.1,0.1-0.2
				c0-0.1,0-0.1,0-0.2c0-0.1,0.1-0.1,0-0.2c0-0.1,0-0.1,0-0.2c0-0.1,0.1-0.1,0-0.2c0-0.1,0-0.1,0-0.2c0-0.1,0.1-0.1,0-0.2
				c-2.5-7.9-3.7-11.8-6.2-19.7c-0.2-0.5-1.1-1-2.4-1.3c9.7,0,17.4,0,25,0c-1.1,0.3-1.7,0.7-1.6,1.3c0,0,0,0.1,0,0.1
				c0,0.1-0.1,0.1,0,0.2c0,0,0,0.1,0,0.1c0,0.1-0.1,0.1,0,0.2c0,0,0,0.1,0,0.1c0,0.1-0.1,0.1,0,0.2c0,0,0,0.1,0,0.1
				c0,0.1-0.1,0.1,0,0.2c0,0.1,0,0.1,0,0.1c0,0.1-0.1,0.1,0,0.2c0,0,0,0.1,0,0.1c0,0.1-0.1,0.1,0,0.2c0,0,0,0.1,0,0.1
				c0,0.1-0.1,0.1-0.1,0.2c0,0.1,0,0.1,0.1,0.1c0,0.1-0.1,0.1,0,0.2c0,0,0,0.1,0,0.1c0,0.1-0.1,0.1,0,0.2c0,0.1,0,0.1,0,0.1
				c0,0.1-0.1,0.1,0,0.2c0,0,0,0.1,0,0.1c0,0.1-0.1,0.1,0,0.2c0,0.1,0,0.1,0,0.1c0,0.1-0.1,0.1,0,0.2c0,0,0,0.1,0,0.1
				c0,0.1-0.1,0.1,0,0.2c0,0,0,0.1,0,0.1c0,0.1-0.1,0.1-0.1,0.2c0,0.1,0,0.1,0.1,0.2c0,0.1-0.1,0.1,0,0.2c0,0.1,0,0.1,0,0.1
				c0,0.1-0.1,0.1,0,0.2c0,0.1,0,0.1,0,0.2c0,0.1-0.1,0.1,0,0.2c0,0,0,0.1,0,0.1c0,0.1-0.1,0.1,0,0.2c0,0.1,0,0.1,0,0.1
				c0,0.1-0.1,0.1,0,0.2c0,0,0,0.1,0,0.1c0,0.1-0.1,0.1,0,0.2c0,0.1,0,0.1,0,0.1c0,0.1-0.1,0.1,0,0.2c2.7,7.9,4.1,11.8,6.8,19.7
				c0.3,0.9,2.6,1.6,5.1,1.6c1.4,0,2.8,0,4.1,0c-2.3,0.1-3.9,0.7-3.7,1.5c0,0.1,0,0.1,0,0.1c0,0.1-0.1,0.1,0,0.2c0,0,0,0.1,0,0.1
				c0,0.1-0.1,0.1,0,0.2c0,0.1,0,0.1,0,0.1c0,0.1-0.1,0.1,0,0.2c0,0,0,0.1,0,0.1c0,0.1-0.1,0.1,0,0.2c0,0,0,0.1,0,0.1
				c0,0.1-0.1,0.1,0,0.2c0,0.1,0,0.1,0,0.2c0,0.1-0.1,0.1,0,0.2c0,0.1,0,0.1,0,0.1c0,0.1-0.1,0.1,0,0.2c0,0.1,0,0.1,0,0.1
				c0,0.1-0.1,0.1,0,0.2c0,0.1,0,0.1,0,0.1c0,0.1-0.1,0.1,0,0.2c0,0,0,0.1,0,0.2c0,0.1-0.1,0.1,0,0.2c0,0.1,0,0.1,0,0.1
				c0,0.1-0.1,0.1,0,0.2c0,0.1,0,0.1,0,0.2c0,0.1-0.1,0.1,0,0.2c0,0.1,0,0.1,0,0.2c0,0.1-0.1,0.1,0,0.2c0,0.1,0,0.1,0,0.1
				c0,0.1-0.1,0.1,0,0.2c0,0,0,0.1,0,0.1c0,0.1-0.1,0.1,0,0.2c0,0.1,0,0.1,0,0.1c0,0.1-0.1,0.1,0,0.2c0,0,0,0.1,0,0.2
				c0,0.1-0.1,0.1,0,0.2c0,0.1,0,0.1,0,0.2c0,0.1-0.1,0.1,0,0.2c0,0.1,0,0.1,0,0.2c0,0.1-0.1,0.1-0.1,0.2c0,0.1,0,0.1,0.1,0.2
				c0,0.1-0.1,0.1,0,0.2c0,0.1,0,0.1,0,0.1c0,0.1-0.1,0.1,0,0.2c2.7,7.9,4.1,11.8,6.8,19.7c0.3,0.9,2.7,1.6,5.3,1.6
				c23.9,0,35.9,0,59.9,0c2.6,0,4.4-0.7,4-1.6c0,0,0-0.1,0-0.1c0-0.1,0.1-0.2,0-0.2c0,0,0-0.1,0-0.1c0-0.1,0.1-0.2,0-0.3
				c0,0,0-0.1,0-0.1c0-0.1,0.1-0.2,0-0.3c0,0,0-0.1,0-0.1c0-0.1,0.1-0.1,0-0.2c0,0,0-0.1,0-0.1c0-0.1,0.1-0.2,0-0.3c0,0,0-0.1,0-0.1
				c0-0.1,0.1-0.2,0-0.3c0,0,0-0.1,0-0.1c0-0.1,0.1-0.2,0-0.3c0,0,0-0.1,0-0.1c0-0.1,0.1-0.2,0-0.3c0,0,0-0.1,0-0.1
				c0-0.1,0.1-0.1,0-0.3c0,0,0-0.1,0-0.1c0-0.1,0.1-0.2,0-0.3c0,0,0-0.1,0-0.1c0-0.1,0.1-0.2,0-0.3c0,0,0-0.1,0-0.1
				c0-0.1,0.1-0.2,0-0.3c0,0,0-0.1,0-0.1c0-0.1,0.1-0.2,0-0.2c0,0,0-0.1,0-0.1c0-0.1,0.1-0.2,0-0.2c0,0,0-0.1,0-0.1
				c0-0.1,0.1-0.2,0-0.3c0,0,0-0.1,0-0.1c0-0.1,0.1-0.2,0-0.2c0,0,0-0.1,0-0.1c0-0.1,0.1-0.2,0-0.3c0,0,0-0.1,0-0.1
				c0-0.1,0.1-0.2,0-0.2c0,0,0-0.1,0-0.1c0-0.1,0.1-0.2,0-0.2c0,0,0-0.1,0-0.1c0-0.1,0.1-0.2,0-0.2c0,0,0-0.1,0-0.1
				c0-0.1,0.1-0.2,0-0.3c-3.4-7.9-5.1-11.8-8.5-19.7c-0.4-0.9-2.7-1.6-5.3-1.6c-1.6,0-3.2,0-4.7,0c2.3-0.1,3.8-0.7,3.5-1.5
				c0,0,0-0.1,0-0.1c0-0.1,0.1-0.2,0-0.3c0,0,0-0.1,0-0.1c0-0.1,0.1-0.2,0-0.3c0,0,0,0,0-0.1c0-0.1,0.1-0.2,0-0.3c0,0,0-0.1,0-0.1
				c0-0.1,0.1-0.2,0-0.3c0,0,0-0.1,0-0.1c0-0.1,0.1-0.2,0-0.3c0,0,0-0.1,0-0.1c0-0.1,0.1-0.2,0-0.3c0,0,0-0.1,0-0.1
				c0-0.1,0.1-0.2,0-0.3c0,0,0-0.1,0-0.1c0-0.1,0.1-0.2,0-0.3c0,0,0-0.1,0-0.1c0-0.1,0.1-0.2,0-0.3c0,0,0-0.1,0-0.1
				c0-0.1,0.1-0.2,0-0.3c0,0,0-0.1,0-0.1c0-0.1,0.1-0.2,0-0.3c0,0,0-0.1,0-0.1c0-0.1,0.1-0.2,0-0.3c0,0,0-0.1,0-0.1
				c0-0.1,0.1-0.2,0-0.3c0,0,0-0.1,0-0.1c0-0.1,0.1-0.2,0-0.3c0,0,0-0.1,0-0.1c0-0.1,0.1-0.2,0-0.3c0,0,0-0.1,0-0.1
				c0-0.1,0.1-0.2,0-0.3c0,0,0-0.1,0-0.1c0-0.1,0.1-0.2,0-0.3c0,0,0-0.1,0-0.1c0-0.1,0.1-0.2,0-0.3c0,0,0-0.1,0-0.1
				c0-0.1,0.1-0.2,0-0.3c0,0,0-0.1,0-0.1c0-0.1,0.1-0.2,0-0.2c0,0,0-0.1,0-0.1c0-0.1,0.1-0.2,0-0.3c-3.4-7.9-5.1-11.8-8.5-19.7
				c-0.2-0.5-1.2-1-2.5-1.3c9.7,0,17.3,0,25,0c-1.1,0.3-1.7,0.7-1.4,1.3c0,0,0,0,0,0.1c0,0.1-0.1,0.2,0,0.3c0,0,0,0,0,0.1
				c0,0.1-0.1,0.2,0,0.3c0,0,0,0,0,0.1c0,0.1-0.1,0.2,0,0.3c0,0,0,0,0,0.1c0,0.1-0.1,0.2,0,0.3c0,0,0,0,0,0.1c0,0.1-0.1,0.2,0,0.3
				c0,0,0,0,0,0.1c0,0.1-0.1,0.2,0,0.3c0,0,0,0,0,0.1c0,0.1-0.1,0.2,0,0.3c0,0,0,0.1,0,0.1c0,0.1-0.1,0.2,0,0.3c0,0,0,0,0,0.1
				c0,0.1-0.1,0.2,0,0.3c0,0,0,0.1,0,0.1c0,0.1-0.1,0.2,0,0.3c0,0,0,0,0,0.1c0,0.1-0.1,0.2,0,0.3c0,0,0,0,0,0.1c0,0.1-0.1,0.2,0,0.3
				c0,0,0,0,0,0.1c0,0.1-0.1,0.2,0,0.3c0,0,0,0,0,0.1c0,0.1-0.1,0.2,0,0.3c0,0,0,0.1,0,0.1c0,0.1-0.1,0.2,0,0.3c0,0,0,0.1,0,0.1
				c0,0.1-0.1,0.2,0,0.3c0,0,0,0.1,0,0.1c0,0.1-0.1,0.2,0,0.3c0,0,0,0,0,0.1c0,0.1-0.1,0.2,0,0.3c0,0,0,0.1,0,0.1
				c0,0.1-0.1,0.2,0,0.3c0,0,0,0,0,0.1c0,0.1-0.1,0.2,0,0.3c0,0,0,0,0,0.1c0,0.1-0.1,0.2,0,0.3c3.6,7.9,5.4,11.8,9,19.7
				c0.4,0.9,2.8,1.6,5.3,1.6c1.8,0,3.4,0,5,0c-2.3,0.1-3.9,0.7-3.5,1.5c0,0,0,0.1,0,0.1c0,0.1-0.1,0.2,0,0.3c0,0,0,0,0,0.1
				c0,0.1-0.1,0.2,0,0.3c0,0,0,0.1,0,0.1c0,0.1-0.1,0.2,0,0.3c0,0,0,0,0,0.1c0,0.1-0.1,0.2,0,0.3c0,0,0,0,0,0.1c0,0.1-0.1,0.2,0,0.3
				c0,0,0,0.1,0,0.1c0,0.1-0.1,0.2,0,0.3c0,0,0,0.1,0,0.1c0,0.1-0.1,0.2,0,0.3c0,0,0,0.1,0,0.1c0,0.1-0.1,0.2,0,0.3c0,0,0,0.1,0,0.1
				c0,0.1-0.1,0.2,0,0.3c0,0,0,0,0,0.1c0,0.1-0.1,0.2,0,0.3c0,0,0,0.1,0,0.1c0,0.1-0.1,0.2,0,0.3c0,0,0,0.1,0,0.1
				c0,0.1-0.1,0.2,0,0.3c0,0,0,0.1,0,0.1c0,0.1-0.1,0.2,0,0.3c0,0,0,0.1,0,0.1c0,0.1-0.1,0.2,0,0.3c0,0,0,0.1,0,0.1
				c0,0.1-0.1,0.2,0,0.3c0,0,0,0.1,0,0.1c0,0.1-0.1,0.2,0,0.3c0,0,0,0,0,0.1c0,0.1-0.1,0.2,0,0.3c0,0,0,0.1,0,0.1
				c0,0.1-0.1,0.2,0,0.3c0,0,0,0.1,0,0.1c0,0.1-0.1,0.2,0,0.3c0,0,0,0.1,0,0.1c0,0.1-0.1,0.2,0,0.3c0,0,0,0.1,0,0.1
				c0,0.1-0.1,0.2,0,0.3c3.6,7.9,5.5,11.8,9.1,19.7c0.4,0.9,2.8,1.6,5.5,1.6c24,0,35.9,0,59.9,0c2.6,0,4.4-0.7,3.9-1.6c0,0,0,0,0,0
				c0-0.1,0.1-0.2,0-0.3c0,0,0,0,0,0c0-0.1,0.1-0.2,0-0.3c0,0,0,0,0,0c0-0.1,0.1-0.2,0-0.3c0,0,0,0,0,0c0-0.1,0.1-0.2,0-0.3
				c0,0,0,0,0,0c0-0.1,0.1-0.2,0-0.3c0,0,0,0,0,0c0-0.1,0.1-0.2,0-0.3c0,0,0,0,0,0c0-0.1,0.1-0.2,0-0.3c0,0,0,0,0,0
				c0-0.1,0.1-0.2,0-0.3c0,0,0,0,0,0c0-0.1,0.1-0.2,0-0.3c0,0,0,0,0,0c0-0.1,0.1-0.2,0-0.3c0,0,0,0,0,0c0-0.1,0.1-0.2,0-0.3
				c0,0,0,0,0,0c0-0.1,0.1-0.2,0-0.3c0,0,0,0,0,0c0-0.1,0.1-0.2,0-0.3c0,0,0,0,0,0c0-0.1,0.1-0.2,0-0.3c0,0,0,0,0,0
				c0-0.1,0.1-0.2,0-0.3c0,0,0,0,0,0c0-0.1,0.1-0.2,0-0.3c0,0,0,0,0,0c0-0.1,0.1-0.2,0-0.3c0,0,0,0,0,0c0-0.1,0.1-0.2,0-0.3
				c0,0,0,0,0,0c0-0.1,0.1-0.2,0-0.3c0,0,0,0,0,0c0-0.1,0.1-0.2,0-0.3c0,0,0,0,0,0c0-0.1,0.1-0.2,0-0.3c-4.3-7.9-6.5-11.8-10.8-19.7
				c-0.5-0.9-2.9-1.6-5.4-1.6c-2,0-3.8,0-5.6,0c2.3-0.1,3.8-0.7,3.3-1.5c0,0,0,0,0,0c0-0.1,0.1-0.2,0-0.3c0,0,0,0,0,0
				c0-0.1,0.1-0.2,0-0.3c0,0,0,0,0,0c0-0.1,0.1-0.2,0-0.3c0,0,0,0,0,0c0-0.1,0.1-0.2,0-0.3c0,0,0,0,0,0c0-0.1,0.1-0.2,0-0.3
				c0,0,0,0,0,0c0-0.1,0.1-0.2,0-0.3c0,0,0,0,0,0c0-0.1,0.1-0.2,0-0.3c0,0,0,0,0,0c0-0.1,0.1-0.2,0-0.3c0,0,0,0,0,0
				c0-0.1,0.1-0.2,0-0.3c0,0,0,0,0,0c0-0.1,0.1-0.2,0-0.3c0,0,0,0,0,0c0-0.1,0.1-0.2,0-0.3c0,0,0,0,0,0c0-0.1,0.1-0.2,0-0.3
				c0,0,0,0,0,0c0-0.1,0.1-0.2,0-0.3c0,0,0,0,0,0c0-0.1,0.1-0.2,0-0.3c0,0,0,0,0,0c0-0.1,0.1-0.2,0-0.3c0,0,0,0,0,0
				c0-0.1,0.1-0.2,0-0.3c0,0,0,0,0,0c0-0.1,0.1-0.2,0-0.3c0,0,0,0,0,0c0-0.1,0.1-0.2,0-0.3c0,0,0,0,0,0c0-0.1,0.1-0.2,0-0.3
				c0,0,0,0,0,0c0-0.1,0.1-0.2,0-0.3c0,0,0,0,0,0c0-0.1,0.1-0.2,0-0.3c-4.3-7.9-6.5-11.8-10.7-19.7c-0.3-0.5-1.4-1-2.7-1.3
				c9.6,0,17.2,0,24.9,0c-0.8,0.2-1.3,0.6-1.3,1c-0.1,0.1,0,0.2,0,0.4c-0.1,0.1,0,0.2,0,0.4c-0.1,0.1,0,0.2,0,0.4
				c-0.1,0.2-0.1,0.4,0,0.6l0,0c0,0,0,0.1,0,0.1c-0.1,0.1,0,0.2,0,0.3c-0.1,0.2-0.1,0.4,0,0.6v0c0,0,0,0.1,0,0.1
				c-0.1,0.1,0,0.2,0,0.4c-0.1,0.1,0,0.2,0,0.4c-0.1,0.1,0,0.2,0,0.4c-0.1,0.1,0,0.2,0,0.4c-0.1,0.1,0,0.2,0,0.4
				c-0.1,0.2-0.1,0.4,0,0.6l0,0c0,0,0,0.1,0,0.1c-0.1,0.1,0,0.2,0,0.4c-0.1,0.1,0,0.2,0,0.4c-0.1,0.1,0,0.2,0,0.4
				c-0.1,0.1,0,0.2,0,0.4c-0.1,0.1,0,0.2,0,0.4c-0.1,0.2-0.1,0.4,0,0.6c4.5,7.9,6.8,11.8,11.3,19.7c0.5,0.9,2.9,1.6,5.4,1.6
				c2.1,0,4,0,5.9,0c-2.3,0.1-3.8,0.7-3.3,1.5c0,0,0,0,0,0c0,0.1-0.1,0.2,0,0.3v0c0,0.1-0.1,0.2,0,0.3v0c0,0.1-0.1,0.2,0,0.3v0
				c0,0.1-0.1,0.2,0,0.4v0c0,0.1-0.1,0.2,0,0.3c0,0,0,0,0,0c0,0.1-0.1,0.2,0,0.3c0,0,0,0,0,0c0,0.1-0.1,0.2,0,0.3v0
				c0,0.1-0.1,0.2,0,0.3v0c0,0.1-0.1,0.2,0,0.3c0,0,0,0,0,0c0,0.1-0.1,0.2,0,0.3v0c0,0.1-0.1,0.2,0,0.3c0,0,0,0,0,0
				c0,0.1-0.1,0.2,0,0.3c0,0,0,0,0,0c0,0.1-0.1,0.2,0,0.3v0c0,0.1-0.1,0.2,0,0.3v0c0,0.1-0.1,0.2,0,0.3c0,0,0,0,0,0
				c0,0.1-0.1,0.2,0,0.3v0c0,0.1-0.1,0.2,0,0.4c0,0,0,0,0,0c0,0.1-0.1,0.2,0,0.3v0c0,0.1-0.1,0.2,0,0.3v0c0,0.1-0.1,0.2,0,0.3
				c0,0,0,0,0,0c0,0.1-0.1,0.2,0,0.3c4.5,7.9,6.8,11.8,11.3,19.7c0.5,0.9,3,1.6,5.6,1.6c24,0,35.9,0,59.9,0c2.3,0,3.8-0.6,3.7-1.3
				c0.1-0.1,0-0.2,0-0.4c0.1-0.1,0-0.2,0-0.4c0.1-0.1,0-0.2,0-0.4c0.1-0.1,0-0.2,0-0.4c0.1-0.1,0-0.2,0-0.4c0.1-0.1,0-0.2,0-0.4
				c0.1-0.1,0-0.2,0-0.4c0.1-0.1,0-0.2,0-0.4c0.1-0.1,0-0.2,0-0.4c0.1-0.1,0-0.2,0-0.4c0.1-0.1,0-0.2,0-0.4c0.1-0.1,0-0.2,0-0.4
				c0.1-0.1,0-0.2,0-0.4c0.1-0.1,0-0.2,0-0.4c0.1-0.1,0-0.2,0-0.4c0.1-0.1,0-0.2,0-0.4c0.1-0.1,0-0.2,0-0.4c0.1-0.1,0-0.2,0-0.4
				c0.1-0.1,0-0.2,0-0.4c0.1-0.1,0-0.2,0-0.4c0.1-0.2,0.1-0.4,0-0.6c-5.2-7.9-7.8-11.8-13-19.7c-0.6-0.9-3.1-1.6-5.6-1.6
				c-2.3,0-4.4,0-6.4,0c2-0.1,3.3-0.6,3.2-1.3c0.1-0.1,0-0.2,0-0.4c0.1-0.1,0-0.2,0-0.4c0.1-0.1,0-0.2,0-0.3c0.1-0.1,0-0.2,0-0.4
				c0.1-0.1,0-0.2,0-0.4c0.1-0.1,0-0.2,0-0.4c0.1-0.1,0-0.2,0-0.4c0.1-0.1,0-0.2,0-0.4c0.1-0.1,0-0.2,0-0.4c0.1-0.1,0-0.2,0-0.4
				c0.1-0.1,0-0.2,0-0.3c0.1-0.1,0-0.2,0-0.4c0.1-0.1,0-0.2,0-0.4c0.1-0.1,0-0.2,0-0.4c0.1-0.1,0-0.2,0-0.4c0.1-0.1,0-0.2,0-0.4
				c0.1-0.1,0-0.2,0-0.4c0.1-0.1,0-0.2,0-0.4c0.1-0.1,0-0.2,0-0.4c0.1-0.1,0-0.2,0-0.4c0.1-0.2,0.1-0.4,0-0.6
				c-5.2-7.9-7.8-11.8-13-19.7c-0.4-0.5-1.5-1-2.8-1.3c15,0,25.6,0,43.4,0c2.1,0,3.4-0.5,3.3-1.3c0.1-0.1,0-0.2,0-0.4
				c0.1-0.1,0-0.2,0-0.4c0.1-0.1,0-0.2,0-0.4c0.1-0.1,0-0.2,0-0.4c0.1-0.1,0-0.2,0-0.4c0.1-0.1,0-0.2,0-0.4c0.1-0.1,0-0.2,0-0.4
				c0.1-0.1,0-0.2,0-0.4c0.1-0.1,0-0.2,0-0.4c0.1-0.1,0-0.2,0-0.4c0.1-0.1,0-0.2,0-0.3c0.1-0.1,0-0.2,0-0.4c0.1-0.1,0-0.2,0-0.4
				c0.1-0.1,0-0.2,0-0.4c0.1-0.1,0-0.2,0-0.4c0.1-0.1,0-0.2,0-0.3C1349.3,915.4,1349.3,915.3,1349.2,915.1z M1271,921.2
				c0.1-0.1,0-0.2,0-0.3c0.1-0.1,0-0.2,0-0.4c0.1-0.1,0-0.2,0-0.4c0.1-0.1,0-0.2,0-0.4c0.1-0.1,0-0.2,0-0.4c0.1-0.1,0-0.2,0-0.4
				c0.1-0.1,0-0.2,0-0.4c0.1-0.1,0-0.2,0-0.4c0.1-0.1,0-0.2,0-0.4c0.1-0.1,0-0.2,0-0.4c0.1-0.1,0-0.2,0-0.3c0.1-0.1,0-0.2,0-0.4
				c0.1-0.1,0-0.2,0-0.4c0.1-0.1,0-0.2,0-0.4c0.1-0.1,0-0.2,0-0.3c0.1-0.1,0-0.2,0-0.4c0.1-0.1,0-0.2,0-0.4c0.1-0.1,0-0.2,0-0.4
				c0.1-0.1,0-0.2,0-0.4c0.1-0.1,0-0.2,0-0.3c0.1-0.2,0.1-0.4,0-0.6c-4.9-7.9-7.4-11.8-12.3-19.7c-0.2-0.3-0.7-0.6-1.3-0.9
				c4.7,0,9.6,0,15.4,0c-0.2,0.2-0.3,0.4-0.3,0.6c-0.1,0.1,0,0.2,0,0.4c-0.1,0.1,0,0.2,0,0.3c-0.1,0.1,0,0.3,0,0.4
				c-0.1,0.1,0,0.2,0,0.4c-0.1,0.1,0,0.2,0,0.4c-0.1,0.1,0,0.2,0,0.4c-0.1,0.1,0,0.2,0,0.4c-0.1,0.1,0,0.2,0,0.4
				c-0.1,0.1,0,0.2,0,0.4c-0.1,0.1,0,0.2,0,0.4c-0.1,0.1,0,0.2,0,0.4c-0.1,0.1,0,0.2,0,0.4c-0.1,0.1,0,0.2,0,0.3
				c-0.1,0.1,0,0.2,0,0.4c-0.1,0.1,0,0.2,0,0.4c-0.1,0.1,0,0.2,0,0.4c-0.1,0.1,0,0.2,0,0.4c-0.1,0.1,0,0.2,0,0.4
				c-0.1,0.1,0,0.2,0,0.4c-0.1,0.1,0,0.2,0,0.3c-0.1,0.2-0.1,0.4,0,0.6c5.1,7.9,7.6,11.8,12.6,19.7c0.3,0.5,1.5,1,2.8,1.3
				c-6.6,0-12.3,0-18.2,0C1270.6,921.9,1271.1,921.6,1271,921.2z M1114,893.7C1114,893.7,1114,893.7,1114,893.7c0,0.2,0,0.3,0,0.4
				c0,0,0,0.1,0,0.1c0,0.1-0.1,0.2,0,0.3c0,0,0,0.1,0,0.1c0,0.1-0.1,0.2,0,0.3c0,0,0,0.1,0,0.1c0,0.1-0.1,0.2,0,0.3c0,0,0,0.1,0,0.1
				c0,0.1-0.1,0.2,0,0.3c0,0,0,0.1,0,0.1c0,0.1-0.1,0.2,0,0.3c0,0,0,0.1,0,0.1c0,0.1-0.1,0.2,0,0.3c0,0,0,0,0,0.1
				c0,0.1-0.1,0.2,0,0.3c0,0,0,0,0,0.1c0,0.1-0.1,0.2,0,0.3c0,0,0,0.1,0,0.1c0,0.1-0.1,0.2,0,0.3c0,0,0,0.1,0,0.1
				c0,0.1-0.1,0.2,0,0.3c0,0,0,0.1,0,0.1c0,0.1-0.1,0.2,0,0.3c0,0,0,0.1,0,0.1c0,0.1-0.1,0.2,0,0.3c0,0,0,0.1,0,0.1
				c0,0.1-0.1,0.2,0,0.3c0,0,0,0.1,0,0.1c0,0.1-0.1,0.2,0,0.3c0,0,0,0,0,0.1c0,0.1-0.1,0.2,0,0.3c0,0,0,0.1,0,0.1
				c0,0.1-0.1,0.2,0,0.3c0,0,0,0,0,0.1c0,0.1-0.1,0.2,0,0.3c0,0,0,0.1,0,0.1c0,0.1-0.1,0.2,0,0.3c0,0,0,0.1,0,0.1
				c0,0.1-0.1,0.2,0,0.3c0,0,0,0.1,0,0.1c0,0.1-0.1,0.2,0,0.3c3.3,7.9,5,11.8,8.3,19.7c0.2,0.5,1.2,1,2.5,1.3c-9.6,0-17.1,0-24.7,0
				c1-0.3,1.7-0.7,1.5-1.3c0,0,0-0.1,0-0.1c0-0.1,0.1-0.2,0-0.2c0,0,0-0.1,0-0.1c0-0.1,0.1-0.2,0-0.3c0,0,0-0.1,0-0.1
				c0-0.1,0.1-0.2,0-0.2c0,0,0-0.1,0-0.1c0-0.1,0.1-0.2,0-0.2c0,0,0-0.1,0-0.1c0-0.1,0.1-0.2,0-0.2c0,0,0-0.1,0-0.1
				c0-0.1,0.1-0.2,0-0.2c0,0,0-0.1,0-0.1c0-0.1,0.1-0.2,0-0.2c0,0,0-0.1,0-0.1c0-0.1,0.1-0.2,0-0.2c0,0,0-0.1,0-0.1
				c0-0.1,0.1-0.2,0-0.2c0,0,0-0.1,0-0.1c0-0.1,0.1-0.2,0-0.3c0,0,0-0.1,0-0.1c0-0.1,0.1-0.2,0-0.3c0,0,0-0.1,0-0.1
				c0-0.1,0.1-0.2,0-0.2c0,0,0-0.1,0-0.1c0-0.1,0.1-0.2,0-0.2c0,0,0-0.1,0-0.1c0-0.1,0.1-0.2,0-0.2c0,0,0-0.1,0-0.1
				c0-0.1,0.1-0.2,0-0.2c0,0,0-0.1,0-0.1c0-0.1,0.1-0.2,0-0.3c0,0,0-0.1,0-0.1c0-0.1,0.1-0.2,0-0.2c0,0,0-0.1,0-0.1
				c0-0.1,0.1-0.2,0-0.3c0,0,0-0.1,0-0.1c0-0.1,0.1-0.2,0-0.2c0,0,0-0.1,0-0.1c0-0.1,0.1-0.2,0-0.2c0,0,0-0.1,0-0.1
				c0-0.1,0.1-0.2,0-0.3c-3.1-7.9-4.6-11.8-7.7-19.7c-0.1-0.3-0.6-0.6-1.1-0.9c6,0,12.4,0,20.2,0c0.6,0,1.2-0.1,1.7-0.2
				C1114.1,893,1113.8,893.3,1114,893.7z M1031.5,893.7c0,0.1,0,0.1,0,0.2c0,0.1-0.1,0.1,0,0.2c0,0.1,0,0.1,0,0.2
				c0,0.1-0.1,0.1,0,0.2c0,0.1,0,0.1,0,0.2c0,0.1-0.1,0.1,0,0.2c0,0.1,0,0.1,0,0.2c0,0.1-0.1,0.1,0,0.2c0,0.1,0,0.1,0,0.2
				c0,0.1-0.1,0.1,0,0.2c0,0.1,0,0.1,0,0.2c0,0.1-0.1,0.1,0,0.2c0,0.1,0,0.1,0,0.2c0,0.1-0.1,0.1,0,0.2c0,0.1,0,0.1,0,0.2
				c0,0.1-0.1,0.1,0,0.2c0,0,0,0.1,0,0.2c0,0.1-0.1,0.1,0,0.2c0,0.1,0,0.1,0,0.2c0,0.1-0.1,0.1,0,0.2c0,0.1,0,0.1,0,0.2
				c0,0.1-0.1,0.1,0,0.2c0,0.1,0,0.1,0,0.2c0,0.1-0.1,0.1,0,0.2c0,0.1,0,0.1,0,0.2c0,0.1-0.1,0.1,0,0.2c0,0.1,0,0.1,0,0.2
				c0,0.1-0.1,0.1,0,0.2c0,0.1,0,0.1,0,0.2c0,0.1-0.1,0.1,0,0.2c0,0.1,0,0.1,0,0.2c0,0.1-0.1,0.1,0,0.2c0,0,0,0.1,0,0.2
				c0,0.1-0.1,0.1,0,0.2c0,0,0,0.1,0,0.2c0,0.1-0.1,0.1,0,0.2c0,0.1,0,0.1,0,0.2c0,0.1-0.1,0.1,0,0.2c0,0.1,0,0.1,0,0.2
				c0,0.1-0.1,0.1,0,0.2c0,0.1,0,0.1,0,0.2c0,0.1-0.1,0.1,0,0.2c2.4,7.9,3.6,11.8,6,19.7c0.2,0.5,1.1,1,2.4,1.3
				c-9.6,0-17.2,0-24.7,0c1.1-0.3,1.8-0.7,1.6-1.3c0-0.1,0-0.1-0.1-0.2c0-0.1,0.1-0.1,0.1-0.2c0-0.1,0-0.1-0.1-0.2
				c0-0.1,0.1-0.1,0.1-0.2c0-0.1,0-0.1-0.1-0.2c0-0.1,0.1-0.1,0.1-0.2c0-0.1,0-0.1-0.1-0.2c0-0.1,0.1-0.1,0.1-0.2
				c0-0.1,0-0.1-0.1-0.2c0-0.1,0.1-0.1,0.1-0.2c0-0.1,0-0.1-0.1-0.2c0-0.1,0.1-0.1,0.1-0.2c0-0.1,0-0.1-0.1-0.2c0,0,0.1-0.1,0-0.2
				c0-0.1,0-0.1,0-0.2c0-0.1,0.1-0.1,0.1-0.2c0-0.1,0-0.1-0.1-0.2c0-0.1,0.1-0.1,0.1-0.2c0-0.1,0-0.1-0.1-0.2c0-0.1,0.1-0.1,0.1-0.2
				c0-0.1,0-0.1-0.1-0.2c0,0,0.1-0.1,0.1-0.2c0-0.1,0-0.1-0.1-0.2c0-0.1,0.1-0.1,0.1-0.2c0-0.1,0-0.1-0.1-0.2c0-0.1,0.1-0.1,0.1-0.2
				c0-0.1,0-0.1-0.1-0.2c0-0.1,0.1-0.1,0-0.2c0-0.1,0-0.1,0-0.2c0-0.1,0.1-0.1,0.1-0.2c0-0.1,0-0.1-0.1-0.2c0-0.1,0.1-0.1,0-0.2
				c0-0.1,0-0.1,0-0.2c0-0.1,0.1-0.1,0.1-0.2c0-0.1,0-0.1-0.1-0.2c0-0.1,0.1-0.1,0.1-0.2c0-0.1,0-0.1-0.1-0.2c0-0.1,0.1-0.1,0.1-0.2
				c0-0.1,0-0.1-0.1-0.2c0-0.1,0.1-0.1,0.1-0.2c0-0.1,0-0.1-0.1-0.2c0-0.1,0.1-0.1,0.1-0.2c-2.2-7.9-3.3-11.8-5.5-19.7
				c-0.1-0.3-0.5-0.6-1-0.9c6.3,0,12.9,0,21.1,0c0.3,0,0.5,0,0.7-0.1C1031.7,893,1031.4,893.3,1031.5,893.7z M784.1,893.7
				c-0.3,7.9-0.4,11.8-0.7,19.7c0,0,0,0,0,0c0,0.1,0,0.2,0,0.3c0,0,0,0,0,0c0,0.1,0,0.2,0,0.3c0,0,0,0,0,0c0,0.1,0,0.2,0,0.3
				c0,0,0,0,0,0c0,0.1,0,0.2,0,0.3c0,0,0,0,0,0c0,0.1,0,0.2,0,0.3c0,0,0,0,0,0c0,0.1,0,0.2,0,0.3c0,0,0,0,0,0c0,0.1,0,0.2,0,0.3
				c0,0,0,0,0,0c0,0.1,0,0.2,0,0.3c0,0,0,0,0,0c0,0.1,0,0.2,0,0.3c0,0,0,0,0,0c0,0.1,0,0.2,0,0.3c0,0,0,0,0,0c0,0.1,0,0.2,0,0.3
				c0,0,0,0,0,0c0,0.1,0,0.2,0,0.3c0,0,0,0,0,0c0,0.1,0,0.2,0,0.3c0,0,0,0,0,0c0,0.1,0,0.2,0,0.3c0,0,0,0,0,0c0,0.1,0,0.2,0,0.3
				c0,0,0,0,0,0c0,0.1,0,0.2,0,0.3c0,0,0,0,0,0c0,0.1,0,0.2,0,0.3c0,0,0,0,0,0c0,0.1,0,0.2,0,0.3c0,0,0,0,0,0c0,0.1,0,0.2,0,0.3
				c0,0,0,0,0,0c0,0.1,0,0.2,0,0.3c0,0,0,0,0,0c0,0.1,0,0.2,0,0.3c0,0.5,0.8,1,1.9,1.3c-9.7,0-17.3,0-24.7,0c1.2-0.3,2-0.7,2.1-1.3
				c0.5-7.9,0.8-11.8,1.3-19.7c0,0,0,0,0,0c0-0.1,0-0.2,0-0.3c0,0,0,0,0,0c0-0.1,0-0.2,0-0.3c0,0,0,0,0,0c0-0.1,0-0.2,0-0.3
				c0,0,0,0,0,0c0-0.1,0-0.2,0-0.3c0,0,0,0,0,0c0-0.1,0-0.2,0-0.3c0,0,0,0,0,0c0-0.1,0-0.2,0-0.3c0,0,0,0,0,0c0-0.1,0-0.2,0-0.3
				c0,0,0,0,0,0c0-0.1,0-0.2,0-0.3c0,0,0,0,0,0c0-0.1,0-0.2,0-0.3c0,0,0,0,0,0c0-0.1,0-0.2,0-0.3c0,0,0,0,0,0c0-0.1,0-0.2,0-0.3
				c0,0,0,0,0,0c0-0.1,0-0.2,0-0.3c0,0,0,0,0,0c0-0.1,0-0.2,0-0.3c0,0,0,0,0,0c0-0.1,0-0.2,0-0.3c0,0,0,0,0,0c0-0.1,0-0.2,0-0.3
				c0,0,0,0,0,0c0-0.1,0-0.2,0-0.3c0,0,0,0,0,0c0-0.1,0-0.2,0-0.3c0,0,0,0,0,0c0-0.1,0-0.2,0-0.3c0,0,0,0,0,0c0-0.1,0-0.2,0-0.3
				c0,0,0,0,0,0c0-0.1,0-0.2,0-0.3c0,0,0,0,0,0c0-0.1,0-0.2,0-0.3c0-0.3-0.3-0.6-0.7-0.8c6.5,0,13.3,0,21.7,0
				C784.4,893.1,784.1,893.4,784.1,893.7z M847.4,920.9c0-0.1,0-0.2,0-0.3c0,0,0,0,0,0c0-0.1,0-0.2,0-0.3c0,0,0,0,0,0
				c0-0.1,0-0.2,0-0.3c0,0,0,0,0,0c0-0.1,0-0.2,0-0.3c0,0,0,0,0,0c0-0.1,0-0.2,0-0.3c0,0,0,0,0,0c0-0.1,0-0.2,0-0.3c0,0,0,0,0,0
				c0-0.1,0-0.2,0-0.3c0,0,0,0,0,0c0-0.1,0-0.2,0-0.3c0,0,0,0,0,0c0-0.1,0-0.2,0-0.3c0,0,0,0,0,0c0-0.1,0-0.2,0-0.3c0,0,0,0,0,0
				c0-0.1,0-0.2,0-0.3c0,0,0,0,0,0c0-0.1,0-0.2,0-0.3c0,0,0,0,0,0c0-0.1,0-0.2,0-0.3c0,0,0,0,0,0c0-0.1,0-0.2,0-0.3c0,0,0,0,0,0
				c0-0.1,0-0.2,0-0.3c0,0,0,0,0,0c0-0.1,0-0.2,0-0.3c0,0,0,0,0,0c0-0.1,0-0.2,0-0.3c0,0,0,0,0,0c0-0.1,0-0.2,0-0.3c0,0,0,0,0,0
				c0-0.1,0-0.2,0-0.3c0,0,0,0,0,0c0-0.1,0-0.2,0-0.3c0,0,0,0,0,0c0-0.1,0-0.2,0-0.3c0,0,0,0,0,0c-0.4-7.9-0.6-11.8-1-19.7
				c0-0.3-0.3-0.6-0.8-0.9c6.5,0,13.3,0,21.7,0c-0.4,0.3-0.7,0.5-0.7,0.9c0,0.1,0,0.2,0,0.3c0,0,0,0,0,0c0,0.1,0,0.2,0,0.3
				c0,0,0,0,0,0.1c0,0.1,0,0.2,0,0.3c0,0,0,0,0,0c0,0.1,0,0.2,0,0.3c0,0,0,0,0,0c0,0.1,0,0.2,0,0.3c0,0,0,0,0,0c0,0.1,0,0.2,0,0.3
				c0,0,0,0,0,0c0,0.1,0,0.2,0,0.3c0,0,0,0,0,0.1c0,0.1,0,0.2,0,0.3c0,0,0,0,0,0c0,0.1,0,0.2,0,0.3c0,0,0,0,0,0.1c0,0.1,0,0.2,0,0.3
				c0,0,0,0,0,0c0,0.1,0,0.2,0,0.3c0,0,0,0,0,0.1c0,0.1,0,0.2,0,0.3c0,0,0,0,0,0c0,0.1,0,0.2,0,0.3c0,0,0,0,0,0c0,0.1,0,0.2,0,0.3
				c0,0,0,0,0,0c0,0.1,0,0.2,0,0.3c0,0,0,0,0,0c0,0.1,0,0.2,0,0.3c0,0,0,0,0,0.1c0,0.1,0,0.2,0,0.3c0,0,0,0,0,0.1c0,0.1,0,0.2,0,0.3
				c0,0,0,0,0,0.1c0,0.1,0,0.2,0,0.3c0,0,0,0,0,0c0,0.1,0,0.2,0,0.3c0,0,0,0,0,0c0,0.1,0,0.2,0,0.3c0,0,0,0,0,0
				c0.6,7.9,0.9,11.8,1.5,19.7c0,0.5,0.9,1,2.1,1.3c-9.7,0-17.3,0-24.7,0C846.6,921.9,847.4,921.4,847.4,920.9z M677.9,920.9
				c1.4-7.9,2.1-11.8,3.5-19.7c0,0,0-0.1,0-0.1c0-0.1,0-0.1,0-0.2c0,0,0-0.1,0-0.1c0-0.1,0-0.2,0-0.2c0,0,0-0.1,0-0.1
				c0-0.1,0-0.2,0-0.2c0,0,0-0.1,0-0.1c0-0.1,0-0.2,0-0.2c0,0,0-0.1,0-0.1c0-0.1,0-0.2,0-0.2c0,0,0-0.1,0-0.1c0-0.1,0-0.2,0-0.2
				c0,0,0-0.1,0-0.1c0-0.1,0-0.2,0-0.2c0,0,0-0.1,0-0.1c0-0.1,0-0.2,0-0.2c0,0,0-0.1,0-0.1c0-0.1,0-0.2,0-0.2c0,0,0-0.1,0-0.1
				c0-0.1,0-0.2,0-0.2c0,0,0-0.1,0-0.1c0-0.1,0-0.2,0-0.2c0,0,0-0.1,0-0.1c0-0.1,0-0.2,0-0.2c0,0,0-0.1,0-0.1c0-0.1,0-0.2,0-0.2
				c0,0,0-0.1,0-0.1c0-0.1,0-0.2,0-0.2c0,0,0-0.1,0-0.1c0-0.1,0-0.2,0-0.2c0,0,0-0.1,0-0.1c0-0.1,0-0.2,0-0.2c0,0,0-0.1,0-0.1
				c0-0.1,0-0.1,0-0.2c0,0,0-0.1,0-0.1c0-0.1,0-0.2,0-0.2c0,0,0-0.1,0-0.1c0-0.1,0-0.2,0-0.2c0,0,0-0.1,0-0.1c0-0.1,0-0.2,0-0.2
				c0,0,0-0.1,0-0.1c0-0.1,0-0.2,0-0.2c0.1-0.3-0.2-0.6-0.6-0.9c6.6,0,13.3,0,21.7,0c-0.5,0.3-0.8,0.5-0.9,0.8
				c-1.2,7.9-1.8,11.8-3,19.7c0,0,0,0.1,0,0.1c0,0.1,0,0.2,0,0.3c0,0,0,0.1,0,0.1c0,0.1,0,0.2,0,0.3c0,0,0,0.1,0,0.1
				c0,0.1,0,0.2,0,0.3c0,0,0,0.1,0,0.1c0,0.1,0,0.2,0,0.3c0,0,0,0.1,0,0.1c0,0.1,0,0.2,0,0.3c0,0,0,0.1,0,0.1c0,0.1,0,0.2,0,0.3
				c0,0,0,0.1,0,0.1c0,0.1,0,0.2,0,0.3c0,0,0,0.1,0,0.1c0,0.1,0,0.2,0,0.3c0,0,0,0.1,0,0.1c0,0.1,0,0.2,0,0.3c0,0,0,0.1,0,0.1
				c0,0.1,0,0.2,0,0.3c0,0,0,0.1,0,0.1c0,0.1,0,0.2,0,0.3c0,0,0,0.1,0,0.1c0,0.1,0,0.2,0,0.3c0,0,0,0.1,0,0.1c0,0.1,0,0.2,0,0.3
				c0,0,0,0.1,0,0.1c0,0.1,0,0.2,0,0.3c0,0,0,0.1,0,0.1c0,0.1,0,0.2,0,0.3c0,0,0,0.1,0,0.1c0,0.1,0,0.2,0,0.3c0,0,0,0.1,0,0.1
				c0,0.1,0,0.2,0,0.3c0,0,0,0.1,0,0.1c0,0.1,0,0.2,0,0.3c0,0,0,0.1,0,0.1c0,0.1,0,0.2,0,0.3c0,0,0,0.1,0,0.1c0,0.1,0,0.2,0,0.3
				c0,0,0,0.1,0,0.1c0,0.1,0,0.2,0,0.3c-0.1,0.6,0.8,1.1,2,1.3c-0.3,0-0.5,0-0.7,0c-9.5,0-17,0-24.2,0
				C676.9,921.9,677.8,921.4,677.9,920.9z M701.3,950.9c1.1-7.9,1.7-11.8,2.8-19.7c0,0,0,0,0-0.1c0-0.1,0-0.2,0-0.3c0,0,0-0.1,0-0.1
				c0-0.1,0-0.2,0-0.3c0,0,0-0.1,0-0.1c0-0.1,0-0.2,0-0.3c0,0,0-0.1,0-0.1c0-0.1,0-0.2,0-0.3c0,0,0-0.1,0-0.1c0-0.1,0-0.2,0-0.3
				c0,0,0,0,0-0.1c0-0.1,0-0.2,0-0.3c0,0,0,0,0-0.1c0-0.1,0-0.2,0-0.3c0,0,0-0.1,0-0.1c0-0.1,0-0.2,0-0.3c0,0,0-0.1,0-0.1
				c0-0.1,0-0.2,0-0.3c0,0,0-0.1,0-0.1c0-0.1,0-0.2,0-0.3c0,0,0-0.1,0-0.1c0-0.1,0-0.2,0-0.3c0,0,0-0.1,0-0.1c0-0.1,0-0.2,0-0.3
				c0,0,0-0.1,0-0.1c0-0.1,0-0.2,0-0.3c0,0,0-0.1,0-0.1c0-0.1,0-0.2,0-0.3c0,0,0,0,0-0.1c0-0.1,0-0.2,0-0.3c0,0,0-0.1,0-0.1
				c0-0.1,0-0.2,0-0.3c0,0,0-0.1,0-0.1c0-0.1,0-0.2,0-0.3c0,0,0-0.1,0-0.1c0-0.1,0-0.2,0-0.3c0,0,0-0.1,0-0.1c0-0.1,0-0.2,0-0.3
				c0,0,0-0.1,0-0.1c0-0.1,0-0.2,0-0.3c0,0,0-0.1,0-0.1c0-0.1,0-0.2,0-0.3c0.1-0.6-0.8-1.1-2-1.3c0.2,0,0.5,0.1,0.7,0.1
				c9.6,0,17.2,0,24.5,0c-1.2,0.3-2.1,0.7-2.1,1.3c-0.9,7.9-1.3,11.8-2.2,19.7c0,0,0,0,0,0.1c0,0.1,0,0.2,0,0.3c0,0,0,0,0,0.1
				c0,0.1,0,0.2,0,0.3c0,0,0,0.1,0,0.1c0,0.1,0,0.2,0,0.3c0,0,0,0,0,0.1c0,0.1,0,0.2,0,0.3c0,0,0,0,0,0.1c0,0.1,0,0.2,0,0.3
				c0,0,0,0,0,0.1c0,0.1,0,0.2,0,0.3c0,0,0,0,0,0.1c0,0.1,0,0.2,0,0.3c0,0,0,0.1,0,0.1c0,0.1,0,0.2,0,0.3c0,0,0,0,0,0.1
				c0,0.1,0,0.2,0,0.3c0,0,0,0,0,0.1c0,0.1,0,0.2,0,0.3c0,0,0,0,0,0.1c0,0.1,0,0.2,0,0.3c0,0,0,0,0,0.1c0,0.1,0,0.2,0,0.3
				c0,0,0,0,0,0.1c0,0.1,0,0.2,0,0.3c0,0,0,0,0,0.1c0,0.1,0,0.2,0,0.3c0,0,0,0.1,0,0.1c0,0.1,0,0.2,0,0.3c0,0,0,0.1,0,0.1
				c0,0.1,0,0.2,0,0.3c0,0,0,0,0,0.1c0,0.1,0,0.2,0,0.3c0,0,0,0.1,0,0.1c0,0.1,0,0.2,0,0.3c0,0,0,0,0,0.1c0,0.1,0,0.2,0,0.3
				c0,0,0,0,0,0.1c0,0.1,0,0.2,0,0.3c0,0,0,0,0,0.1c0,0.1,0,0.2,0,0.3c-0.1,0.8,1.7,1.5,4,1.5c-10,0-20,0-30,0
				C699.2,952.4,701.2,951.8,701.3,950.9z M785.2,952.5c2.3-0.1,4.2-0.7,4.2-1.5c0.2-7.9,0.3-11.8,0.5-19.7v0c0-0.1,0-0.2,0-0.4
				c0,0,0,0,0,0c0-0.1,0-0.2,0-0.3c0,0,0,0,0,0c0-0.1,0-0.2,0-0.3v0c0-0.1,0-0.2,0-0.3c0,0,0,0,0,0c0-0.1,0-0.2,0-0.3c0,0,0,0,0,0
				c0-0.1,0-0.2,0-0.3c0,0,0,0,0,0c0-0.1,0-0.2,0-0.3c0,0,0,0,0,0c0-0.1,0-0.2,0-0.3c0,0,0,0,0,0c0-0.1,0-0.2,0-0.3c0,0,0,0,0,0
				c0-0.1,0-0.2,0-0.3c0,0,0,0,0,0c0-0.1,0-0.2,0-0.3c0,0,0,0,0,0c0-0.1,0-0.2,0-0.3v0c0-0.1,0-0.2,0-0.3c0,0,0,0,0,0
				c0-0.1,0-0.2,0-0.3v0c0-0.1,0-0.2,0-0.3c0,0,0,0,0,0c0-0.1,0-0.2,0-0.3v0c0-0.1,0-0.2,0-0.3v0c0-0.1,0-0.2,0-0.3c0,0,0,0,0,0
				c0-0.1,0-0.2,0-0.3c0,0,0,0,0,0c0-0.1,0-0.2,0-0.3c0,0,0,0,0,0c0-0.1,0-0.2,0-0.3c0-0.5-0.8-1-1.9-1.3c9.8,0,17.5,0,24.9,0
				c-1.2,0.3-2,0.7-2,1.3c0,0.1,0,0.2,0,0.4l0,0c0,0.1,0,0.2,0,0.4v0c0,0.1,0,0.2,0,0.4l0,0c0,0.1,0,0.2,0,0.4l0,0
				c0,0.1,0,0.2,0,0.4v0c0,0.1,0,0.2,0,0.4l0,0c0,0.1,0,0.2,0,0.3l0,0c0,0.1,0,0.2,0,0.4l0,0c0,0.1,0,0.2,0,0.4l0,0
				c0,0.1,0,0.2,0,0.4v0c0,0.1,0,0.2,0,0.4l0,0c0,0.1,0,0.2,0,0.4l0,0c0,0.1,0,0.2,0,0.4l0,0c0,0.1,0,0.2,0,0.4l0,0
				c0,0.1,0,0.2,0,0.4l0,0c0,0.1,0,0.2,0,0.4l0,0c0,0.1,0,0.2,0,0.4l0,0c0,0.1,0,0.2,0,0.4l0,0c0,0.1,0,0.2,0,0.4l0,0
				c0,0.1,0,0.2,0,0.4l0,0c0,0.1,0,0.2,0,0.4l0,0c0,5,0,8.4,0,12.3c0,2.1,0,4.4,0,7.1l0,0c0,0.1,0,0.2,0,0.4c0,0.8,1.9,1.5,4.2,1.5
				C805.2,952.5,795.2,952.5,785.2,952.5z M930.3,922.2c1.1-0.3,1.9-0.7,1.8-1.3c0-0.1,0-0.2,0-0.3c0,0,0-0.1,0-0.1
				c0-0.1,0-0.2,0-0.3c0,0,0-0.1,0-0.1c0-0.1,0-0.2,0-0.3c0,0,0-0.1,0-0.1c0-0.1,0-0.2,0-0.3c0,0,0-0.1,0-0.1c0-0.1,0-0.2,0-0.3
				c0,0,0-0.1,0-0.1c0-0.1,0-0.2,0-0.3c0,0,0-0.1,0-0.1c0-0.1,0-0.2,0-0.3c0,0,0-0.1,0-0.1c0-0.1,0-0.2,0-0.3c0,0,0-0.1,0-0.1
				c0-0.1,0-0.2,0-0.3c0,0,0-0.1,0-0.1c0-0.1,0-0.2,0-0.3c0,0,0-0.1,0-0.1c0-0.1,0-0.2,0-0.2c0,0,0-0.1,0-0.1c0-0.1,0-0.2,0-0.2
				c0,0,0-0.1,0-0.1c0-0.1,0-0.2,0-0.3c0,0,0-0.1,0-0.1c0-0.1,0-0.2,0-0.2c0,0,0-0.1,0-0.1c0-0.1,0-0.2,0-0.3c0,0,0-0.1,0-0.1
				c0-0.1,0-0.2,0-0.3c0,0,0-0.1,0-0.1c0-0.1,0-0.2,0-0.3c0,0,0-0.1,0-0.1c0-0.1,0-0.2,0-0.2c0,0,0-0.1,0-0.1c0-0.1,0-0.2,0-0.2
				c0,0,0-0.1,0-0.1c0-0.1,0-0.2,0-0.3c0,0,0-0.1,0-0.1c0-0.1,0-0.2,0-0.3c0,0,0-0.1,0-0.1c-1.3-7.9-1.9-11.8-3.3-19.7
				c0-0.3-0.4-0.6-0.9-0.8c6.4,0,13.2,0,21.7,0c-0.4,0.2-0.7,0.5-0.6,0.9c0,0.1,0,0.1,0,0.2c0,0-0.1,0.1,0,0.1c0,0.1,0,0.1,0,0.2
				c0,0-0.1,0.1,0,0.1c0,0.1,0,0.1,0,0.2c0,0-0.1,0.1,0,0.1c0,0.1,0,0.2,0,0.2c0,0-0.1,0.1,0,0.1c0,0.1,0,0.2,0,0.2
				c0,0-0.1,0.1,0,0.1c0,0.1,0,0.2,0,0.2c0,0-0.1,0.1,0,0.1c0,0.1,0,0.1,0,0.2c0,0-0.1,0.1,0,0.1c0,0.1,0,0.1,0,0.2
				c0,0-0.1,0.1,0,0.1c0,0.1,0,0.2,0,0.2c0,0-0.1,0.1,0,0.1c0,0.1,0,0.1,0,0.2c0,0-0.1,0.1,0,0.1c0,0.1,0,0.2,0,0.2
				c0,0-0.1,0.1,0,0.1c0,0.1,0,0.1,0,0.2c0,0-0.1,0.1,0,0.1c0,0.1,0,0.2,0,0.2c0,0-0.1,0.1,0,0.1c0,0.1,0,0.2,0,0.2
				c0,0-0.1,0.1,0,0.1c0,0.1,0,0.1,0,0.2c0,0-0.1,0.1,0,0.1c0,0.1,0,0.1,0,0.2c0,0-0.1,0.1,0,0.1c0,0.1,0,0.1,0,0.2
				c0,0-0.1,0.1,0,0.1c0,0.1,0,0.1,0,0.2c0,0-0.1,0.1,0,0.1c0,0.1,0,0.2,0,0.2c0,0-0.1,0.1,0,0.1c0,0.1,0,0.2,0,0.2
				c0,0-0.1,0.1,0,0.1c0,0.1,0,0.2,0,0.2c0,0-0.1,0.1,0,0.1c1.5,7.9,2.3,11.8,3.8,19.7c0.1,0.5,1,1,2.2,1.3
				C945.4,922.2,937.8,922.2,930.3,922.2z M873.6,952.5c2.3-0.1,4.1-0.7,4-1.5c0-0.1,0-0.2,0-0.3c0,0,0,0,0-0.1c0-0.1,0-0.2,0-0.3
				c0,0,0,0,0-0.1c0-0.1,0-0.2,0-0.3c0,0,0,0,0,0c0-0.1,0-0.2,0-0.3c0,0,0,0,0-0.1c0-0.1,0-0.2,0-0.3c0,0,0,0,0-0.1
				c0-0.1,0-0.2,0-0.3c0,0,0,0,0-0.1c0-0.1,0-0.2,0-0.3c0,0,0,0,0-0.1c0-0.1,0-0.2,0-0.3c0,0,0,0,0-0.1c0-0.1,0-0.2,0-0.3
				c0,0,0,0,0,0c0-0.1,0-0.2,0-0.3c0,0,0,0,0,0c0-0.1,0-0.2,0-0.3c0,0,0,0,0,0c0-0.1,0-0.2,0-0.3c0,0,0,0,0,0c0-0.1,0-0.2,0-0.3
				c0,0,0,0,0-0.1c0-0.1,0-0.2,0-0.3c0,0,0,0,0-0.1c0-0.1,0-0.2,0-0.3c0,0,0,0,0-0.1c0-0.1,0-0.2,0-0.3c0,0,0,0,0,0
				c0-0.1,0-0.2,0-0.3c0,0,0,0,0-0.1c0-0.1,0-0.2,0-0.3c0,0,0,0,0,0c0-0.1,0-0.2,0-0.3c0,0,0,0,0-0.1c0-0.1,0-0.2,0-0.3c0,0,0,0,0,0
				c0-0.1,0-0.2,0-0.3c0,0,0,0,0-0.1c-0.7-7.9-1-11.8-1.7-19.7c-0.1-0.5-0.9-1-2.1-1.3c9.8,0,17.4,0,24.9,0
				c-1.1,0.3-1.9,0.7-1.8,1.3c0,0.1,0,0.2,0,0.3c0,0,0,0,0,0.1c0,0.1,0,0.2,0,0.3c0,0,0,0,0,0.1c0,0.1,0,0.2,0,0.3c0,0,0,0,0,0.1
				c0,0.1,0,0.2,0,0.3c0,0,0,0,0,0.1c0,0.1,0,0.2,0,0.3c0,0,0,0.1,0,0.1c0,0.1,0,0.2,0,0.3c0,0,0,0,0,0.1c0,0.1,0,0.2,0,0.3
				c0,0,0,0,0,0.1c0,0.1,0,0.2,0,0.3c0,0,0,0,0,0.1c0,0.1,0,0.2,0,0.3c0,0,0,0,0,0.1c0,0.1,0,0.2,0,0.3c0,0,0,0,0,0.1
				c0,0.1,0,0.2,0,0.3c0,0,0,0.1,0,0.1c0,0.1,0,0.2,0,0.3c0,0,0,0,0,0.1c0,0.1,0,0.2,0,0.3c0,0,0,0.1,0,0.1c0,0.1,0,0.2,0,0.3
				c0,0,0,0.1,0,0.1c0,0.1,0,0.2,0,0.3c0,0,0,0,0,0.1c0,0.1,0,0.2,0,0.3c0,0,0,0.1,0,0.1c0,0.1,0,0.2,0,0.3c0,0,0,0.1,0,0.1
				c0,0.1,0,0.2,0,0.3c0,0,0,0.1,0,0.1c0,0.1,0,0.2,0,0.3c0,0,0,0,0,0.1c0,0.1,0,0.2,0,0.3c0,0,0,0,0,0.1c0,0.1,0,0.2,0,0.3
				c0,0,0,0,0,0.1c0.9,7.9,1.4,11.8,2.3,19.7c0.1,0.8,2,1.5,4.3,1.5C893.6,952.5,883.6,952.5,873.6,952.5z"/>
			<g>
				<g>
					<g>
						<path class="st3" d="M384.3,883.8c-0.5,0.9-2.8,1.6-5.1,1.6c-21.3,0-31.9,0-53.2,0c-2.3,0-3.7-0.7-3.1-1.6
							c5.4-7.9,8.1-11.8,13.5-19.7c0.6-0.9,2.9-1.6,5.1-1.6c20.6,0,30.9,0,51.5,0c2.2,0,3.6,0.7,3.1,1.6
							C391.4,872,389,875.9,384.3,883.8z"/>
						<path class="st3" d="M465.7,883.8c-0.4,0.9-2.6,1.6-4.9,1.6c-21.3,0-31.9,0-53.2,0c-2.3,0-3.8-0.7-3.3-1.6
							c4.5-7.9,6.7-11.8,11.2-19.7c0.5-0.9,2.7-1.6,4.9-1.6c20.6,0,30.9,0,51.5,0c2.2,0,3.7,0.7,3.3,1.6
							C471.4,872,469.5,875.9,465.7,883.8z"/>
						<path class="st3" d="M547,883.8c-0.3,0.9-2.4,1.6-4.8,1.6c-21.3,0-31.9,0-53.2,0c-2.3,0-3.9-0.7-3.5-1.6
							c3.6-7.9,5.4-11.8,9-19.7c0.4-0.9,2.5-1.6,4.8-1.6c20.6,0,30.9,0,51.5,0c2.3,0,3.8,0.7,3.5,1.6
							C551.4,872,549.9,875.9,547,883.8z"/>
						<path class="st3" d="M628.3,883.8c-0.2,0.9-2.3,1.6-4.6,1.6c-21.3,0-31.9,0-53.2,0c-2.3,0-4-0.7-3.7-1.6
							c2.7-7.9,4-11.8,6.7-19.7c0.3-0.9,2.4-1.6,4.6-1.6c20.6,0,30.9,0,51.5,0c2.2,0,3.9,0.7,3.7,1.6
							C631.4,872,630.4,875.9,628.3,883.8z"/>
						<path class="st3" d="M709.7,883.8c-0.1,0.9-2.1,1.6-4.4,1.6c-21.3,0-31.9,0-53.2,0c-2.3,0-4-0.7-3.8-1.6
							c1.8-7.9,2.7-11.8,4.5-19.7c0.2-0.9,2.2-1.6,4.4-1.6c20.6,0,30.9,0,51.5,0c2.2,0,4,0.7,3.8,1.6
							C711.4,872,710.8,875.9,709.7,883.8z"/>
						<path class="st3" d="M791,883.8c0,0.9-1.9,1.6-4.2,1.6c-21.3,0-31.9,0-53.2,0c-2.3,0-4.1-0.7-4-1.6c0.9-7.9,1.3-11.8,2.2-19.7
							c0.1-0.9,2-1.6,4.2-1.6c20.6,0,30.9,0,51.5,0c2.2,0,4,0.7,4,1.6C791.3,872,791.3,875.9,791,883.8z"/>
						<path class="st3" d="M872.4,883.8c0.1,0.9-1.7,1.6-4.1,1.6c-21.3,0-31.9,0-53.2,0c-2.3,0-4.2-0.7-4.2-1.6c0-7.9,0-11.8,0-19.7
							c0-0.9,1.8-1.6,4.1-1.6c20.6,0,30.9,0,51.5,0c2.2,0,4.1,0.7,4.2,1.6C871.4,872,871.7,875.9,872.4,883.8z"/>
						<path class="st3" d="M953.7,883.8c0.2,0.9-1.6,1.6-3.9,1.6c-21.3,0-31.9,0-53.2,0c-2.3,0-4.3-0.7-4.4-1.6
							c-0.9-7.9-1.4-11.8-2.3-19.7c-0.1-0.9,1.6-1.6,3.9-1.6c20.6,0,30.9,0,51.5,0c2.2,0,4.2,0.7,4.4,1.6
							C951.3,872,952.1,875.9,953.7,883.8z"/>
						<path class="st3" d="M1035.1,883.8c0.3,0.9-1.4,1.6-3.7,1.6c-21.3,0-31.9,0-53.2,0c-2.3,0-4.4-0.7-4.6-1.6
							c-1.8-7.9-2.7-11.8-4.5-19.7c-0.2-0.9,1.5-1.6,3.7-1.6c20.6,0,30.9,0,51.5,0c2.2,0,4.3,0.7,4.5,1.6
							C1031.3,872,1032.6,875.9,1035.1,883.8z"/>
						<path class="st3" d="M1116.4,883.8c0.4,0.9-1.2,1.6-3.5,1.6c-21.3,0-31.9,0-53.2,0c-2.3,0-4.4-0.7-4.7-1.6
							c-2.7-7.9-4.1-11.8-6.8-19.7c-0.3-0.9,1.3-1.6,3.5-1.6c20.6,0,30.9,0,51.5,0c2.2,0,4.4,0.7,4.7,1.6
							C1111.3,872,1113,875.9,1116.4,883.8z"/>
						<path class="st3" d="M1197.8,883.8c0.5,0.9-1,1.6-3.3,1.6c-21.3,0-31.9,0-53.2,0c-2.3,0-4.5-0.7-4.9-1.6
							c-3.6-7.9-5.4-11.8-9-19.7c-0.4-0.9,1.1-1.6,3.4-1.6c20.6,0,30.9,0,51.5,0c2.2,0,4.4,0.7,4.9,1.6
							C1191.3,872,1193.5,875.9,1197.8,883.8z"/>
						<path class="st3" d="M1279.1,883.8c0.6,0.9-0.8,1.6-3.2,1.6c-21.3,0-31.9,0-53.2,0c-2.3,0-4.6-0.7-5.1-1.6
							c-4.5-7.9-6.8-11.8-11.3-19.7c-0.5-0.9,0.9-1.6,3.2-1.6c20.6,0,30.9,0,51.5,0c2.2,0,4.5,0.7,5.1,1.6
							C1271.3,872,1273.9,875.9,1279.1,883.8z"/>
						<path class="st3" d="M348.7,943.5c-0.5,0.9-3,1.6-5.5,1.6c-23,0-34.6,0-57.6,0c-2.5,0-4.1-0.7-3.5-1.6
							c5.4-7.9,8.1-11.8,13.5-19.7c0.6-0.9,3-1.6,5.5-1.6c22.4,0,33.6,0,55.9,0c2.4,0,4,0.7,3.5,1.6
							C355.7,931.6,353.4,935.6,348.7,943.5z"/>
						<path class="st3" d="M436.8,943.5c-0.4,0.9-2.8,1.6-5.3,1.6c-23,0-34.6,0-57.6,0c-2.5,0-4.1-0.7-3.6-1.6
							c4.5-7.9,6.7-11.8,11.2-19.7c0.5-0.9,2.9-1.6,5.3-1.6c22.4,0,33.5,0,55.9,0c2.4,0,4.1,0.7,3.7,1.6
							C442.6,931.6,440.7,935.6,436.8,943.5z"/>
						<path class="st3" d="M525,943.5c-0.3,0.9-2.6,1.6-5.1,1.6c-23.1,0-34.6,0-57.6,0c-2.5,0-4.2-0.7-3.8-1.6
							c3.6-7.9,5.4-11.8,9-19.7c0.4-0.9,2.7-1.6,5.1-1.6c22.4,0,33.6,0,55.9,0c2.4,0,4.2,0.7,3.8,1.6
							C529.4,931.6,527.9,935.6,525,943.5z"/>
						<path class="st3" d="M613.1,943.5c-0.2,0.9-2.4,1.6-4.9,1.6c-23.1,0-34.6,0-57.6,0c-2.5,0-4.3-0.7-4-1.6
							c2.7-7.9,4-11.8,6.7-19.7c0.3-0.9,2.5-1.6,4.9-1.6c22.4,0,33.6,0,55.9,0c2.4,0,4.2,0.7,4,1.6
							C616.2,931.6,615.2,935.6,613.1,943.5z"/>
						<path class="st3" d="M701.3,943.5c-0.1,0.9-2.3,1.6-4.8,1.6c-23,0-34.6,0-57.6,0c-2.5,0-4.4-0.7-4.2-1.6
							c1.8-7.9,2.7-11.8,4.5-19.7c0.2-0.9,2.3-1.6,4.8-1.6c22.4,0,33.6,0,55.9,0c2.4,0,4.3,0.7,4.2,1.6
							C703,931.6,702.4,935.6,701.3,943.5z"/>
						<path class="st3" d="M789.5,943.5c0,0.9-2.1,1.6-4.6,1.6c-23.1,0-34.6,0-57.6,0c-2.5,0-4.5-0.7-4.4-1.6
							c0.9-7.9,1.3-11.8,2.2-19.7c0.1-0.9,2.2-1.6,4.6-1.6c22.4,0,33.6,0,55.9,0c2.4,0,4.4,0.7,4.4,1.6
							C789.8,931.6,789.7,935.6,789.5,943.5z"/>
						<path class="st3" d="M877.6,943.5c0.1,0.9-1.9,1.6-4.4,1.6c-23.1,0-34.6,0-57.6,0c-2.5,0-4.5-0.7-4.5-1.6c0-7.9,0-11.8,0-19.7
							c0-0.9,2-1.6,4.4-1.6c22.4,0,33.6,0,55.9,0c2.4,0,4.5,0.7,4.5,1.6C876.6,931.6,876.9,935.6,877.6,943.5z"/>
						<path class="st3" d="M965.8,943.5c0.2,0.9-1.7,1.6-4.2,1.6c-23.1,0-34.6,0-57.6,0c-2.5,0-4.6-0.7-4.7-1.6
							c-0.9-7.9-1.4-11.8-2.3-19.7c-0.1-0.9,1.8-1.6,4.2-1.6c22.4,0,33.6,0,55.9,0c2.4,0,4.5,0.7,4.7,1.6
							C963.4,931.6,964.2,935.6,965.8,943.5z"/>
						<path class="st3" d="M1053.9,943.5c0.3,0.9-1.6,1.6-4.1,1.6c-23,0-34.6,0-57.6,0c-2.5,0-4.7-0.7-4.9-1.6
							c-1.8-7.9-2.7-11.8-4.5-19.7c-0.2-0.9,1.6-1.6,4-1.6c22.4,0,33.6,0,55.9,0c2.4,0,4.6,0.7,4.9,1.6
							C1050.2,931.6,1051.4,935.6,1053.9,943.5z"/>
						<path class="st3" d="M1142.1,943.5c0.4,0.9-1.4,1.6-3.9,1.6c-23,0-34.6,0-57.6,0c-2.5,0-4.8-0.7-5.1-1.6
							c-2.7-7.9-4.1-11.8-6.8-19.7c-0.3-0.9,1.4-1.6,3.9-1.6c22.4,0,33.6,0,55.9,0c2.4,0,4.7,0.7,5.1,1.6
							C1137,931.6,1138.7,935.6,1142.1,943.5z"/>
						<path class="st3" d="M1230.3,943.5c0.5,0.9-1.2,1.6-3.7,1.6c-23,0-34.6,0-57.6,0c-2.5,0-4.9-0.7-5.3-1.6
							c-3.6-7.9-5.4-11.8-9-19.7c-0.4-0.9,1.3-1.6,3.7-1.6c22.4,0,33.5,0,55.9,0c2.4,0,4.8,0.7,5.3,1.6
							C1223.8,931.6,1226,935.6,1230.3,943.5z"/>
						<path class="st3" d="M1318.4,943.5c0.6,0.9-1,1.6-3.5,1.6c-23,0-34.6,0-57.6,0c-2.5,0-4.9-0.7-5.4-1.6
							c-4.5-7.9-6.8-11.8-11.3-19.7c-0.5-0.9,1.1-1.6,3.5-1.6c22.4,0,33.5,0,55.9,0c2.4,0,4.9,0.7,5.4,1.6
							C1310.6,931.6,1313.2,935.6,1318.4,943.5z"/>
						<path class="st3" d="M339,913.4c-0.5,0.9-2.9,1.6-5.4,1.6c-22.1,0-33.2,0-55.4,0c-2.4,0-3.9-0.7-3.2-1.6
							c5.7-7.9,8.5-11.8,14.2-19.7c0.6-0.9,3-1.6,5.3-1.6c21.5,0,32.2,0,53.7,0c2.3,0,3.8,0.7,3.3,1.6
							C346.5,901.6,344,905.5,339,913.4z"/>
						<path class="st3" d="M423.7,913.4c-0.4,0.9-2.8,1.6-5.2,1.6c-22.1,0-33.2,0-55.4,0c-2.4,0-3.9-0.7-3.4-1.6
							c4.8-7.9,7.2-11.8,12-19.7c0.5-0.9,2.8-1.6,5.2-1.6c21.5,0,32.2,0,53.7,0c2.3,0,3.9,0.7,3.4,1.6
							C429.9,901.6,427.8,905.5,423.7,913.4z"/>
						<path class="st3" d="M508.4,913.4c-0.4,0.9-2.6,1.6-5,1.6c-22.2,0-33.2,0-55.4,0c-2.4,0-4-0.7-3.6-1.6
							c3.9-7.9,5.8-11.8,9.7-19.7c0.4-0.9,2.7-1.6,5-1.6c21.5,0,32.2,0,53.7,0c2.3,0,4,0.7,3.6,1.6
							C513.3,901.6,511.7,905.5,508.4,913.4z"/>
						<path class="st3" d="M593.2,913.4c-0.3,0.9-2.4,1.6-4.8,1.6c-22.2,0-33.2,0-55.4,0c-2.4,0-4.1-0.7-3.8-1.6
							c3-7.9,4.5-11.8,7.5-19.7c0.3-0.9,2.5-1.6,4.8-1.6c21.5,0,32.2,0,53.7,0c2.3,0,4,0.7,3.8,1.6
							C596.6,901.6,595.5,905.5,593.2,913.4z"/>
						<path class="st3" d="M677.9,913.4c-0.2,0.9-2.2,1.6-4.7,1.6c-22.2,0-33.2,0-55.4,0c-2.4,0-4.2-0.7-4-1.6
							c2.1-7.9,3.1-11.8,5.2-19.7c0.2-0.9,2.3-1.6,4.6-1.6c21.5,0,32.2,0,53.7,0c2.3,0,4.1,0.7,4,1.6
							C680,901.6,679.3,905.5,677.9,913.4z"/>
						<path class="st3" d="M762.6,913.4c-0.1,0.9-2.1,1.6-4.5,1.6c-22.1,0-33.2,0-55.4,0c-2.4,0-4.3-0.7-4.2-1.6
							c1.2-7.9,1.8-11.8,3-19.7c0.1-0.9,2.1-1.6,4.5-1.6c21.5,0,32.2,0,53.7,0c2.3,0,4.2,0.7,4.1,1.6
							C763.4,901.6,763.1,905.5,762.6,913.4z"/>
						<path class="st3" d="M847.4,913.4c0,0.9-1.9,1.6-4.3,1.6c-22.2,0-33.2,0-55.4,0c-2.4,0-4.3-0.7-4.3-1.6
							c0.3-7.9,0.4-11.8,0.7-19.7c0-0.9,2-1.6,4.3-1.6c21.5,0,32.2,0,53.7,0c2.3,0,4.3,0.7,4.3,1.6
							C846.8,901.6,847,905.5,847.4,913.4z"/>
						<path class="st3" d="M932.1,913.4c0.1,0.9-1.7,1.6-4.1,1.6c-22.2,0-33.2,0-55.4,0c-2.4,0-4.4-0.7-4.5-1.6
							c-0.6-7.9-0.9-11.8-1.5-19.7c-0.1-0.9,1.8-1.6,4.1-1.6c21.5,0,32.2,0,53.7,0c2.3,0,4.3,0.7,4.5,1.6
							C930.1,901.6,930.8,905.5,932.1,913.4z"/>
						<path class="st3" d="M1016.8,913.4c0.2,0.9-1.5,1.6-3.9,1.6c-22.2,0-33.2,0-55.4,0c-2.4,0-4.5-0.7-4.7-1.6
							c-1.5-7.9-2.3-11.8-3.8-19.7c-0.2-0.9,1.6-1.6,3.9-1.6c21.5,0,32.2,0,53.7,0c2.3,0,4.4,0.7,4.7,1.6
							C1013.5,901.6,1014.6,905.5,1016.8,913.4z"/>
						<path class="st3" d="M1101.5,913.4c0.3,0.9-1.3,1.6-3.7,1.6c-22.2,0-33.2,0-55.4,0c-2.4,0-4.6-0.7-4.9-1.6
							c-2.4-7.9-3.6-11.8-6-19.7c-0.3-0.9,1.4-1.6,3.7-1.6c21.5,0,32.2,0,53.7,0c2.3,0,4.5,0.7,4.9,1.6
							C1096.9,901.6,1098.4,905.5,1101.5,913.4z"/>
						<path class="st3" d="M1186.3,913.4c0.4,0.9-1.2,1.6-3.6,1.6c-22.2,0-33.2,0-55.4,0c-2.4,0-4.7-0.7-5-1.6
							c-3.3-7.9-5-11.8-8.3-19.7c-0.4-0.9,1.2-1.6,3.6-1.6c21.5,0,32.2,0,53.7,0c2.3,0,4.6,0.7,5,1.6
							C1180.3,901.6,1182.3,905.5,1186.3,913.4z"/>
						<path class="st3" d="M1271,913.4c0.5,0.9-1,1.6-3.4,1.6c-22.1,0-33.2,0-55.4,0c-2.4,0-4.8-0.7-5.2-1.6
							c-4.2-7.9-6.3-11.8-10.6-19.7c-0.5-0.9,1.1-1.6,3.4-1.6c21.5,0,32.2,0,53.7,0c2.3,0,4.7,0.7,5.2,1.6
							C1263.6,901.6,1266.1,905.5,1271,913.4z"/>
						<path class="st3" d="M1349.2,913.4c0.6,0.9-0.8,1.6-3.2,1.6c-22.2,0-33.2,0-55.4,0c-2.4,0-4.8-0.7-5.4-1.6
							c-5.1-7.9-7.6-11.8-12.6-19.7c-0.6-0.9,0.9-1.6,3.2-1.6c21.5,0,32.2,0,53.7,0c2.3,0,4.7,0.7,5.4,1.6
							C1340.6,901.6,1343.5,905.5,1349.2,913.4z"/>
						<path class="st3" d="M332.6,973.8c-0.5,0.9-3,1.6-5.7,1.6c-23.9,0-35.9,0-59.9,0c-2.6,0-4.3-0.7-3.7-1.6
							c5.4-7.9,8.1-11.8,13.4-19.7c0.6-0.9,3.1-1.5,5.7-1.5c23.3,0,34.9,0,58.2,0c2.5,0,4.2,0.7,3.7,1.5
							C339.6,961.9,337.3,965.9,332.6,973.8z"/>
						<path class="st3" d="M424.2,973.8c-0.4,0.9-2.9,1.6-5.5,1.6c-23.9,0-35.9,0-59.9,0c-2.6,0-4.3-0.7-3.8-1.6
							c4.5-7.9,6.7-11.8,11.2-19.7c0.5-0.9,2.9-1.6,5.5-1.6c23.3,0,34.9,0,58.2,0c2.5,0,4.3,0.7,3.8,1.6
							C429.9,961.9,428,965.9,424.2,973.8z"/>
						<path class="st3" d="M515.8,973.8c-0.3,0.9-2.7,1.6-5.3,1.6c-23.9,0-35.9,0-59.9,0c-2.6,0-4.4-0.7-4-1.6
							c3.6-7.9,5.4-11.8,8.9-19.7c0.4-0.9,2.8-1.6,5.3-1.6c23.3,0,34.9,0,58.2,0c2.5,0,4.3,0.7,4,1.6
							C520.1,961.9,518.7,965.9,515.8,973.8z"/>
						<path class="st3" d="M607.4,973.8c-0.2,0.9-2.5,1.6-5.1,1.6c-24,0-35.9,0-59.9,0c-2.6,0-4.5-0.7-4.2-1.6
							c2.7-7.9,4-11.8,6.7-19.7c0.3-0.9,2.6-1.6,5.1-1.6c23.3,0,34.9,0,58.2,0c2.5,0,4.4,0.7,4.2,1.6
							C610.4,961.9,609.4,965.9,607.4,973.8z"/>
						<path class="st3" d="M977.5,973.8c0.2,0.9-1.8,1.6-4.4,1.6c-112.9,0-225.9,0-338.8,0c-2.6,0-4.6-0.7-4.4-1.6
							c1.8-7.9,2.7-11.8,4.4-19.7c0.2-0.9,2.4-1.5,4.9-1.5c109.7,0,219.5,0,329.2,0c2.5,0,4.7,0.7,4.9,1.6
							C975,961.9,975.8,965.9,977.5,973.8z"/>
						<path class="st3" d="M1065.5,973.8c0.3,0.9-1.6,1.6-4.2,1.6c-24,0-35.9,0-59.9,0c-2.6,0-4.9-0.7-5.1-1.6
							c-1.8-7.9-2.8-11.8-4.6-19.7c-0.2-0.9,1.7-1.6,4.2-1.6c23.3,0,34.9,0,58.2,0c2.5,0,4.8,0.7,5.1,1.6
							C1061.8,961.9,1063,965.9,1065.5,973.8z"/>
						<path class="st3" d="M1157.1,973.8c0.4,0.9-1.4,1.6-4,1.6c-24,0-35.9,0-59.9,0c-2.6,0-5-0.7-5.3-1.6
							c-2.7-7.9-4.1-11.8-6.8-19.7c-0.3-0.9,1.5-1.6,4.1-1.6c23.3,0,34.9,0,58.2,0c2.5,0,4.9,0.7,5.3,1.6
							C1152,961.9,1153.7,965.9,1157.1,973.8z"/>
						<path class="st3" d="M1248.8,973.8c0.5,0.9-1.3,1.6-3.9,1.6c-24,0-35.9,0-59.9,0c-2.6,0-5.1-0.7-5.5-1.6
							c-3.6-7.9-5.5-11.8-9.1-19.7c-0.4-0.9,1.4-1.6,3.9-1.6c23.3,0,34.9,0,58.2,0c2.5,0,5,0.7,5.4,1.6
							C1242.3,961.9,1244.4,965.9,1248.8,973.8z"/>
						<path class="st3" d="M1340.4,973.8c0.6,0.9-1.1,1.6-3.7,1.6c-23.9,0-35.9,0-59.9,0c-2.6,0-5.1-0.7-5.6-1.6
							c-4.5-7.9-6.8-11.8-11.3-19.7c-0.5-0.9,1.2-1.6,3.7-1.6c23.3,0,34.9,0,58.2,0c2.5,0,5,0.7,5.6,1.6
							C1332.5,961.9,1335.1,965.9,1340.4,973.8z"/>
					</g>
				</g>
			</g>
		</g>
		<path class="st7" d="M817.4,25.5c0,6.1-5,11.1-11.1,11.1c-6.1,0-11.1-5-11.1-11.1c0-6.1,5-11.1,11.1-11.1
			C812.4,14.4,817.4,19.4,817.4,25.5z"/>
		<path class="st8" d="M1389.6,762.9v6.7H225v-722h456.8L634.7,0H217.2c-12.7,0-23.1,10.3-23.1,23.1v769c0,12.8,10.3,23.1,23.1,23.1
			h1178.2c12.7,0,23.1-10.3,23.1-23.1L1389.6,762.9z"/>
	</g>
	<g>
		<path class="st9" d="M1704.8,1193.3c0,9.2-7.4,16.6-16.6,16.6h-405.5c-9.2,0-16.6-7.4-16.6-16.6V419.6c0-9.2,7.4-16.6,16.6-16.6
			h405.5c9.2,0,16.6,7.4,16.6,16.6V1193.3z"/>
		<path class="st10" d="M1528.4,1183.2c0,5-4,9-9,9h-68c-5,0-9-4-9-9v-19.6c0-5,4-9,9-9h68c5,0,9,4,9,9V1183.2z"/>
		<g>
			<path class="st11" d="M1527.6,442.3c0,3.2-2.6,5.8-5.8,5.8h-89.5c-3.2,0-5.8-2.6-5.8-5.8l0,0c0-3.2,2.6-5.8,5.8-5.8h89.5
				C1525,436.5,1527.6,439.1,1527.6,442.3L1527.6,442.3z"/>
			<circle class="st11" cx="1538.6" cy="442.3" r="5.8"/>
		</g>
		<path class="st12" d="M1704.8,1193.3c0,9.2-7.4,16.6-16.6,16.6h-405.5c-9.2,0-16.6-7.4-16.6-16.6V419.6c0-9.2,7.4-16.6,16.6-16.6
			h405.5c9.2,0,16.6,7.4,16.6,16.6V1193.3z"/>
		<path class="st13" d="M1699.9,1205.1c-3,3-7.2,4.9-11.8,4.9h-405.5c-9.2,0-16.6-7.4-16.6-16.6V419.6c0-9.2,7.4-16.6,16.6-16.6
			h156.8L1699.9,1205.1z"/>
		<rect x="1266" y="471.3" class="st7" width="438.8" height="669.8"/>
	</g>
</g>
</svg>
