<svg width="1355" height="497" viewBox="0 0 1355 497" fill="none" xmlns="http://www.w3.org/2000/svg">
<circle cx="496" cy="82" r="2" fill="#D9D9D9"/>
<circle cx="752" cy="75" r="2" fill="#D9D9D9"/>
<circle cx="258" cy="7" r="2" fill="#D9D9D9"/>
<circle cx="470" cy="139" r="2" fill="#D9D9D9"/>
<circle cx="579.822" cy="236.822" r="2" transform="rotate(-41.2646 579.822 236.822)" fill="#D9D9D9"/>
<circle cx="516.873" cy="335.816" r="2" transform="rotate(-41.2646 516.873 335.816)" fill="#D9D9D9"/>
<circle cx="817.822" cy="318.822" r="2" transform="rotate(-41.2646 817.822 318.822)" fill="#D9D9D9"/>
<circle cx="357.873" cy="228.822" r="2" transform="rotate(-41.2646 357.873 228.822)" fill="#D9D9D9"/>
<circle cx="47.8726" cy="275.822" r="2" transform="rotate(-41.2646 47.8726 275.822)" fill="#D9D9D9"/>
<circle cx="129.963" cy="341.707" r="2" transform="rotate(-61.8546 129.963 341.707)" fill="#D9D9D9"/>
<circle cx="5.82242" cy="128.822" r="2" transform="rotate(-41.2646 5.82242 128.822)" fill="#D9D9D9"/>
<circle cx="411" cy="317.007" r="2" fill="#D9D9D9"/>
<circle cx="1159.79" cy="93.7896" r="2" transform="rotate(35.4966 1159.79 93.7896)" fill="#D9D9D9"/>
<circle cx="1351.79" cy="72.7896" r="2" transform="rotate(35.4966 1351.79 72.7896)" fill="#D9D9D9"/>
<circle cx="968.79" cy="114.79" r="2" transform="rotate(35.4966 968.79 114.79)" fill="#D9D9D9"/>
<circle cx="1324.19" cy="334.191" r="2" transform="rotate(-5.76805 1324.19 334.191)" fill="#D9D9D9"/>
<circle cx="899.822" cy="391.822" r="2" transform="rotate(-41.2646 899.822 391.822)" fill="#D9D9D9"/>
<circle cx="1178.82" cy="447.822" r="2" transform="rotate(-41.2646 1178.82 447.822)" fill="#D9D9D9"/>
<circle cx="1039.81" cy="389.5" r="2" transform="rotate(52.0127 1039.81 389.5)" fill="#D9D9D9"/>
<circle cx="1293.19" cy="484.191" r="2" transform="rotate(-5.76805 1293.19 484.191)" fill="#D9D9D9"/>
<circle cx="926.79" cy="245.765" r="2" transform="rotate(35.4966 926.79 245.765)" fill="#D9D9D9"/>
<circle cx="532.822" cy="488.822" r="2" transform="rotate(-41.2646 532.822 488.822)" fill="#D9D9D9"/>
<circle cx="881.246" cy="22.0997" r="2" transform="rotate(-7.56024 881.246 22.0997)" fill="#D9D9D9"/>
<circle cx="628.822" cy="470.822" r="2" transform="rotate(-41.2646 628.822 470.822)" fill="#D9D9D9"/>
<circle cx="817" cy="120" r="2" fill="#D9D9D9" fill-opacity="0.3"/>
<circle cx="673" cy="51" r="2" fill="#D9D9D9" fill-opacity="0.4"/>
<circle cx="789" cy="8" r="2" fill="#D9D9D9" fill-opacity="0.4"/>
<circle cx="752" cy="267" r="2" fill="#D9D9D9" fill-opacity="0.3"/>
<circle cx="498.822" cy="275.822" r="2" transform="rotate(-41.2646 498.822 275.822)" fill="#D9D9D9" fill-opacity="0.3"/>
<circle cx="471.822" cy="403.822" r="2" transform="rotate(-41.2646 471.822 403.822)" fill="#D9D9D9" fill-opacity="0.3"/>
<circle cx="793.822" cy="216.822" r="2" transform="rotate(-41.2646 793.822 216.822)" fill="#D9D9D9" fill-opacity="0.3"/>
<circle cx="570" cy="424" r="2" fill="#D9D9D9" fill-opacity="0.3"/>
<circle cx="260" cy="471" r="2" fill="#D9D9D9" fill-opacity="0.3"/>
<circle cx="2.82242" cy="343.829" r="2" transform="rotate(-41.2646 2.82242 343.829)" fill="#D9D9D9" fill-opacity="0.3"/>
<circle cx="111.707" cy="421.213" r="2" transform="rotate(-61.8546 111.707 421.213)" fill="#D9D9D9" fill-opacity="0.3"/>
<circle cx="238.111" cy="230.428" r="2" transform="rotate(-36.0539 238.111 230.428)" fill="#D9D9D9" fill-opacity="0.3"/>
<circle cx="209.584" cy="80.2167" r="2" transform="rotate(-36.0539 209.584 80.2167)" fill="#D9D9D9" fill-opacity="0.3"/>
<circle cx="41.794" cy="7.79402" r="2" transform="rotate(-36.0539 41.794 7.79402)" fill="#D9D9D9" fill-opacity="0.3"/>
<circle cx="1078.18" cy="135.099" r="2" transform="rotate(35.4966 1078.18 135.099)" fill="#D9D9D9" fill-opacity="0.3"/>
<circle cx="1142.15" cy="2.70392" r="2" transform="rotate(27.9363 1142.15 2.70392)" fill="#D9D9D9" fill-opacity="0.3"/>
<circle cx="1022.2" cy="263.229" r="2" transform="rotate(-5.76805 1022.2 263.229)" fill="#D9D9D9" fill-opacity="0.3"/>
<circle cx="1137.19" cy="212.191" r="2" transform="rotate(-5.76805 1137.19 212.191)" fill="#D9D9D9" fill-opacity="0.3"/>
<circle cx="1247.79" cy="170.79" r="2" transform="rotate(35.4966 1247.79 170.79)" fill="#D9D9D9" fill-opacity="0.3"/>
<circle cx="1117.38" cy="311.807" r="2" transform="rotate(52.0127 1117.38 311.807)" fill="#D9D9D9" fill-opacity="0.3"/>
<circle cx="923.822" cy="493.822" r="2" transform="rotate(-41.2646 923.822 493.822)" fill="#D9D9D9" fill-opacity="0.3"/>
<circle cx="756.822" cy="447.822" r="2" transform="rotate(-41.2646 756.822 447.822)" fill="#D9D9D9" fill-opacity="0.3"/>
</svg>
